{"glyphs":{"0":{"ha":600,"x_min":55,"x_max":544,"o":"m 55 350 b 50.5 568.9 116.8 694.2 300 712 b 464.0 714.5 542.1 611.0 544 350 b 548.5 131.1 482.2 5.8 299 -12 b 136.4 -8.9 57.1 101.4 55 350 m 462 350 q 462 403 456 451 l 159 180 b 214.0 -6.3 384.1 -35.1 462 350 m 138 350 b 137.8 328.3 139.8 290.9 143 257 l 441 527 b 386.9 705.6 213.7 733.7 138 350"},"1":{"ha":600,"x_min":85,"x_max":515,"o":"m 127 0 l 127 72 l 284 72 l 284 598 l 124 486 l 85 543 l 305 700 l 361 700 l 361 72 l 515 72 l 515 0 l 127 0"},"2":{"ha":600,"x_min":78,"x_max":522,"o":"m 500 523 b 520.7 450.0 404.5 274.7 170 72 l 522 72 l 522 0 l 78 0 l 78 72 b 137.2 120.9 232.1 206.6 350 344 b 449.9 456.8 463.6 581.6 296 642 b 246.9 645.1 183.5 629.2 138 595 l 104 650 b 222.0 750.9 408.7 764.9 500 523"},"3":{"ha":600,"x_min":88,"x_max":511,"o":"m 248 57 b 352.7 57.8 419.6 101.3 433 203 b 443.8 271.0 378.6 328.7 254 331 l 190 331 l 190 379 l 387 628 l 88 628 l 88 700 l 483 700 l 483 628 l 286 397 l 302 397 b 421.8 396.6 496.7 342.1 511 212 b 505.3 74.0 421.3 -2.8 245 -12 b 198.9 -13.4 135.5 -3.2 88 14 l 108 84 b 127.7 72.1 181.3 58.6 248 57"},"4":{"ha":600,"x_min":44,"x_max":580,"o":"m 580 284 l 580 218 l 445 218 l 445 0 l 367 0 l 367 218 l 44 218 l 44 276 l 379 700 l 445 700 l 445 284 l 580 284 m 367 284 l 367 575 l 136 284 l 367 284"},"5":{"ha":600,"x_min":83,"x_max":506,"o":"m 256 58 b 356.3 55.3 417.1 98.4 428 213 b 439.7 284.3 370.7 354.3 236 360 l 142 355 l 142 700 l 485 700 l 485 628 l 217 628 l 217 425 l 267 427 b 544.7 362.5 564.5 158.6 433 47.5 b 323.1 -22.0 209.2 -25.8 145 3.5 b 124.1 9.2 95.8 21.1 83 31 l 115 96 b 124.5 85.6 175.4 63.1 256 58"},"6":{"ha":600,"x_min":61,"x_max":539,"o":"m 539 211 b 541.1 93.4 473.9 10.1 302 -12 b 162.1 -12.2 76.4 59.4 61 234 b 64.6 484.8 178.5 655.4 434 712 l 448 648 b 285.5 619.6 182.1 516.9 146 338 b 166.6 376.4 217.2 405.1 312 414 b 448.1 413.1 527.4 352.5 539 211 m 457 203 b 407.0 368.6 259.9 378.1 199 321.5 b 145.6 286.3 129.1 249.5 139 224 b 135.8 138.3 181.1 73.5 304 55 b 392.6 58.8 447.5 105.8 457 203"},"7":{"ha":600,"x_min":69,"x_max":511,"o":"m 206 0 l 124 0 l 430 628 l 69 628 l 69 700 l 511 700 l 511 635 l 206 0"},"8":{"ha":600,"x_min":75,"x_max":525,"o":"m 75 170 q 75 291 222 365 b 147.8 395.9 100.7 441.8 91 538 b 91.2 636.5 155.0 698.7 306 712 b 425.7 709.7 497.0 659.8 508 554 b 516.7 502.9 479.4 424.2 388 363 b 465.0 330.7 514.7 282.0 525 185 b 527.4 72.7 461.5 2.3 293 -12 b 157.8 -6.7 83.5 52.2 75 170 m 446 180 b 440.8 248.6 387.6 293.8 285 335 b 126.7 227.8 119.9 143.0 189.5 92 b 245.6 45.8 327.8 41.3 401.5 86.5 b 421.9 97.6 443.7 133.1 446 180 m 169 541 b 173.8 474.2 224.5 430.1 325 391 b 450.7 486.5 458.2 574.2 392.5 616 b 344.6 653.8 275.0 657.4 205 612 b 188.1 599.7 170.7 570.8 169 541"},"9":{"ha":600,"x_min":61,"x_max":539,"o":"m 61 489 b 57.2 612.1 125.0 694.0 302 712 b 445.4 710.7 527.4 636.4 539 461 b 534.2 180.7 418.7 23.7 166 -12 l 151 51 b 316.7 71.4 416.8 162.6 454 346 b 419.7 304.7 373.3 285.9 286 286 b 162.1 285.9 79.9 346.0 61 489 m 143 497 b 192.5 324.8 359.0 314.4 459 414 b 468.0 426.6 470.4 473.5 422 586 b 365.1 676.5 225.7 690.2 143 497"}," ":{"ha":600,"x_min":0,"x_max":0,"o":""},"!":{"ha":600,"x_min":242,"x_max":358,"o":"m 259 353 l 259 700 l 342 700 l 342 353 l 325 177 l 276 177 l 259 353 m 242 46 b 259.1 119.9 326.4 127.2 358 46 b 339.7 -27.5 271.9 -35.0 242 46"},"\"":{"ha":600,"x_min":152,"x_max":447,"o":"m 359 397 l 359 700 l 447 700 l 416 397 l 359 397 m 152 397 l 152 700 l 240 700 l 209 397 l 152 397"},"#":{"ha":600,"x_min":30,"x_max":569,"o":"m 303 58 l 342 225 l 197 225 l 158 58 l 89 58 l 128 225 l 30 225 l 44 289 l 143 289 l 174 420 l 80 420 l 94 484 l 189 484 l 227 642 l 296 642 l 258 484 l 403 484 l 441 642 l 510 642 l 472 484 l 569 484 l 553 420 l 457 420 l 426 289 l 519 289 l 503 225 l 411 225 l 372 58 l 303 58 m 243 420 l 212 289 l 357 289 l 388 420 l 243 420"},"$":{"ha":600,"x_min":97,"x_max":503,"o":"m 263 -100 l 263 -12 b 212.0 -12.9 140.1 -1.2 97 20 l 124 93 b 137.0 81.3 188.1 65.0 263 60 l 263 330 b 178.6 358.4 116.6 411.2 100 534 b 88.8 604.0 142.3 685.6 263 709 l 263 800 l 331 800 l 331 712 b 377.6 711.6 434.1 701.1 473 683 l 449 613 b 435.1 622.7 392.8 635.6 331 640 l 331 393 b 418.8 360.5 484.8 305.8 503 185 b 514.5 109.5 456.8 20.2 331 -8 l 331 -100 l 263 -100 m 420 178 b 417.3 235.8 384.6 273.8 315 305 l 315 62 b 360.8 62.7 413.7 101.7 420 178 m 183 539 b 177.8 499.7 215.1 452.7 279 420 l 279 639 b 226.8 637.5 184.2 596.4 183 539"},"%":{"ha":600,"x_min":28,"x_max":571,"o":"m 28 542 b 33.8 657.0 77.0 710.9 156 712 b 221.1 720.4 269.7 679.6 284 542 b 278.2 423.9 235.0 371.5 156 373 b 90.9 364.8 42.3 405.7 28 542 m 98 542 b 124.0 416.6 169.6 412.2 196 457 b 218.8 494.8 221.1 572.3 196 626.5 b 176.2 669.7 135.2 678.8 98 542 m 315 169 b 320.8 284.0 364.0 337.9 443 339 b 508.1 347.4 556.7 306.6 571 169 b 565.2 50.9 522.0 -1.5 443 0 b 377.9 -8.2 329.3 32.7 315 169 m 385 169 b 411.0 43.8 456.6 39.5 483 82.5 b 505.8 120.5 508.1 199.5 483 253.5 b 460.3 283.0 432.6 285.2 403 254 b 395.0 246.6 386.0 216.3 385 169 m 94 12 l 442 718 l 499 689 l 151 -14 l 94 12"},"&":{"ha":600,"x_min":30,"x_max":569,"o":"m 30 207 b 21.2 267.1 70.7 365.8 170 434 b 100.4 531.1 92.7 617.7 144.5 672 b 197.2 722.4 295.5 727.4 370 674 b 428.3 642.1 439.1 570.4 267 421 b 310.2 346.8 369.0 271.8 449 187 b 477.2 233.4 492.1 295.8 493 370 l 564 370 b 565.6 313.0 542.4 211.4 494 139 b 504.4 124.4 531.9 97.8 569 73 l 569 -12 q 516 14 448 81 b 411.1 32.2 358.4 -2.6 249 -12 b 135.9 -15.8 52.8 43.9 30 207 m 401 131 b 326.1 210.3 261.2 296.1 207 383 b 87.1 273.0 81.8 162.1 161 95 b 214.7 41.3 302.2 36.3 401 131 m 189 584 b 186.4 558.3 203.3 510.8 234 466 b 353.7 549.8 361.1 616.8 259 649 b 223.4 652.8 191.0 628.5 189 584"},"'":{"ha":600,"x_min":261,"x_max":349,"o":"m 261 397 l 261 700 l 349 700 l 318 397 l 261 397"},"(":{"ha":600,"x_min":110,"x_max":510,"o":"m 510 -153 l 496 -220 b 267.5 -202.2 132.7 -72.5 110 243 b 112.1 508.1 225.4 663.0 486 712 l 497 647 b 307.6 621.3 202.9 514.8 190 243 b 195.1 5.0 294.8 -121.9 510 -153"},")":{"ha":600,"x_min":110,"x_max":510,"o":"m 110 645 l 124 712 b 352.5 694.2 487.3 563.2 510 249 b 506.8 -16.1 393.3 -171.0 134 -220 l 123 -155 b 312.4 -129.3 417.1 -22.8 430 249 b 424.9 487.0 325.2 613.9 110 645"},"*":{"ha":600,"x_min":61,"x_max":539,"o":"m 144 675 l 213 714 l 302 539 l 388 715 l 457 678 l 336 509 l 539 524 l 539 443 l 342 459 l 458 298 l 391 259 l 298 438 l 210 259 l 138 298 l 259 459 l 61 443 l 61 524 l 259 507 l 144 675"},"+":{"ha":600,"x_min":48,"x_max":552,"o":"m 48 302 l 48 374 l 264 374 l 264 595 l 336 595 l 336 374 l 552 374 l 552 302 l 336 302 l 336 81 l 264 81 l 264 302 l 48 302"},",":{"ha":600,"x_min":225,"x_max":379,"o":"m 229 55 b 249.7 145.4 336.1 156.6 379 21 b 370.0 -75.5 322.1 -129.5 250 -149 l 225 -110 b 261.0 -101.2 306.6 -62.8 313 -7 b 300.1 -21.2 252.5 -17.6 229 55"},"-":{"ha":600,"x_min":129,"x_max":471,"o":"m 129 251 l 129 325 l 471 325 l 471 251 l 129 251"},".":{"ha":600,"x_min":233,"x_max":367,"o":"m 233 55 b 253.0 140.7 331.4 148.9 367 55 b 346.9 -29.5 267.8 -38.4 233 55"},"/":{"ha":600,"x_min":86,"x_max":514,"o":"m 86 -112 l 451 712 l 514 684 l 149 -140 l 86 -112"},":":{"ha":600,"x_min":233,"x_max":367,"o":"m 233 448 b 253.0 533.7 331.4 541.9 367 448 b 346.9 363.5 267.8 354.6 233 448 m 233 55 b 253.0 140.7 331.4 148.9 367 55 b 346.9 -29.5 267.8 -38.4 233 55"},";":{"ha":600,"x_min":225,"x_max":379,"o":"m 229 55 b 249.7 145.4 336.1 156.6 379 21 b 370.0 -75.5 322.1 -129.5 250 -149 l 225 -110 b 261.0 -101.2 306.6 -62.8 313 -7 b 300.1 -21.2 252.5 -17.6 229 55 m 238 448 b 258.0 533.7 336.4 541.9 372 448 b 351.9 363.5 272.8 354.6 238 448"},"<":{"ha":600,"x_min":45,"x_max":555,"o":"m 517 33 l 45 305 l 45 334 l 516 621 l 554 559 l 157 324 l 555 93 l 517 33"},"=":{"ha":600,"x_min":68,"x_max":532,"o":"m 68 385 l 68 457 l 532 457 l 532 385 l 68 385 m 68 220 l 68 292 l 532 292 l 532 220 l 68 220"},">":{"ha":600,"x_min":45,"x_max":555,"o":"m 555 305 l 83 33 l 45 93 l 443 324 l 46 559 l 84 621 l 555 334 l 555 305"},"?":{"ha":600,"x_min":54,"x_max":521,"o":"m 298 177 l 232 177 b 221.9 174.1 219.2 220.8 285 324.5 b 354.1 371.6 415.7 420.7 438 517 b 441.9 574.5 401.5 625.5 283 642 b 203.1 636.9 148.6 607.6 105 560 l 54 606 b 201.1 735.3 384.0 743.9 470.5 651.5 b 536.9 581.0 542.5 486.0 463 390.5 b 388.4 340.4 321.5 287.2 298 177 m 212 46 b 229.1 119.9 296.4 127.2 328 46 b 309.7 -27.5 241.9 -35.0 212 46"},"@":{"ha":600,"x_min":22,"x_max":595,"o":"m 527 327 b 525.2 279.6 520.0 193.5 528 65 l 595 65 l 595 0 l 462 0 l 453 75 l 448 75 b 441.3 43.6 408.2 7.5 305 -9 b 220.1 -8.7 166.2 33.4 155 133 b 158.9 260.3 249.0 311.4 447 283 b 461.6 407.7 433.3 471.1 323 476 b 204.5 477.7 118.0 386.3 94 162 b 101.2 -35.3 185.8 -137.6 357 -146 b 418.0 -145.8 480.4 -123.0 538 -68 l 579 -121 b 454.1 -237.6 292.8 -248.6 128 -130.5 b -5.3 2.8 -18.9 250.8 123 448 b 260.2 563.8 403.1 571.9 486 490.5 b 507.7 471.9 526.2 411.0 527 327 m 325 58 b 393.9 63.5 430.7 97.5 447 152 l 447 222 b 324.8 247.9 249.8 229.6 237 140 b 230.8 106.9 259.1 64.2 325 58"},"A":{"ha":600,"x_min":16,"x_max":584,"o":"m 497 0 l 431 194 l 162 194 l 98 0 l 16 0 l 250 700 l 348 700 l 584 0 l 497 0 m 293 595 l 188 266 l 408 266 l 305 595 l 293 595"},"B":{"ha":600,"x_min":100,"x_max":543,"o":"m 522 540 b 524.6 471.0 489.3 412.4 390 375 l 390 371 b 471.5 363.5 528.0 316.7 543 199 b 533.3 63.9 446.5 -3.7 282 -8 b 234.0 -10.0 171.3 -7.3 100 5 l 100 694 b 210.7 714.5 336.7 718.2 446 676.5 b 478.9 665.4 517.3 616.9 522 540 m 290 64 b 378.2 61.9 440.1 97.3 455 193 b 446.8 288.9 383.4 326.4 270 322 l 183 322 l 183 71 b 205.6 66.9 243.3 64.5 290 64 m 183 392 l 235 392 b 287.3 386.1 338.5 394.8 398.5 443 b 445.4 484.9 450.5 553.4 388 613 b 328.8 640.5 252.3 641.4 183 630 l 183 392"},"C":{"ha":600,"x_min":65,"x_max":544,"o":"m 458 517 l 458 624 b 424.0 650.1 343.4 655.5 220.5 574 b 135.7 468.0 127.1 279.0 215.5 134 b 313.0 50.1 416.5 45.5 469 79 l 469 179 l 543 179 l 543 44 l 544 42 b 457.8 -31.3 299.4 -41.6 147 75 b 41.0 208.0 30.7 444.5 154 628.5 b 287.9 724.9 417.8 728.9 469 702.5 b 485.8 699.3 510.0 688.7 531 675 l 532 675 l 532 517 l 458 517"},"D":{"ha":600,"x_min":80,"x_max":552,"o":"m 80 -1 l 80 700 b 164.3 725.4 300.6 731.5 481.5 609.5 b 572.8 474.2 580.5 287.2 485 102.5 b 339.8 -21.4 186.2 -29.3 152 -6.5 b 131.4 -5.3 98.2 -3.7 80 -1 m 234 634 b 221.7 634.4 188.3 633.2 163 629 l 163 69 b 180.8 67.0 206.5 65.8 232 65 b 404.4 73.7 472.0 169.2 464 355 b 481.6 493.9 433.0 601.4 234 634"},"E":{"ha":600,"x_min":107,"x_max":523,"o":"m 107 0 l 107 700 l 518 700 l 518 626 l 190 626 l 190 397 l 493 397 l 493 323 l 190 323 l 190 74 l 523 74 l 523 0 l 107 0"},"F":{"ha":600,"x_min":117,"x_max":518,"o":"m 117 0 l 117 700 l 518 700 l 518 626 l 200 626 l 200 387 l 498 387 l 498 313 l 200 313 l 200 0 l 117 0"},"G":{"ha":600,"x_min":53,"x_max":533,"o":"m 437 517 l 437 631 b 326.4 663.6 227.4 637.6 158.5 486 b 88.3 242.8 215.8 5.3 462 87 l 462 282 l 318 282 l 318 349 l 533 349 l 533 41 b 489.3 9.3 426.7 -9.6 340 -12 b 168.1 -20.0 68.7 78.0 53 350 b 63.2 589.8 160.4 707.1 347 712 b 402.5 713.4 470.3 704.7 512 688 l 511 684 l 511 517 l 437 517"},"H":{"ha":600,"x_min":60,"x_max":540,"o":"m 457 0 l 457 321 l 143 321 l 143 0 l 60 0 l 60 700 l 143 700 l 143 395 l 457 395 l 457 700 l 540 700 l 540 0 l 457 0"},"I":{"ha":600,"x_min":60,"x_max":540,"o":"m 60 626 l 60 700 l 540 700 l 540 626 l 341 626 l 341 74 l 540 74 l 540 0 l 60 0 l 60 74 l 258 74 l 258 626 l 60 626"},"J":{"ha":600,"x_min":84,"x_max":493,"o":"m 97 626 l 97 700 l 493 700 l 493 248 b 408.3 -44.6 211.0 -59.7 151 8.5 b 128.3 15.8 98.2 31.5 84 46 l 120 112 b 144.8 91.3 183.4 71.5 258 64 b 332.2 49.5 404.4 110.8 410 263 l 410 626 l 97 626"},"K":{"ha":600,"x_min":85,"x_max":595,"o":"m 490 0 l 245 324 l 168 324 l 168 0 l 85 0 l 85 700 l 168 700 l 168 388 l 243 388 l 468 700 l 564 700 l 317 367 l 595 0 l 490 0"},"L":{"ha":600,"x_min":90,"x_max":530,"o":"m 90 0 l 90 700 l 173 700 l 173 74 l 456 74 l 456 248 l 530 248 l 530 0 l 90 0"},"M":{"ha":600,"x_min":60,"x_max":540,"o":"m 457 0 l 457 465 l 467 560 l 462 560 l 414 474 l 312 303 l 287 303 l 180 475 l 134 560 l 129 560 l 141 466 l 141 0 l 60 0 l 60 700 l 137 700 l 303 434 l 305 434 l 465 700 l 540 700 l 540 0 l 457 0"},"N":{"ha":600,"x_min":70,"x_max":530,"o":"m 476 0 l 196 438 l 142 539 l 138 539 l 148 438 l 148 0 l 70 0 l 70 700 l 124 700 l 406 264 l 458 168 l 463 168 l 452 264 l 452 700 l 530 700 l 530 0 l 476 0"},"O":{"ha":600,"x_min":48,"x_max":552,"o":"m 48 350 b 120.2 771.3 376.6 798.4 496 612.5 b 600.9 491.1 620.6 189.7 299 -12 b 129.8 -10.0 49.0 98.6 48 350 m 136 350 b 127.6 193.7 167.3 87.6 299 62 b 492.0 147.7 501.3 419.5 430 551.5 b 375.5 694.0 218.3 720.0 136 350"},"P":{"ha":600,"x_min":100,"x_max":537,"o":"m 100 0 l 100 693 b 199.5 717.3 310.2 720.9 449 666 b 559.7 590.3 571.1 432.0 453 313.5 b 322.4 254.6 234.9 252.7 224.5 262.5 b 212.6 262.9 192.8 264.4 183 266 l 183 0 l 100 0 m 271 636 b 247.0 636.6 207.4 635.4 183 630 l 183 340 b 202.7 336.5 233.9 335.5 261 336 b 356.4 326.2 428.8 361.0 449 493 b 442.0 592.2 381.1 636.7 271 636"},"Q":{"ha":600,"x_min":48,"x_max":552,"o":"m 48 350 b 120.2 771.3 376.6 798.4 496 612.5 b 594.1 490.6 611.0 204.3 341 -9 b 346.4 -65.2 401.8 -96.8 514 -57 l 536 -118 b 483.0 -162.0 406.6 -166.7 322 -121 b 297.9 -109.8 266.0 -68.9 254 -8 b 115.4 11.9 49.7 119.2 48 350 m 136 350 b 127.6 193.7 167.3 87.6 299 62 b 492.0 147.7 501.3 419.5 430 551.5 b 375.5 694.0 218.3 720.0 136 350"},"R":{"ha":600,"x_min":100,"x_max":570,"o":"m 100 0 l 100 693 b 212.9 716.7 324.9 720.8 438.5 665 b 523.0 590.5 530.3 471.5 461.5 388.5 b 444.1 367.1 410.3 342.3 385 332 l 570 0 l 473 0 l 308 308 l 183 308 l 183 0 l 100 0 m 280 636 b 244.8 636.9 211.4 634.9 183 630 l 183 372 l 261 372 b 458.5 409.4 479.5 570.5 280 636"},"S":{"ha":600,"x_min":75,"x_max":535,"o":"m 150 210 l 150 99 b 238.1 53.9 329.9 49.0 405.5 89.5 b 472.7 128.9 480.9 213.0 356 291 b 231.5 325.1 121.2 381.7 82 534 b 83.2 640.0 151.8 702.0 312 712 b 367.6 713.8 449.9 702.4 499 681 l 501 682 l 501 680 l 502 680 l 501 677 l 501 517 l 427 517 l 427 624 b 357.8 644.1 273.7 647.0 203.5 608.5 b 144.9 576.8 137.5 509.1 261 427.5 b 385.5 390.3 495.8 331.7 535 185 b 535.2 69.3 466.0 -0.3 296 -12 b 198.7 -7.4 125.2 14.9 75 45 l 76 48 l 76 210 l 150 210"},"T":{"ha":600,"x_min":40,"x_max":560,"o":"m 40 517 l 40 700 l 560 700 l 560 517 l 486 517 l 486 626 l 341 626 l 341 74 l 451 74 l 451 0 l 148 0 l 148 74 l 258 74 l 258 626 l 114 626 l 114 517 l 40 517"},"U":{"ha":600,"x_min":60,"x_max":540,"o":"m 460 256 l 460 700 l 540 700 l 540 233 b 539.0 75.7 470.3 -3.9 309 -9 b 186.3 -24.5 68.7 49.4 60 217 l 60 700 l 143 700 l 143 256 b 140.6 126.6 186.1 65.9 310 65 b 389.8 50.8 457.4 108.8 460 256"},"V":{"ha":600,"x_min":14,"x_max":586,"o":"m 105 700 l 302 103 l 313 103 l 503 700 l 586 700 l 351 0 l 254 0 l 14 700 l 105 700"},"W":{"ha":600,"x_min":15,"x_max":585,"o":"m 94 700 l 173 201 l 178 136 l 185 136 l 199 207 l 273 480 l 339 480 l 408 209 l 426 135 l 431 135 l 437 203 l 511 700 l 585 700 l 477 0 l 394 0 l 313 284 l 303 352 l 300 352 l 289 283 l 208 0 l 124 0 l 15 700 l 94 700"},"X":{"ha":600,"x_min":20,"x_max":580,"o":"m 20 0 l 251 356 l 40 700 l 140 700 l 280 463 l 305 416 l 329 463 l 478 700 l 570 700 l 351 363 l 580 0 l 483 0 l 326 251 l 299 301 l 273 251 l 113 0 l 20 0"},"Y":{"ha":600,"x_min":9,"x_max":591,"o":"m 259 0 l 259 268 l 9 700 l 106 700 l 306 354 l 307 354 l 502 700 l 591 700 l 342 269 l 342 0 l 259 0"},"Z":{"ha":600,"x_min":55,"x_max":545,"o":"m 55 0 l 55 75 l 450 626 l 55 626 l 55 700 l 545 700 l 545 625 l 148 74 l 545 74 l 545 0 l 55 0"},"[":{"ha":600,"x_min":149,"x_max":530,"o":"m 149 -230 l 149 700 l 530 700 l 530 630 l 227 630 l 227 -160 l 530 -160 l 530 -230 l 149 -230"},"\\":{"ha":600,"x_min":82,"x_max":518,"o":"m 149 712 l 518 -111 l 452 -140 l 82 684 l 149 712"},"]":{"ha":600,"x_min":69,"x_max":451,"o":"m 451 700 l 451 -230 l 69 -230 l 69 -160 l 373 -160 l 373 630 l 69 630 l 69 700 l 451 700"},"^":{"ha":600,"x_min":35,"x_max":567,"o":"m 35 301 l 294 711 l 323 711 l 567 301 l 485 301 l 305 609 l 118 301 l 35 301"},"_":{"ha":600,"x_min":56,"x_max":544,"o":"m 56 -205 l 56 -135 l 544 -135 l 544 -205 l 56 -205"},"`":{"ha":600,"x_min":196,"x_max":370,"o":"m 305 720 l 370 571 l 315 571 l 196 720 l 305 720"},"a":{"ha":600,"x_min":75,"x_max":545,"o":"m 133 403 l 108 461 b 239.3 523.9 372.9 528.9 445.5 450.5 b 483.0 386.0 483.4 300.3 472 160 q 472 110 478 65 l 545 65 l 545 0 l 412 0 l 403 75 l 398 75 b 387.6 43.6 344.0 7.5 235 -9 b 43.1 34.0 27.0 183.9 162 270 b 193.6 289.3 284.3 298.2 397 283 b 412.8 393.9 386.7 442.5 292 441 b 251.7 442.5 184.5 425.1 133 403 m 255 58 b 327.5 63.5 374.8 97.5 397 152 l 397 222 b 259.9 247.9 173.9 229.6 157 140 b 149.6 106.9 178.8 64.2 255 58"},"b":{"ha":600,"x_min":2,"x_max":543,"o":"m 2 633 l 2 700 l 162 700 l 162 443 l 167 443 b 249.6 593.2 549.9 574.9 472 60.5 b 324.2 -31.2 164.8 -22.9 85 32 l 85 633 l 2 633 m 313 445 b 256.0 453.3 190.4 407.9 162 315 l 162 85 b 228.4 48.4 321.4 43.4 412 106.5 b 471.1 184.1 476.3 298.9 426.5 390.5 b 414.7 415.8 372.8 442.4 313 445"},"c":{"ha":600,"x_min":60,"x_max":541,"o":"m 439 328 l 439 423 b 392.8 474.8 253.5 490.2 143 250 b 143.8 137.6 203.2 73.1 340 63 b 382.7 59.6 455.6 81.2 506 121 l 541 63 b 507.2 28.0 442.4 -2.6 324 -12 b 159.4 -11.2 70.4 67.5 60 250 b 59.9 410.9 134.9 500.0 313 512 b 381.5 513.9 462.9 496.0 512 470 l 511 467 l 511 328 l 439 328"},"d":{"ha":600,"x_min":56,"x_max":589,"o":"m 349 633 l 349 700 l 511 700 l 511 171 b 511.5 144.1 515.1 106.5 522 65 l 589 65 l 589 0 l 456 0 l 446 77 l 442 77 b 372.3 -62.8 170.6 -88.3 56 249 b 56.7 409.3 133.1 496.9 311 508 b 359.7 508.4 394.0 503.9 433 491 l 433 633 l 349 633 m 289 55 b 347.5 46.4 410.6 88.1 433 181 l 433 413 b 384.0 477.1 237.8 492.1 139 249 b 132.6 139.9 169.8 69.9 289 55"},"e":{"ha":600,"x_min":63,"x_max":537,"o":"m 498 120 l 529 63 b 482.0 20.0 411.7 -7.1 309 -12 b 156.7 -11.2 73.2 67.3 63 250 b 62.9 410.9 137.9 500.0 316 512 b 435.4 529.9 521.2 467.8 532 237 l 145 237 b 211.6 31.4 361.1 21.7 427 80 b 449.5 87.8 480.9 105.1 498 120 m 318 446 b 230.3 451.8 170.5 416.7 148 307 l 459 307 b 462.1 372.5 410.5 439.8 318 446"},"f":{"ha":600,"x_min":88,"x_max":511,"o":"m 492 0 l 88 0 l 88 67 l 207 67 l 207 433 l 88 433 l 88 500 l 207 500 l 207 528 b 272.0 734.0 439.1 742.4 511 686 l 493 621 b 434.0 664.6 336.0 674.9 285 500 l 492 500 l 492 433 l 285 433 l 285 67 l 492 67 l 492 0"},"g":{"ha":600,"x_min":69,"x_max":524,"o":"m 524 478 l 524 -25 b 519.7 -144.0 446.6 -206.2 292 -212 b 238.1 -214.5 163.5 -198.2 113 -169 l 151 -98 b 174.9 -119.7 220.7 -136.8 291 -142 b 397.2 -146.3 445.6 -109.5 446 1 l 446 57 l 442 57 b 384.8 -62.4 186.3 -84.8 69 249 b 154.6 545.2 412.9 560.3 524 478 m 301 55 b 359.3 46.1 422.4 87.6 446 183 l 446 420 b 251.1 487.3 113.5 372.1 159 171.5 b 162.1 118.5 200.0 68.1 301 55"},"h":{"ha":600,"x_min":4,"x_max":525,"o":"m 4 633 l 4 700 l 160 700 l 160 438 l 165 438 b 254.6 527.9 391.3 535.9 480.5 467 b 502.7 451.5 523.6 387.3 525 288 l 525 0 l 447 0 l 447 273 b 455.6 380.7 425.9 438.4 319 445 b 246.1 443.5 189.7 405.4 160 318 l 160 0 l 83 0 l 83 633 l 4 633"},"i":{"ha":600,"x_min":105,"x_max":529,"o":"m 529 0 l 105 0 l 105 67 l 279 67 l 279 433 l 105 433 l 105 500 l 359 500 l 359 67 l 529 67 l 529 0 m 252 642 b 272.1 724.5 345.3 733.7 384 642 b 360.6 564.2 286.4 555.8 252 642"},"j":{"ha":600,"x_min":59,"x_max":426,"o":"m 336 3 l 336 433 l 94 433 l 94 500 l 416 500 l 416 -12 b 344.0 -241.7 180.1 -252.3 122 -188.5 b 101.2 -179.8 73.0 -163.6 59 -153 l 92 -88 b 170.9 -165.1 289.7 -178.4 336 3 m 294 642 b 314.1 724.5 387.3 733.7 426 642 b 402.6 564.2 328.4 555.8 294 642"},"k":{"ha":600,"x_min":24,"x_max":558,"o":"m 24 633 l 24 700 l 186 700 l 186 286 l 241 286 l 438 500 l 532 500 l 311 263 l 493 67 l 558 67 l 558 0 l 455 0 l 241 226 l 186 226 l 186 0 l 109 0 l 109 633 l 24 633"},"l":{"ha":600,"x_min":70,"x_max":463,"o":"m 70 633 l 70 700 l 236 700 l 236 168 b 253.1 33.7 338.1 27.9 427 99 l 463 46 b 420.6 10.1 370.8 -10.1 312 -13 b 217.0 -19.8 164.4 25.0 158 168 l 158 633 l 70 633"},"m":{"ha":600,"x_min":41,"x_max":559,"o":"m 338 0 l 262 0 l 262 333 b 266.7 390.4 255.9 431.8 210 442 b 178.0 447.3 137.3 409.4 117 344 l 117 0 l 41 0 l 41 500 l 93 500 l 108 439 l 112 439 b 130.2 479.7 157.8 506.7 226 512 b 268.6 514.8 304.3 494.4 323 429 b 388.8 528.4 493.1 536.3 538.5 469.5 b 549.8 453.9 558.8 410.4 559 357 l 559 0 l 483 0 l 483 340 b 486.3 396.2 475.2 433.8 433 442 b 400.0 449.0 358.3 411.7 338 334 l 338 0"},"n":{"ha":600,"x_min":18,"x_max":525,"o":"m 93 0 l 93 325 b 93.1 353.4 90.9 392.7 85 435 l 18 435 l 18 500 l 152 500 l 161 419 l 166 419 b 191.0 466.3 243.1 502.4 337 512 b 454.4 524.4 517.9 471.5 525 287 l 525 0 l 447 0 l 447 272 b 417.7 466.2 292.2 476.9 227 401 b 208.1 387.5 182.4 352.8 170 314 l 170 0 l 93 0"},"o":{"ha":600,"x_min":57,"x_max":543,"o":"m 57 250 b 134.8 553.4 371.4 575.2 484 436 b 560.9 335.8 567.8 193.2 480 59 b 388.8 -32.7 240.7 -41.4 116 64 b 86.4 91.3 58.8 165.0 57 250 m 140 250 b 134.2 150.9 175.1 75.7 300 55 b 487.2 117.7 498.1 294.9 424.5 383 b 371.4 483.2 224.7 500.6 140 250"},"p":{"ha":600,"x_min":21,"x_max":554,"o":"m 96 -200 l 96 325 b 96.1 353.4 93.9 392.7 88 435 l 21 435 l 21 500 l 154 500 l 164 430 l 169 430 b 242.4 560.7 440.1 585.8 554 260 b 552.8 97.3 475.0 2.9 295 -12 b 246.4 -12.1 213.1 -6.6 173 10 l 173 -200 l 96 -200 m 326 439 b 246.7 433.6 192.3 390.6 173 315 l 173 87 b 221.3 18.0 367.6 2.4 471 261 b 481.9 345.3 438.3 431.2 326 439"},"q":{"ha":600,"x_min":60,"x_max":515,"o":"m 515 477 l 515 -200 l 437 -200 l 437 56 l 433 56 b 375.8 -62.4 177.3 -84.6 60 249 b 145.6 545.4 403.4 560.0 515 477 m 293 55 q 412 55 437 180 l 437 421 b 382.1 474.8 241.8 489.0 143 250 b 136.6 138.0 174.9 68.4 293 55"},"r":{"ha":600,"x_min":66,"x_max":556,"o":"m 470 0 l 66 0 l 66 67 l 201 67 l 201 433 l 66 433 l 66 500 l 253 500 l 269 435 l 274 435 b 378.6 525.1 499.1 534.9 536.5 459 b 547.8 440.4 556.1 386.3 556 318 l 486 317 b 481.4 462.7 405.7 469.6 328.5 410 b 311.0 398.3 288.5 377.1 278 362 l 278 67 l 470 67 l 470 0"},"s":{"ha":600,"x_min":84,"x_max":516,"o":"m 438 135 b 420.7 202.2 329.7 227.3 190 256 b 85.0 302.0 74.4 405.3 163 477.5 b 230.0 525.2 358.1 529.0 502 458 l 470 395 b 372.5 452.2 266.2 459.1 219.5 428 b 162.8 401.1 155.4 344.6 268 305.5 b 380.7 297.0 480.3 264.9 516 147 b 443.7 -31.4 250.8 -45.0 173 10 b 147.3 18.2 108.8 37.7 84 58 l 124 123 b 157.8 88.3 216.1 61.3 307 54 b 378.7 51.5 426.8 72.1 438 135"},"t":{"ha":600,"x_min":31,"x_max":530,"o":"m 31 433 l 31 500 l 150 500 l 150 599 l 228 621 l 228 500 l 495 500 l 495 433 l 228 433 l 228 197 b 266.1 26.4 407.4 17.7 504 108 l 530 49 b 420.0 -27.2 301.0 -34.8 209 34 b 182.2 50.7 153.1 106.9 150 185 l 150 433 l 31 433"},"u":{"ha":600,"x_min":25,"x_max":578,"o":"m 363 433 l 363 500 l 505 500 l 505 159 q 505 110 511 65 l 578 65 l 578 0 l 445 0 l 442 85 l 438 85 b 349.9 -29.6 213.2 -40.4 133 35 b 112.3 51.8 93.2 116.3 92 213 l 92 433 l 25 433 l 25 500 l 170 500 l 170 229 b 161.1 123.4 182.5 62.9 278 55 b 326.8 48.5 392.7 94.6 427 174 l 427 433 l 363 433"},"v":{"ha":600,"x_min":43,"x_max":557,"o":"m 135 500 l 302 97 l 313 97 l 470 500 l 557 500 l 346 0 l 258 0 l 43 500 l 135 500"},"w":{"ha":600,"x_min":10,"x_max":590,"o":"m 271 390 l 339 390 l 439 112 l 446 112 l 517 500 l 590 500 l 492 0 l 403 0 l 307 276 l 304 276 l 204 0 l 115 0 l 10 500 l 87 500 l 168 110 l 174 110 l 271 390"},"x":{"ha":600,"x_min":46,"x_max":554,"o":"m 46 0 l 253 256 l 60 500 l 160 500 l 304 312 l 452 500 l 542 500 l 349 260 l 554 0 l 458 0 l 299 205 l 137 0 l 46 0"},"y":{"ha":600,"x_min":46,"x_max":554,"o":"m 136 500 l 311 77 l 349 77 l 473 500 l 554 500 l 415 51 b 405.0 -59.7 362.0 -164.7 209 -205 b 173.1 -203.4 137.1 -192.6 109 -172 l 137 -100 b 156.2 -114.2 187.7 -123.9 221 -127 q 296 -127 323 0 l 256 0 l 46 500 l 136 500"},"z":{"ha":600,"x_min":84,"x_max":516,"o":"m 84 0 l 84 67 l 423 433 l 84 433 l 84 500 l 516 500 l 516 433 l 174 67 l 516 67 l 516 0 l 84 0"},"{":{"ha":600,"x_min":80,"x_max":520,"o":"m 220 -66 l 220 32 b 209.4 139.2 156.1 195.6 80 200 l 80 270 b 140.7 263.6 198.6 305.3 220 434 l 220 536 b 221.7 630.1 268.9 689.1 375 701 l 520 701 l 520 631 l 410 631 b 348.0 639.0 298.9 599.3 298 512 l 298 415 b 284.7 310.8 231.7 253.0 168 240 l 168 234 b 215.9 228.6 272.4 174.7 298 55 l 298 -41 b 289.5 -101.3 323.2 -156.6 411 -160 l 520 -160 l 520 -230 l 375 -230 b 305.4 -241.0 228.5 -185.9 220 -66"},"|":{"ha":600,"x_min":266,"x_max":334,"o":"m 266 -130 l 266 700 l 334 700 l 334 -130 l 266 -130"},"}":{"ha":600,"x_min":80,"x_max":520,"o":"m 380 32 l 380 -66 b 389.1 -146.2 331.9 -224.0 225 -230 l 80 -230 l 80 -160 l 189 -160 b 249.1 -168.4 300.0 -130.2 302 -41 l 302 55 b 315.3 155.8 368.3 218.4 432 234 l 432 240 b 382.6 243.7 326.3 292.4 302 415 l 302 512 b 310.9 570.4 279.5 626.7 190 631 l 80 631 l 80 701 l 225 701 b 314.3 698.7 369.5 647.8 380 536 l 380 434 b 390.6 322.8 443.9 270.7 520 270 l 520 200 b 459.3 203.6 401.4 157.4 380 32"},"~":{"ha":600,"x_min":78,"x_max":521,"o":"m 112 301 l 78 361 b 181.9 433.4 253.9 436.1 318 392.5 b 371.1 357.0 422.7 351.5 487 401 l 521 340 b 430.9 281.5 366.2 279.0 304.5 320.5 b 258.4 357.7 202.9 364.1 112 301"}," ":{"ha":600,"x_min":0,"x_max":0,"o":""},"¡":{"ha":600,"x_min":242,"x_max":358,"o":"m 341 147 l 341 -200 l 258 -200 l 258 147 l 275 323 l 324 323 l 341 147 m 242 453 b 259.1 526.9 326.4 534.2 358 453 b 339.7 379.5 271.9 372.0 242 453"},"¢":{"ha":600,"x_min":83,"x_max":517,"o":"m 491 90 l 517 29 b 482.6 6.1 432.9 -7.3 367 -9 l 367 -100 l 296 -100 l 296 -10 b 48.4 94.0 31.4 318.6 146 431 b 168.8 462.8 228.1 497.9 296 509 l 296 600 l 367 600 l 367 511 b 407.8 512.2 470.3 496.2 508 477 l 485 409 b 457.3 423.7 415.5 436.9 360 441 l 360 58 b 405.6 58.6 454.3 69.2 491 90 m 166 250 b 163.3 159.5 201.9 90.5 306 62 l 306 439 b 244.3 442.6 174.2 376.6 166 250"},"£":{"ha":600,"x_min":77,"x_max":523,"o":"m 77 313 l 77 383 l 143 383 b 78.5 440.0 63.5 600.8 324 712 b 380.4 713.8 457.0 701.6 504 680 l 478 609 b 400.6 659.6 256.3 669.7 198 518 b 196.3 480.8 209.9 427.9 232 383 l 393 383 l 393 313 l 262 313 b 283.5 248.9 285.7 189.8 270 145.5 b 266.8 130.6 249.4 101.9 220 74 l 523 74 l 523 0 l 77 0 l 77 72 b 155.5 77.4 194.4 121.5 197 203 b 198.3 232.3 189.5 276.3 174 313 l 77 313"},"¤":{"ha":600,"x_min":48,"x_max":551,"o":"m 48 547 l 97 596 l 204 490 b 238.2 520.5 323.8 528.2 394 489 l 502 596 l 551 547 l 445 439 b 474.3 403.4 481.6 320.2 445 251 l 551 143 l 502 95 l 396 200 b 360.2 170.6 272.1 163.2 202 201 l 97 95 l 48 143 l 153 250 b 117.7 322.5 121.1 387.9 154 440 l 48 547 m 197 345 b 229.5 212.8 345.2 198.8 402 345 b 368.4 478.3 252.5 492.6 197 345"},"¥":{"ha":600,"x_min":28,"x_max":571,"o":"m 137 268 l 137 328 l 231 328 l 28 700 l 125 700 l 304 360 l 309 360 l 482 700 l 571 700 l 368 328 l 464 328 l 464 268 l 342 268 l 342 197 l 464 197 l 464 137 l 342 137 l 342 0 l 259 0 l 259 137 l 137 137 l 137 197 l 259 197 l 259 268 l 137 268"},"¦":{"ha":600,"x_min":266,"x_max":334,"o":"m 266 -130 l 266 206 l 334 206 l 334 -130 l 266 -130 m 334 700 l 334 364 l 266 364 l 266 700 l 334 700"},"§":{"ha":600,"x_min":108,"x_max":491,"o":"m 108 353 b 104.1 394.3 126.3 439.8 198 487 b 115.6 522.9 100.4 638.9 302 712 b 351.6 713.6 416.0 701.4 458 681 l 439 614 b 363.1 653.8 260.5 660.0 225 583 b 238.0 530.5 311.3 505.2 422 466.5 b 512.4 415.6 525.5 320.7 401 213 b 468.3 171.1 473.6 83.2 408.5 20 b 354.0 -21.4 250.1 -24.8 140 21 l 160 86 b 233.5 46.2 335.7 39.0 374 117 b 361.0 170.4 287.7 196.0 177 234.5 b 147.1 245.5 112.3 287.0 108 353 m 411 345 b 405.2 400.8 353.9 429.3 261 452 b 174.3 404.1 164.9 325.9 234.5 286.5 b 251.3 276.6 292.4 263.2 335 249 b 373.9 265.2 403.2 295.2 411 345"},"¨":{"ha":600,"x_min":131,"x_max":469,"o":"m 131 645 b 148.4 719.6 213.8 727.3 245 645 b 226.6 573.4 161.3 565.7 131 645 m 354 645 b 371.2 719.6 436.3 727.3 469 645 b 449.6 573.4 383.7 565.7 354 645"},"©":{"ha":600,"x_min":43,"x_max":556,"o":"m 43 295 b 48.9 449.1 130.7 537.9 300 551 b 441.2 551.6 534.5 476.8 556 295 b 549.9 140.9 469.1 52.1 300 39 b 148.5 38.4 57.6 113.2 43 295 m 96 295 b 99.0 167.0 162.8 95.6 300 87 b 414.0 85.0 487.9 144.4 503 295 b 499.8 421.9 436.1 493.1 300 503 b 185.0 504.0 111.0 444.3 96 295 m 371 227 l 386 177 b 243.5 114.9 143.4 197.0 212 397 b 277.5 445.0 339.8 441.6 381 413 l 362 362 b 246.1 400.9 207.8 254.9 313 213 b 329.1 212.0 352.6 216.7 371 227"},"ª":{"ha":600,"x_min":155,"x_max":445,"o":"m 190 627 l 175 677 b 262.8 727.2 403.2 736.4 440 607 b 436.0 508.2 434.4 435.1 445 380 l 390 380 l 377 426 l 373 426 b 333.0 357.6 217.4 346.0 155 471 b 159.0 546.1 218.4 581.0 345 582 b 350.9 582.0 361.4 581.2 372 581 b 382.7 590.8 387.4 625.5 315 652 b 277.8 653.2 222.5 643.0 190 627 m 280 432 b 331.1 434.7 359.8 455.1 372 487 l 372 529 b 351.6 532.0 315.6 532.7 256.5 520 b 212.6 501.0 207.1 455.5 280 432"},"«":{"ha":600,"x_min":50,"x_max":550,"o":"m 253 20 l 50 264 l 245 518 l 303 470 l 147 268 l 310 69 l 253 20 m 493 20 l 290 264 l 485 518 l 543 470 l 387 268 l 550 69 l 493 20"},"¬":{"ha":600,"x_min":88,"x_max":512,"o":"m 88 320 l 88 392 l 512 392 l 512 200 l 440 200 l 440 320 l 88 320"},"­":{"ha":600,"x_min":178,"x_max":422,"o":"m 178 251 l 178 325 l 422 325 l 422 251 l 178 251"},"®":{"ha":600,"x_min":35,"x_max":565,"o":"m 35 451 b 40.9 614.0 126.1 704.3 300 716 b 447.6 718.0 544.5 642.7 565 451 b 559.1 288.0 473.9 197.7 300 186 b 152.0 184.0 55.5 259.3 35 451 m 98 451 b 102.4 320.9 166.7 252.3 300 245 b 414.2 241.0 486.9 297.3 502 451 b 497.6 581.1 433.4 649.7 300 657 b 184.3 659.9 111.8 603.2 98 451 m 197 322 l 197 581 b 253.3 604.9 340.2 611.4 399 513 b 395.3 474.4 375.7 452.3 344 445 l 430 322 l 369 322 l 291 426 l 249 426 l 249 322 l 197 322 m 286 546 b 275.9 546.5 259.3 545.9 249 542 l 249 468 l 283 468 b 351.1 471.5 368.1 530.2 286 546"},"¯":{"ha":600,"x_min":152,"x_max":448,"o":"m 152 581 l 152 643 l 448 643 l 448 581 l 152 581"},"°":{"ha":600,"x_min":159,"x_max":441,"o":"m 159 571 b 161.7 652.5 206.0 702.4 300 712 b 378.5 712.6 429.9 670.8 441 571 b 438.3 486.5 394.0 437.0 300 430 b 221.5 429.4 170.1 471.2 159 571 m 222 571 b 250.4 467.6 332.2 457.6 378 571 b 349.6 674.4 267.8 684.4 222 571"},"±":{"ha":600,"x_min":88,"x_max":512,"o":"m 88 421 l 88 493 l 264 493 l 264 674 l 336 674 l 336 493 l 512 493 l 512 421 l 336 421 l 336 301 l 264 301 l 264 421 l 88 421 m 88 178 l 88 250 l 512 250 l 512 178 l 88 178"},"²":{"ha":600,"x_min":114,"x_max":465,"o":"m 445 675 b 434.2 582.0 354.9 507.2 219 443 l 465 443 l 465 380 l 114 380 l 114 433 b 161.2 465.5 233.3 509.0 321 576.5 b 385.5 635.3 391.1 691.6 345 725.5 b 312.9 748.6 267.8 750.2 207.5 724 b 192.2 716.9 170.3 701.9 157 690 l 125 739 b 147.1 767.3 198.8 795.4 298 807 b 380.8 808.5 433.5 771.7 445 675"},"³":{"ha":600,"x_min":71,"x_max":436,"o":"m 262 433 b 393.4 453.7 407.2 541.5 268 580 l 203 580 l 203 618 l 333 740 l 105 740 l 105 800 l 421 800 l 421 747 l 292 632 l 292 630 b 481.8 592.8 503.0 447.6 253 373 b 185.9 373.5 121.3 396.4 71 449 l 107 501 b 124.5 474.2 169.9 444.8 262 433"},"´":{"ha":600,"x_min":196,"x_max":370,"o":"m 196 571 l 261 720 l 370 720 l 251 571 l 196 571"},"µ":{"ha":600,"x_min":84,"x_max":571,"o":"m 443 0 l 432 74 l 428 74 b 345.6 -25.7 224.2 -36.5 164 26 l 159 26 l 164 -67 l 164 -200 l 84 -200 l 84 500 l 164 500 l 164 217 b 181.2 18.9 322.4 3.9 420 176 l 420 500 l 500 500 l 500 163 b 499.8 126.9 503.3 88.3 507 65 l 571 65 l 571 0 l 443 0"},"¶":{"ha":600,"x_min":114,"x_max":486,"o":"m 418 -130 l 418 700 l 486 700 l 486 -130 l 418 -130 m 262 -130 l 262 310 b 177.9 316.5 125.4 381.6 114 506 b 113.2 608.1 163.0 680.8 285 700 l 330 700 l 330 -130 l 262 -130"},"·":{"ha":600,"x_min":233,"x_max":367,"o":"m 233 305 b 253.0 390.7 331.4 398.9 367 305 b 346.9 220.5 267.8 211.6 233 305"},"¸":{"ha":600,"x_min":216,"x_max":383,"o":"m 271 0 l 328 0 l 304 -43 b 413.8 -70.0 424.4 -155.6 261 -208 b 251.8 -208.3 234.2 -206.9 216 -204 l 225 -165 b 233.2 -168.5 261.8 -169.0 299.5 -152.5 b 322.3 -149.0 338.3 -139.1 223 -90 l 271 0"},"¹":{"ha":600,"x_min":128,"x_max":485,"o":"m 134 380 l 134 441 l 280 441 l 280 716 l 155 646 l 128 701 l 294 800 l 350 800 l 350 441 l 485 441 l 485 380 l 134 380"},"º":{"ha":600,"x_min":145,"x_max":455,"o":"m 145 542 b 147.7 653.0 195.4 709.2 300 712 b 387.8 718.2 443.2 675.3 455 542 b 452.3 427.0 404.6 373.1 300 372 b 212.2 365.8 156.8 408.7 145 542 m 219 542 b 246.2 410.2 322.1 404.7 359.5 453.5 b 387.1 493.1 389.7 574.2 359.5 630.5 b 332.3 675.4 264.9 685.6 219 542"},"»":{"ha":600,"x_min":50,"x_max":550,"o":"m 550 264 l 347 20 l 290 69 l 453 268 l 297 470 l 355 518 l 550 264 m 310 264 l 107 20 l 50 69 l 213 268 l 57 470 l 115 518 l 310 264"},"¼":{"ha":600,"x_min":35,"x_max":549,"o":"m 123 10 l 432 713 l 479 693 l 171 -12 l 123 10 m 549 150 l 549 97 l 498 97 l 498 0 l 440 0 l 440 97 l 305 97 l 305 138 l 449 426 l 498 426 l 498 150 l 549 150 m 440 150 l 440 307 l 368 150 l 440 150 m 135 280 l 135 617 l 67 558 l 35 595 l 153 700 l 193 700 l 193 280 l 135 280"},"½":{"ha":600,"x_min":35,"x_max":560,"o":"m 111 10 l 420 713 l 467 693 l 159 -12 l 111 10 m 548 318 b 554.5 261.2 509.9 158.9 431 56 l 560 56 l 560 0 l 362 0 l 362 48 b 419.2 106.7 470.2 191.0 489 309 b 479.3 381.3 434.5 386.4 385 351 l 367 399 b 382.3 437.7 420.4 466.5 548 318 m 135 280 l 135 617 l 67 558 l 35 595 l 153 700 l 193 700 l 193 280 l 135 280"},"¾":{"ha":600,"x_min":44,"x_max":549,"o":"m 131 10 l 440 713 l 487 693 l 179 -12 l 131 10 m 115 329 b 192.9 353.3 200.1 442.2 114 480 l 79 480 l 79 513 l 154 644 l 47 644 l 47 700 l 222 700 l 222 658 l 145 527 l 145 524 b 263.8 493.1 274.3 348.7 121 273 b 100.3 272.0 67.9 278.7 44 291 l 57 344 q 81 329 115 329 m 549 150 l 549 97 l 498 97 l 498 0 l 440 0 l 440 97 l 305 97 l 305 138 l 449 426 l 498 426 l 498 150 l 549 150 m 440 150 l 440 307 l 368 150 l 440 150"},"¿":{"ha":600,"x_min":79,"x_max":546,"o":"m 273 454 b 290.1 527.9 357.4 535.2 389 454 b 370.7 380.5 302.9 373.0 273 454 m 302 323 l 368 323 b 378.1 325.9 380.8 279.2 315 175.5 b 245.9 128.4 184.3 79.3 162 -17 b 157.1 -74.9 198.3 -125.5 317 -142 b 396.9 -138.0 451.4 -109.1 495 -60 l 546 -106 b 420.9 -235.3 233.4 -243.9 132 -151.5 b 62.7 -81.0 57.1 13.1 137 109.5 b 211.6 159.6 278.5 212.8 302 323"},"À":{"ha":600,"x_min":16,"x_max":584,"o":"m 497 0 l 431 194 l 162 194 l 98 0 l 16 0 l 250 700 l 348 700 l 584 0 l 497 0 m 293 595 l 188 266 l 408 266 l 305 595 l 293 595 m 257 870 l 375 752 l 301 752 l 143 849 l 143 870 l 257 870"},"Á":{"ha":600,"x_min":16,"x_max":584,"o":"m 497 0 l 431 194 l 162 194 l 98 0 l 16 0 l 250 700 l 348 700 l 584 0 l 497 0 m 293 595 l 188 266 l 408 266 l 305 595 l 293 595 m 220 752 l 338 870 l 452 870 l 452 849 l 289 752 l 220 752"},"Â":{"ha":600,"x_min":16,"x_max":584,"o":"m 497 0 l 431 194 l 162 194 l 98 0 l 16 0 l 250 700 l 348 700 l 584 0 l 497 0 m 293 595 l 188 266 l 408 266 l 305 595 l 293 595 m 118 748 l 273 871 l 333 871 l 478 748 l 379 748 l 302 813 l 219 748 l 118 748"},"Ã":{"ha":600,"x_min":16,"x_max":584,"o":"m 497 0 l 431 194 l 162 194 l 98 0 l 16 0 l 250 700 l 348 700 l 584 0 l 497 0 m 293 595 l 188 266 l 408 266 l 305 595 l 293 595 m 166 744 l 130 789 b 217.9 851.9 276.2 852.5 321.5 823.5 b 339.9 809.4 368.7 797.8 435 828 l 464 779 b 392.9 731.0 341.1 730.8 294.5 757.5 b 254.5 780.2 215.5 784.2 166 744"},"Ä":{"ha":600,"x_min":16,"x_max":584,"o":"m 497 0 l 431 194 l 162 194 l 98 0 l 16 0 l 250 700 l 348 700 l 584 0 l 497 0 m 293 595 l 188 266 l 408 266 l 305 595 l 293 595 m 126 800 b 146.3 865.8 216.2 872.6 250 800 b 229.9 735.3 160.5 728.8 126 800 m 351 800 b 370.2 865.8 440.2 872.6 474 800 b 454.5 735.3 383.6 728.8 351 800"},"Å":{"ha":600,"x_min":15,"x_max":584,"o":"m 195 768 b 220.0 875.3 351.0 887.4 406 768 b 411.3 737.0 384.8 699.3 327 687 l 584 0 l 497 0 l 425 194 l 167 194 l 97 0 l 15 0 l 271 687 b 233.4 688.7 197.6 719.2 195 768 m 296 554 l 194 266 l 400 266 l 297 554 l 296 554 m 256 768 b 266.4 717.7 322.3 712.1 345 768 b 333.5 821.3 277.4 826.7 256 768"},"Æ":{"ha":600,"x_min":20,"x_max":569,"o":"m 306 552 l 304 552 l 283 486 l 201 263 l 306 263 l 306 552 m 306 0 l 306 191 l 176 191 l 103 0 l 20 0 l 294 700 l 566 700 l 566 625 l 386 625 l 386 397 l 549 397 l 549 322 l 386 322 l 386 75 l 569 75 l 569 0 l 306 0"},"Ç":{"ha":600,"x_min":65,"x_max":544,"o":"m 458 517 l 458 624 b 424.0 650.1 343.4 655.5 220.5 574 b 135.7 468.0 127.1 279.0 215.5 134 b 313.0 50.1 416.5 45.5 469 79 l 469 179 l 543 179 l 543 44 l 544 42 b 517.6 18.7 453.5 -6.3 392 -11 l 374 -43 b 483.8 -70.0 494.4 -155.6 331 -208 b 321.8 -208.3 304.2 -206.9 286 -204 l 295 -165 q 301 -166 306 -166 l 316 -166 b 366.4 -163.2 383.8 -149.5 379 -127 q 379 -99 293 -90 l 334 -11 b 196.6 -20.8 88.5 76.5 65 350 b 71.9 590.3 167.7 707.1 366 712 b 446.0 712.2 494.0 702.0 531 675 l 532 675 l 532 517 l 458 517"},"È":{"ha":600,"x_min":107,"x_max":523,"o":"m 107 0 l 107 700 l 518 700 l 518 626 l 190 626 l 190 397 l 493 397 l 493 323 l 190 323 l 190 74 l 523 74 l 523 0 l 107 0 m 271 870 l 389 752 l 315 752 l 157 849 l 157 870 l 271 870"},"É":{"ha":600,"x_min":107,"x_max":523,"o":"m 107 0 l 107 700 l 518 700 l 518 626 l 190 626 l 190 397 l 493 397 l 493 323 l 190 323 l 190 74 l 523 74 l 523 0 l 107 0 m 234 752 l 352 870 l 466 870 l 466 849 l 303 752 l 234 752"},"Ê":{"ha":600,"x_min":107,"x_max":523,"o":"m 107 0 l 107 700 l 518 700 l 518 626 l 190 626 l 190 397 l 493 397 l 493 323 l 190 323 l 190 74 l 523 74 l 523 0 l 107 0 m 129 748 l 284 871 l 344 871 l 489 748 l 390 748 l 313 813 l 230 748 l 129 748"},"Ë":{"ha":600,"x_min":107,"x_max":523,"o":"m 107 0 l 107 700 l 518 700 l 518 626 l 190 626 l 190 397 l 493 397 l 493 323 l 190 323 l 190 74 l 523 74 l 523 0 l 107 0 m 137 800 b 157.3 865.8 227.2 872.6 261 800 b 240.9 735.3 171.5 728.8 137 800 m 362 800 b 381.2 865.8 451.2 872.6 485 800 b 465.5 735.3 394.6 728.8 362 800"},"Ì":{"ha":600,"x_min":60,"x_max":540,"o":"m 60 626 l 60 700 l 540 700 l 540 626 l 341 626 l 341 74 l 540 74 l 540 0 l 60 0 l 60 74 l 258 74 l 258 626 l 60 626 m 269 870 l 387 752 l 313 752 l 155 849 l 155 870 l 269 870"},"Í":{"ha":600,"x_min":60,"x_max":540,"o":"m 60 626 l 60 700 l 540 700 l 540 626 l 341 626 l 341 74 l 540 74 l 540 0 l 60 0 l 60 74 l 258 74 l 258 626 l 60 626 m 216 752 l 334 870 l 448 870 l 448 849 l 285 752 l 216 752"},"Î":{"ha":600,"x_min":60,"x_max":540,"o":"m 60 626 l 60 700 l 540 700 l 540 626 l 341 626 l 341 74 l 540 74 l 540 0 l 60 0 l 60 74 l 258 74 l 258 626 l 60 626 m 117 748 l 272 871 l 332 871 l 477 748 l 378 748 l 301 813 l 218 748 l 117 748"},"Ï":{"ha":600,"x_min":60,"x_max":540,"o":"m 60 626 l 60 700 l 540 700 l 540 626 l 341 626 l 341 74 l 540 74 l 540 0 l 60 0 l 60 74 l 258 74 l 258 626 l 60 626 m 126 800 b 146.3 865.8 216.2 872.6 250 800 b 229.9 735.3 160.5 728.8 126 800 m 351 800 b 370.2 865.8 440.2 872.6 474 800 b 454.5 735.3 383.6 728.8 351 800"},"Ð":{"ha":600,"x_min":9,"x_max":582,"o":"m 9 332 l 9 392 l 99 392 l 99 700 b 197.5 725.4 346.9 731.5 513.5 609.5 b 602.4 474.2 610.0 287.2 515.5 102.5 b 375.4 -21.4 223.7 -29.3 177 -6.5 b 153.4 -5.3 117.4 -3.7 99 -1 l 99 332 l 9 332 m 278 634 b 253.8 634.4 208.4 633.2 182 629 l 182 392 l 319 392 l 319 332 l 182 332 l 182 69 b 202.7 67.0 237.8 65.8 268 65 b 434.7 73.7 501.1 169.2 494 355 b 509.5 493.9 462.4 601.4 278 634"},"Ñ":{"ha":600,"x_min":70,"x_max":530,"o":"m 476 0 l 196 438 l 142 539 l 138 539 l 148 438 l 148 0 l 70 0 l 70 700 l 124 700 l 406 264 l 458 168 l 463 168 l 452 264 l 452 700 l 530 700 l 530 0 l 476 0 m 166 744 l 130 789 b 217.9 851.9 276.2 852.5 321.5 823.5 b 339.9 809.4 368.7 797.8 435 828 l 464 779 b 392.9 731.0 341.1 730.8 294.5 757.5 b 254.5 780.2 215.5 784.2 166 744"},"Ò":{"ha":600,"x_min":48,"x_max":552,"o":"m 48 350 b 120.2 771.3 376.6 798.4 496 612.5 b 600.9 491.1 620.6 189.7 299 -12 b 129.8 -10.0 49.0 98.6 48 350 m 136 350 b 127.6 193.7 167.3 87.6 299 62 b 492.0 147.7 501.3 419.5 430 551.5 b 375.5 694.0 218.3 720.0 136 350 m 251 870 l 369 752 l 295 752 l 137 849 l 137 870 l 251 870"},"Ó":{"ha":600,"x_min":48,"x_max":552,"o":"m 48 350 b 120.2 771.3 376.6 798.4 496 612.5 b 600.9 491.1 620.6 189.7 299 -12 b 129.8 -10.0 49.0 98.6 48 350 m 136 350 b 127.6 193.7 167.3 87.6 299 62 b 492.0 147.7 501.3 419.5 430 551.5 b 375.5 694.0 218.3 720.0 136 350 m 255 752 l 373 870 l 487 870 l 487 849 l 324 752 l 255 752"},"Ô":{"ha":600,"x_min":48,"x_max":552,"o":"m 48 350 b 120.2 771.3 376.6 798.4 496 612.5 b 600.9 491.1 620.6 189.7 299 -12 b 129.8 -10.0 49.0 98.6 48 350 m 136 350 b 127.6 193.7 167.3 87.6 299 62 b 492.0 147.7 501.3 419.5 430 551.5 b 375.5 694.0 218.3 720.0 136 350 m 116 748 l 271 871 l 331 871 l 476 748 l 377 748 l 300 813 l 217 748 l 116 748"},"Õ":{"ha":600,"x_min":48,"x_max":552,"o":"m 48 350 b 120.2 771.3 376.6 798.4 496 612.5 b 600.9 491.1 620.6 189.7 299 -12 b 129.8 -10.0 49.0 98.6 48 350 m 136 350 b 127.6 193.7 167.3 87.6 299 62 b 492.0 147.7 501.3 419.5 430 551.5 b 375.5 694.0 218.3 720.0 136 350 m 165 744 l 129 789 b 216.9 851.9 275.2 852.5 320.5 823.5 b 338.9 809.4 367.7 797.8 434 828 l 463 779 b 391.9 731.0 340.1 730.8 293.5 757.5 b 253.5 780.2 214.5 784.2 165 744"},"Ö":{"ha":600,"x_min":48,"x_max":552,"o":"m 48 350 b 120.2 771.3 376.6 798.4 496 612.5 b 600.9 491.1 620.6 189.7 299 -12 b 129.8 -10.0 49.0 98.6 48 350 m 136 350 b 127.6 193.7 167.3 87.6 299 62 b 492.0 147.7 501.3 419.5 430 551.5 b 375.5 694.0 218.3 720.0 136 350 m 124 800 b 144.3 865.8 214.2 872.6 248 800 b 227.9 735.3 158.5 728.8 124 800 m 349 800 b 368.2 865.8 438.2 872.6 472 800 b 452.5 735.3 381.6 728.8 349 800"},"×":{"ha":600,"x_min":121,"x_max":478,"o":"m 123 464 l 174 517 l 300 390 l 427 517 l 478 464 l 352 338 l 478 211 l 427 159 l 300 287 l 173 159 l 121 210 l 249 339 l 123 464"},"Ø":{"ha":600,"x_min":14,"x_max":586,"o":"m 33 24 l 80 91 b -40.9 210.4 -62.1 510.6 299 712 b 350.7 715.9 424.7 696.0 478 653 l 520 713 l 572 678 l 521 606 b 640.9 487.4 662.3 189.9 299 -12 q 192 -12 124 44 l 85 -12 l 33 24 m 102 350 b 99.5 304.7 110.7 230.8 137 171 l 427 582 b 373.2 690.9 216.9 714.6 102 350 m 498 350 b 500.3 392.6 489.1 465.9 464 525 l 174 114 b 226.7 9.2 381.2 -13.9 498 350"},"Ù":{"ha":600,"x_min":60,"x_max":540,"o":"m 460 256 l 460 700 l 540 700 l 540 233 b 539.0 75.7 470.3 -3.9 309 -9 b 186.3 -24.5 68.7 49.4 60 217 l 60 700 l 143 700 l 143 256 b 140.6 126.6 186.1 65.9 310 65 b 389.8 50.8 457.4 108.8 460 256 m 264 870 l 382 752 l 308 752 l 150 849 l 150 870 l 264 870"},"Ú":{"ha":600,"x_min":60,"x_max":540,"o":"m 460 256 l 460 700 l 540 700 l 540 233 b 539.0 75.7 470.3 -3.9 309 -9 b 186.3 -24.5 68.7 49.4 60 217 l 60 700 l 143 700 l 143 256 b 140.6 126.6 186.1 65.9 310 65 b 389.8 50.8 457.4 108.8 460 256 m 246 752 l 364 870 l 478 870 l 478 849 l 315 752 l 246 752"},"Û":{"ha":600,"x_min":60,"x_max":540,"o":"m 460 256 l 460 700 l 540 700 l 540 233 b 539.0 75.7 470.3 -3.9 309 -9 b 186.3 -24.5 68.7 49.4 60 217 l 60 700 l 143 700 l 143 256 b 140.6 126.6 186.1 65.9 310 65 b 389.8 50.8 457.4 108.8 460 256 m 120 748 l 275 871 l 335 871 l 480 748 l 381 748 l 304 813 l 221 748 l 120 748"},"Ü":{"ha":600,"x_min":60,"x_max":540,"o":"m 460 256 l 460 700 l 540 700 l 540 233 b 539.0 75.7 470.3 -3.9 309 -9 b 186.3 -24.5 68.7 49.4 60 217 l 60 700 l 143 700 l 143 256 b 140.6 126.6 186.1 65.9 310 65 b 389.8 50.8 457.4 108.8 460 256 m 127 800 b 147.3 865.8 217.2 872.6 251 800 b 230.9 735.3 161.5 728.8 127 800 m 352 800 b 371.2 865.8 441.2 872.6 475 800 b 455.5 735.3 384.6 728.8 352 800"},"Ý":{"ha":600,"x_min":9,"x_max":591,"o":"m 259 0 l 259 268 l 9 700 l 106 700 l 306 354 l 307 354 l 502 700 l 591 700 l 342 269 l 342 0 l 259 0 m 237 752 l 355 870 l 469 870 l 469 849 l 306 752 l 237 752"},"Þ":{"ha":600,"x_min":91,"x_max":548,"o":"m 91 0 l 91 700 l 174 700 l 174 625 b 203.5 627.1 241.2 628.3 280 628 b 411.8 641.1 516.4 591.8 548 413 b 538.8 257.1 448.8 183.1 276 181 b 252.2 180.4 209.0 181.4 174 185 l 174 0 l 91 0 m 282 556 b 245.1 556.9 205.4 554.9 174 550 l 174 260 b 197.3 256.6 239.1 254.5 272 255 b 367.4 245.1 439.8 281.0 460 413 b 453.0 512.2 392.1 556.7 282 556"},"ß":{"ha":600,"x_min":37,"x_max":562,"o":"m 399 559 b 393.6 604.3 357.4 631.4 297 636 b 228.3 641.7 195.9 607.7 195 498 l 195 0 l 115 0 l 115 430 l 37 430 l 37 500 l 115 500 l 115 523 b 174.8 738.2 341.3 747.5 427.5 665.5 b 494.8 609.6 500.5 523.0 418.5 458 b 345.0 413.8 335.8 356.5 411 323 b 479.3 310.3 540.7 274.6 562 159 b 563.1 70.6 512.4 6.2 382 -12 b 328.8 -13.0 292.8 -5.5 256 16 l 279 81 b 301.9 65.0 325.4 56.6 375 56 b 432.7 57.2 473.0 87.2 482 156 b 471.9 220.1 415.7 249.0 331 278.5 b 262.9 319.7 256.2 412.1 338.5 480.5 b 361.2 495.0 393.7 522.0 399 559"},"à":{"ha":600,"x_min":75,"x_max":545,"o":"m 133 403 l 108 461 b 239.3 523.9 372.9 528.9 445.5 450.5 b 483.0 386.0 483.4 300.3 472 160 q 472 110 478 65 l 545 65 l 545 0 l 412 0 l 403 75 l 398 75 b 387.6 43.6 344.0 7.5 235 -9 b 43.1 34.0 27.0 183.9 162 270 b 193.6 289.3 284.3 298.2 397 283 b 412.8 393.9 386.7 442.5 292 441 b 251.7 442.5 184.5 425.1 133 403 m 255 58 b 327.5 63.5 374.8 97.5 397 152 l 397 222 b 259.9 247.9 173.9 229.6 157 140 b 149.6 106.9 178.8 64.2 255 58 m 296 720 l 361 571 l 306 571 l 187 720 l 296 720"},"á":{"ha":600,"x_min":75,"x_max":545,"o":"m 133 403 l 108 461 b 239.3 523.9 372.9 528.9 445.5 450.5 b 483.0 386.0 483.4 300.3 472 160 q 472 110 478 65 l 545 65 l 545 0 l 412 0 l 403 75 l 398 75 b 387.6 43.6 344.0 7.5 235 -9 b 43.1 34.0 27.0 183.9 162 270 b 193.6 289.3 284.3 298.2 397 283 b 412.8 393.9 386.7 442.5 292 441 b 251.7 442.5 184.5 425.1 133 403 m 255 58 b 327.5 63.5 374.8 97.5 397 152 l 397 222 b 259.9 247.9 173.9 229.6 157 140 b 149.6 106.9 178.8 64.2 255 58 m 234 571 l 299 720 l 408 720 l 289 571 l 234 571"},"â":{"ha":600,"x_min":75,"x_max":545,"o":"m 133 403 l 108 461 b 239.3 523.9 372.9 528.9 445.5 450.5 b 483.0 386.0 483.4 300.3 472 160 q 472 110 478 65 l 545 65 l 545 0 l 412 0 l 403 75 l 398 75 b 387.6 43.6 344.0 7.5 235 -9 b 43.1 34.0 27.0 183.9 162 270 b 193.6 289.3 284.3 298.2 397 283 b 412.8 393.9 386.7 442.5 292 441 b 251.7 442.5 184.5 425.1 133 403 m 255 58 b 327.5 63.5 374.8 97.5 397 152 l 397 222 b 259.9 247.9 173.9 229.6 157 140 b 149.6 106.9 178.8 64.2 255 58 m 139 550 l 282 732 l 319 732 l 454 550 l 376 550 l 295 659 l 209 550 l 139 550"},"ã":{"ha":600,"x_min":75,"x_max":545,"o":"m 133 403 l 108 461 b 239.3 523.9 372.9 528.9 445.5 450.5 b 483.0 386.0 483.4 300.3 472 160 q 472 110 478 65 l 545 65 l 545 0 l 412 0 l 403 75 l 398 75 b 387.6 43.6 344.0 7.5 235 -9 b 43.1 34.0 27.0 183.9 162 270 b 193.6 289.3 284.3 298.2 397 283 b 412.8 393.9 386.7 442.5 292 441 b 251.7 442.5 184.5 425.1 133 403 m 255 58 b 327.5 63.5 374.8 97.5 397 152 l 397 222 b 259.9 247.9 173.9 229.6 157 140 b 149.6 106.9 178.8 64.2 255 58 m 178 614 l 141 654 b 225.7 726.2 276.9 728.8 311.5 693.5 b 325.1 677.2 348.0 663.4 410 698 l 445 654 b 380.1 592.6 325.0 592.2 289.5 625.5 b 256.9 651.5 224.1 655.8 178 614"},"ä":{"ha":600,"x_min":75,"x_max":545,"o":"m 133 403 l 108 461 b 239.3 523.9 372.9 528.9 445.5 450.5 b 483.0 386.0 483.4 300.3 472 160 q 472 110 478 65 l 545 65 l 545 0 l 412 0 l 403 75 l 398 75 b 387.6 43.6 344.0 7.5 235 -9 b 43.1 34.0 27.0 183.9 162 270 b 193.6 289.3 284.3 298.2 397 283 b 412.8 393.9 386.7 442.5 292 441 b 251.7 442.5 184.5 425.1 133 403 m 255 58 b 327.5 63.5 374.8 97.5 397 152 l 397 222 b 259.9 247.9 173.9 229.6 157 140 b 149.6 106.9 178.8 64.2 255 58 m 127 645 b 144.4 719.6 209.8 727.3 241 645 b 222.6 573.4 157.3 565.7 127 645 m 350 645 b 367.2 719.6 432.3 727.3 465 645 b 445.6 573.4 379.7 565.7 350 645"},"å":{"ha":600,"x_min":75,"x_max":545,"o":"m 133 403 l 108 461 b 239.3 523.9 372.9 528.9 445.5 450.5 b 483.0 386.0 483.4 300.3 472 160 q 472 110 478 65 l 545 65 l 545 0 l 412 0 l 403 75 l 398 75 b 387.6 43.6 344.0 7.5 235 -9 b 43.1 34.0 27.0 183.9 162 270 b 193.6 289.3 284.3 298.2 397 283 b 412.8 393.9 386.7 442.5 292 441 b 251.7 442.5 184.5 425.1 133 403 m 255 58 b 327.5 63.5 374.8 97.5 397 152 l 397 222 b 259.9 247.9 173.9 229.6 157 140 b 149.6 106.9 178.8 64.2 255 58 m 198 643 b 227.7 758.8 338.2 771.3 393 643 b 360.2 529.5 251.5 516.8 198 643 m 252 643 b 267.6 589.3 314.4 583.8 339 643 b 322.4 698.6 277.1 703.8 252 643"},"æ":{"ha":600,"x_min":29,"x_max":571,"o":"m 175 59 b 205.9 55.7 246.5 79.4 261 120 l 261 225 b 247.3 225.8 225.0 227.2 206 227 b 150.4 234.1 112.4 217.5 103 145 b 97.7 110.0 119.9 65.3 175 59 m 287 65 l 283 65 b 224.8 -40.3 93.6 -53.1 29 138 b 30.6 243.1 81.1 291.6 192 291 b 208.5 291.3 235.6 290.1 260 289 b 266.9 318.0 268.6 363.2 233.5 419.5 b 203.3 449.6 153.8 452.2 74 407 l 55 465 b 137.7 516.3 212.2 519.3 257 492 b 273.2 486.3 295.5 468.9 305 445 b 331.5 488.9 373.6 511.5 428 512 b 496.3 523.9 553.0 481.0 571 326 b 571.4 309.1 570.2 267.0 566 229 l 325 229 b 373.2 27.7 465.9 22.4 493.5 63.5 b 505.3 66.3 522.2 74.0 531 82 l 555 26 b 479.0 -19.1 399.2 -23.1 344 7.5 b 326.2 14.3 300.8 36.2 287 65 m 428 445 b 378.3 448.2 340.8 406.4 327 294 l 502 294 l 502 312 b 505.5 378.2 474.7 440.7 428 445"},"ç":{"ha":600,"x_min":60,"x_max":541,"o":"m 439 328 l 439 423 b 392.8 474.8 253.5 490.2 143 250 b 143.8 137.6 203.2 73.1 340 63 b 382.7 59.6 455.6 81.2 506 121 l 541 63 b 524.5 40.3 450.8 1.4 346 -11 l 329 -43 b 438.8 -70.0 449.4 -155.6 286 -208 b 276.8 -208.3 259.2 -206.9 241 -204 l 250 -165 b 258.2 -168.5 286.8 -169.0 324.5 -152.5 b 347.3 -149.0 363.3 -139.1 248 -90 l 290 -10 b 20.1 91.4 3.9 322.5 128 444 b 222.2 527.0 382.0 532.7 512 470 l 511 467 l 511 328 l 439 328"},"è":{"ha":600,"x_min":63,"x_max":537,"o":"m 498 120 l 529 63 b 482.0 20.0 411.7 -7.1 309 -12 b 156.7 -11.2 73.2 67.3 63 250 b 62.9 410.9 137.9 500.0 316 512 b 435.4 529.9 521.2 467.8 532 237 l 145 237 b 211.6 31.4 361.1 21.7 427 80 b 449.5 87.8 480.9 105.1 498 120 m 318 446 b 230.3 451.8 170.5 416.7 148 307 l 459 307 b 462.1 372.5 410.5 439.8 318 446 m 302 720 l 367 571 l 312 571 l 193 720 l 302 720"},"é":{"ha":600,"x_min":63,"x_max":537,"o":"m 498 120 l 529 63 b 482.0 20.0 411.7 -7.1 309 -12 b 156.7 -11.2 73.2 67.3 63 250 b 62.9 410.9 137.9 500.0 316 512 b 435.4 529.9 521.2 467.8 532 237 l 145 237 b 211.6 31.4 361.1 21.7 427 80 b 449.5 87.8 480.9 105.1 498 120 m 318 446 b 230.3 451.8 170.5 416.7 148 307 l 459 307 b 462.1 372.5 410.5 439.8 318 446 m 248 571 l 313 720 l 422 720 l 303 571 l 248 571"},"ê":{"ha":600,"x_min":63,"x_max":537,"o":"m 498 120 l 529 63 b 482.0 20.0 411.7 -7.1 309 -12 b 156.7 -11.2 73.2 67.3 63 250 b 62.9 410.9 137.9 500.0 316 512 b 435.4 529.9 521.2 467.8 532 237 l 145 237 b 211.6 31.4 361.1 21.7 427 80 b 449.5 87.8 480.9 105.1 498 120 m 318 446 b 230.3 451.8 170.5 416.7 148 307 l 459 307 b 462.1 372.5 410.5 439.8 318 446 m 145 550 l 288 732 l 325 732 l 460 550 l 382 550 l 301 659 l 215 550 l 145 550"},"ë":{"ha":600,"x_min":63,"x_max":537,"o":"m 498 120 l 529 63 b 482.0 20.0 411.7 -7.1 309 -12 b 156.7 -11.2 73.2 67.3 63 250 b 62.9 410.9 137.9 500.0 316 512 b 435.4 529.9 521.2 467.8 532 237 l 145 237 b 211.6 31.4 361.1 21.7 427 80 b 449.5 87.8 480.9 105.1 498 120 m 318 446 b 230.3 451.8 170.5 416.7 148 307 l 459 307 b 462.1 372.5 410.5 439.8 318 446 m 141 645 b 158.4 719.6 223.8 727.3 255 645 b 236.6 573.4 171.3 565.7 141 645 m 364 645 b 381.2 719.6 446.3 727.3 479 645 b 459.6 573.4 393.7 565.7 364 645"},"ì":{"ha":600,"x_min":146,"x_max":570,"o":"m 570 0 l 146 0 l 146 67 l 320 67 l 320 433 l 146 433 l 146 500 l 400 500 l 400 67 l 570 67 l 570 0 m 304 720 l 369 571 l 314 571 l 195 720 l 304 720"},"í":{"ha":600,"x_min":105,"x_max":529,"o":"m 529 0 l 105 0 l 105 67 l 279 67 l 279 433 l 105 433 l 105 500 l 359 500 l 359 67 l 529 67 l 529 0 m 231 571 l 296 720 l 405 720 l 286 571 l 231 571"},"î":{"ha":600,"x_min":105,"x_max":529,"o":"m 529 0 l 105 0 l 105 67 l 279 67 l 279 433 l 105 433 l 105 500 l 359 500 l 359 67 l 529 67 l 529 0 m 131 550 l 274 732 l 311 732 l 446 550 l 368 550 l 287 659 l 201 550 l 131 550"},"ï":{"ha":600,"x_min":107,"x_max":531,"o":"m 531 0 l 107 0 l 107 67 l 281 67 l 281 433 l 107 433 l 107 500 l 361 500 l 361 67 l 531 67 l 531 0 m 131 645 b 148.4 719.6 213.8 727.3 245 645 b 226.6 573.4 161.3 565.7 131 645 m 354 645 b 371.2 719.6 436.3 727.3 469 645 b 449.6 573.4 383.7 565.7 354 645"},"ð":{"ha":600,"x_min":55,"x_max":555,"o":"m 266 552 l 239 596 l 296 627 q 258 650 220 659 l 255 713 b 268.9 709.0 311.6 691.5 359 661 l 427 698 l 453 653 l 403 626 b 473.7 575.4 534.0 481.6 555 295 b 547.5 94.6 463.7 -6.2 301 -12 b 140.2 -5.9 59.5 78.3 55 251 b 51.8 391.8 119.9 487.3 299 510 b 340.1 512.6 403.3 495.0 446 464 b 432.8 495.3 388.9 550.5 342 593 l 266 552 m 138 250 b 141.1 127.7 193.5 63.3 305 58 b 393.5 51.1 458.0 112.0 475 290 b 475.0 318.4 473.9 350.2 468 381 b 427.9 418.4 374.2 438.4 307 440 b 198.4 436.0 142.3 376.6 138 250"},"ñ":{"ha":600,"x_min":18,"x_max":525,"o":"m 93 0 l 93 325 b 93.1 353.4 90.9 392.7 85 435 l 18 435 l 18 500 l 152 500 l 161 419 l 166 419 b 191.0 466.3 243.1 502.4 337 512 b 454.4 524.4 517.9 471.5 525 287 l 525 0 l 447 0 l 447 272 b 417.7 466.2 292.2 476.9 227 401 b 208.1 387.5 182.4 352.8 170 314 l 170 0 l 93 0 m 183 614 l 146 654 b 230.7 726.2 281.9 728.8 316.5 693.5 b 330.1 677.2 353.0 663.4 415 698 l 450 654 b 385.1 592.6 330.0 592.2 294.5 625.5 b 261.9 651.5 229.1 655.8 183 614"},"ò":{"ha":600,"x_min":57,"x_max":543,"o":"m 57 250 b 134.8 553.4 371.4 575.2 484 436 b 560.9 335.8 567.8 193.2 480 59 b 388.8 -32.7 240.7 -41.4 116 64 b 86.4 91.3 58.8 165.0 57 250 m 140 250 b 134.2 150.9 175.1 75.7 300 55 b 487.2 117.7 498.1 294.9 424.5 383 b 371.4 483.2 224.7 500.6 140 250 m 275 720 l 340 571 l 285 571 l 166 720 l 275 720"},"ó":{"ha":600,"x_min":57,"x_max":543,"o":"m 57 250 b 134.8 553.4 371.4 575.2 484 436 b 560.9 335.8 567.8 193.2 480 59 b 388.8 -32.7 240.7 -41.4 116 64 b 86.4 91.3 58.8 165.0 57 250 m 140 250 b 134.2 150.9 175.1 75.7 300 55 b 487.2 117.7 498.1 294.9 424.5 383 b 371.4 483.2 224.7 500.6 140 250 m 259 571 l 324 720 l 433 720 l 314 571 l 259 571"},"ô":{"ha":600,"x_min":57,"x_max":543,"o":"m 57 250 b 134.8 553.4 371.4 575.2 484 436 b 560.9 335.8 567.8 193.2 480 59 b 388.8 -32.7 240.7 -41.4 116 64 b 86.4 91.3 58.8 165.0 57 250 m 140 250 b 134.2 150.9 175.1 75.7 300 55 b 487.2 117.7 498.1 294.9 424.5 383 b 371.4 483.2 224.7 500.6 140 250 m 144 550 l 287 732 l 324 732 l 459 550 l 381 550 l 300 659 l 214 550 l 144 550"},"õ":{"ha":600,"x_min":57,"x_max":543,"o":"m 57 250 b 134.8 553.4 371.4 575.2 484 436 b 560.9 335.8 567.8 193.2 480 59 b 388.8 -32.7 240.7 -41.4 116 64 b 86.4 91.3 58.8 165.0 57 250 m 140 250 b 134.2 150.9 175.1 75.7 300 55 b 487.2 117.7 498.1 294.9 424.5 383 b 371.4 483.2 224.7 500.6 140 250 m 184 614 l 147 654 b 231.7 726.2 282.9 728.8 317.5 693.5 b 331.1 677.2 354.0 663.4 416 698 l 451 654 b 386.1 592.6 331.0 592.2 295.5 625.5 b 262.9 651.5 230.1 655.8 184 614"},"ö":{"ha":600,"x_min":57,"x_max":543,"o":"m 57 250 b 134.8 553.4 371.4 575.2 484 436 b 560.9 335.8 567.8 193.2 480 59 b 388.8 -32.7 240.7 -41.4 116 64 b 86.4 91.3 58.8 165.0 57 250 m 140 250 b 134.2 150.9 175.1 75.7 300 55 b 487.2 117.7 498.1 294.9 424.5 383 b 371.4 483.2 224.7 500.6 140 250 m 130 645 b 147.4 719.6 212.8 727.3 244 645 b 225.6 573.4 160.3 565.7 130 645 m 353 645 b 370.2 719.6 435.3 727.3 468 645 b 448.6 573.4 382.7 565.7 353 645"},"÷":{"ha":600,"x_min":68,"x_max":532,"o":"m 68 302 l 68 374 l 532 374 l 532 302 l 68 302 m 234 534 b 254.0 619.7 332.4 627.9 368 534 b 347.9 449.5 268.8 440.6 234 534 m 234 159 b 254.0 244.7 332.4 252.9 368 159 b 347.9 74.5 268.8 65.6 234 159"},"ø":{"ha":600,"x_min":57,"x_max":543,"o":"m 57 250 b 144.6 545.7 390.9 559.5 423 484 l 446 515 l 500 478 l 476 445 l 484 436 b 560.9 335.8 567.8 193.2 480 59 b 380.1 -25.4 223.2 -27.1 170 19 l 146 -15 l 94 22 l 120 59 b 125.7 33.5 79.9 94.5 57 250 m 213 79 l 225 72 b 357.1 11.0 490.4 132.3 452 320 q 445 352 428 378 l 213 79 m 140 250 b 138.3 217.4 148.5 163.5 169 127 l 381 424 b 385.6 469.3 232.4 493.4 140 250"},"ù":{"ha":600,"x_min":25,"x_max":578,"o":"m 363 433 l 363 500 l 505 500 l 505 159 q 505 110 511 65 l 578 65 l 578 0 l 445 0 l 442 85 l 438 85 b 349.9 -29.6 213.2 -40.4 133 35 b 112.3 51.8 93.2 116.3 92 213 l 92 433 l 25 433 l 25 500 l 170 500 l 170 229 b 161.1 123.4 182.5 62.9 278 55 b 326.8 48.5 392.7 94.6 427 174 l 427 433 l 363 433 m 257 720 l 322 571 l 267 571 l 148 720 l 257 720"},"ú":{"ha":600,"x_min":25,"x_max":578,"o":"m 363 433 l 363 500 l 505 500 l 505 159 q 505 110 511 65 l 578 65 l 578 0 l 445 0 l 442 85 l 438 85 b 349.9 -29.6 213.2 -40.4 133 35 b 112.3 51.8 93.2 116.3 92 213 l 92 433 l 25 433 l 25 500 l 170 500 l 170 229 b 161.1 123.4 182.5 62.9 278 55 b 326.8 48.5 392.7 94.6 427 174 l 427 433 l 363 433 m 219 571 l 284 720 l 393 720 l 274 571 l 219 571"},"û":{"ha":600,"x_min":25,"x_max":578,"o":"m 363 433 l 363 500 l 505 500 l 505 159 q 505 110 511 65 l 578 65 l 578 0 l 445 0 l 442 85 l 438 85 b 349.9 -29.6 213.2 -40.4 133 35 b 112.3 51.8 93.2 116.3 92 213 l 92 433 l 25 433 l 25 500 l 170 500 l 170 229 b 161.1 123.4 182.5 62.9 278 55 b 326.8 48.5 392.7 94.6 427 174 l 427 433 l 363 433 m 138 550 l 281 732 l 318 732 l 453 550 l 375 550 l 294 659 l 208 550 l 138 550"},"ü":{"ha":600,"x_min":25,"x_max":578,"o":"m 363 433 l 363 500 l 505 500 l 505 159 q 505 110 511 65 l 578 65 l 578 0 l 445 0 l 442 85 l 438 85 b 349.9 -29.6 213.2 -40.4 133 35 b 112.3 51.8 93.2 116.3 92 213 l 92 433 l 25 433 l 25 500 l 170 500 l 170 229 b 161.1 123.4 182.5 62.9 278 55 b 326.8 48.5 392.7 94.6 427 174 l 427 433 l 363 433 m 125 645 b 142.4 719.6 207.8 727.3 239 645 b 220.6 573.4 155.3 565.7 125 645 m 348 645 b 365.2 719.6 430.3 727.3 463 645 b 443.6 573.4 377.7 565.7 348 645"},"ý":{"ha":600,"x_min":46,"x_max":554,"o":"m 136 500 l 311 77 l 349 77 l 473 500 l 554 500 l 415 51 b 405.0 -59.7 362.0 -164.7 209 -205 b 173.1 -203.4 137.1 -192.6 109 -172 l 137 -100 b 156.2 -114.2 187.7 -123.9 221 -127 q 296 -127 323 0 l 256 0 l 46 500 l 136 500 m 273 571 l 338 720 l 447 720 l 328 571 l 273 571"},"þ":{"ha":600,"x_min":21,"x_max":554,"o":"m 96 -200 l 96 635 l 21 635 l 21 700 l 173 700 l 173 430 b 241.0 559.4 439.4 585.8 554 260 b 552.8 97.3 475.0 2.9 295 -12 b 246.4 -12.1 213.1 -6.6 173 10 l 173 -200 l 96 -200 m 326 439 b 246.7 433.6 192.3 390.6 173 315 l 173 87 b 221.3 18.0 367.6 2.4 471 261 b 481.9 345.3 438.3 431.2 326 439"},"ÿ":{"ha":600,"x_min":46,"x_max":554,"o":"m 136 500 l 311 77 l 349 77 l 473 500 l 554 500 l 415 51 b 405.0 -59.7 362.0 -164.7 209 -205 b 173.1 -203.4 137.1 -192.6 109 -172 l 137 -100 b 156.2 -114.2 187.7 -123.9 221 -127 q 296 -127 323 0 l 256 0 l 46 500 l 136 500 m 140 645 b 157.4 719.6 222.8 727.3 254 645 b 235.6 573.4 170.3 565.7 140 645 m 363 645 b 380.2 719.6 445.3 727.3 478 645 b 458.6 573.4 392.7 565.7 363 645"},"Ā":{"ha":600,"x_min":16,"x_max":584,"o":"m 497 0 l 431 194 l 162 194 l 98 0 l 16 0 l 250 700 l 348 700 l 584 0 l 497 0 m 293 595 l 188 266 l 408 266 l 305 595 l 293 595 m 141 781 l 141 843 l 457 843 l 457 781 l 141 781"},"ā":{"ha":600,"x_min":75,"x_max":545,"o":"m 133 403 l 108 461 b 239.3 523.9 372.9 528.9 445.5 450.5 b 483.0 386.0 483.4 300.3 472 160 q 472 110 478 65 l 545 65 l 545 0 l 412 0 l 403 75 l 398 75 b 387.6 43.6 344.0 7.5 235 -9 b 43.1 34.0 27.0 183.9 162 270 b 193.6 289.3 284.3 298.2 397 283 b 412.8 393.9 386.7 442.5 292 441 b 251.7 442.5 184.5 425.1 133 403 m 255 58 b 327.5 63.5 374.8 97.5 397 152 l 397 222 b 259.9 247.9 173.9 229.6 157 140 b 149.6 106.9 178.8 64.2 255 58 m 166 581 l 166 643 l 462 643 l 462 581 l 166 581"},"Ă":{"ha":600,"x_min":16,"x_max":584,"o":"m 497 0 l 431 194 l 162 194 l 98 0 l 16 0 l 250 700 l 348 700 l 584 0 l 497 0 m 293 595 l 188 266 l 408 266 l 305 595 l 293 595 m 120 840 l 171 871 b 234.0 780.1 353.7 772.4 433 871 l 480 845 b 382.7 711.5 266.7 703.8 198 755 b 175.0 763.8 141.4 795.1 120 840"},"ă":{"ha":600,"x_min":75,"x_max":545,"o":"m 133 403 l 108 461 b 239.3 523.9 372.9 528.9 445.5 450.5 b 483.0 386.0 483.4 300.3 472 160 q 472 110 478 65 l 545 65 l 545 0 l 412 0 l 403 75 l 398 75 b 387.6 43.6 344.0 7.5 235 -9 b 43.1 34.0 27.0 183.9 162 270 b 193.6 289.3 284.3 298.2 397 283 b 412.8 393.9 386.7 442.5 292 441 b 251.7 442.5 184.5 425.1 133 403 m 255 58 b 327.5 63.5 374.8 97.5 397 152 l 397 222 b 259.9 247.9 173.9 229.6 157 140 b 149.6 106.9 178.8 64.2 255 58 m 161 697 l 206 720 b 265.6 621.8 352.1 612.0 424 720 l 466 702 b 456.8 634.5 411.2 585.8 317 573 b 244.4 572.8 191.0 610.2 161 697"},"Ą":{"ha":600,"x_min":16,"x_max":602,"o":"m 496 1 l 431 194 l 162 194 l 98 0 l 16 0 l 250 700 l 348 700 l 584 0 l 555 0 b 490.0 -42.1 478.7 -114.2 551 -138 q 570 -138 591 -128 l 602 -171 b 553.5 -212.4 472.1 -219.0 417 -106 b 414.4 -66.3 448.6 -19.8 496 1 m 293 595 l 188 266 l 408 266 l 305 595 l 293 595"},"ą":{"ha":600,"x_min":75,"x_max":571,"o":"m 133 403 l 108 461 b 239.3 523.9 372.9 528.9 445.5 450.5 b 483.0 386.0 483.4 300.3 472 160 q 472 110 478 65 l 545 65 l 545 0 l 524 0 b 459.0 -42.1 447.7 -114.2 520 -138 q 539 -138 560 -128 l 571 -171 b 522.5 -212.4 441.1 -219.0 386 -106 b 383.5 -66.1 417.3 -20.1 464 0 l 412 0 l 403 75 l 398 75 b 387.6 43.6 344.0 7.5 235 -9 b 43.1 34.0 27.0 183.9 162 270 b 193.6 289.3 284.3 298.2 397 283 b 412.8 393.9 386.7 442.5 292 441 b 251.7 442.5 184.5 425.1 133 403 m 255 58 b 327.5 63.5 374.8 97.5 397 152 l 397 222 b 259.9 247.9 173.9 229.6 157 140 b 149.6 106.9 178.8 64.2 255 58"},"Ć":{"ha":600,"x_min":65,"x_max":544,"o":"m 458 517 l 458 624 b 424.0 650.1 343.4 655.5 220.5 574 b 135.7 468.0 127.1 279.0 215.5 134 b 313.0 50.1 416.5 45.5 469 79 l 469 179 l 543 179 l 543 44 l 544 42 b 457.8 -31.3 299.4 -41.6 147 75 b 41.0 208.0 30.7 444.5 154 628.5 b 287.9 724.9 417.8 728.9 469 702.5 b 485.8 699.3 510.0 688.7 531 675 l 532 675 l 532 517 l 458 517 m 293 752 l 411 870 l 525 870 l 525 849 l 362 752 l 293 752"},"ć":{"ha":600,"x_min":60,"x_max":541,"o":"m 439 328 l 439 423 b 392.8 474.8 253.5 490.2 143 250 b 143.8 137.6 203.2 73.1 340 63 b 382.7 59.6 455.6 81.2 506 121 l 541 63 b 507.2 28.0 442.4 -2.6 324 -12 b 159.4 -11.2 70.4 67.5 60 250 b 59.9 410.9 134.9 500.0 313 512 b 381.5 513.9 462.9 496.0 512 470 l 511 467 l 511 328 l 439 328 m 273 571 l 338 720 l 447 720 l 328 571 l 273 571"},"Ĉ":{"ha":600,"x_min":65,"x_max":544,"o":"m 458 517 l 458 624 b 424.0 650.1 343.4 655.5 220.5 574 b 135.7 468.0 127.1 279.0 215.5 134 b 313.0 50.1 416.5 45.5 469 79 l 469 179 l 543 179 l 543 44 l 544 42 b 457.8 -31.3 299.4 -41.6 147 75 b 41.0 208.0 30.7 444.5 154 628.5 b 287.9 724.9 417.8 728.9 469 702.5 b 485.8 699.3 510.0 688.7 531 675 l 532 675 l 532 517 l 458 517 m 159 748 l 314 871 l 374 871 l 519 748 l 420 748 l 343 813 l 260 748 l 159 748"},"ĉ":{"ha":600,"x_min":60,"x_max":541,"o":"m 439 328 l 439 423 b 392.8 474.8 253.5 490.2 143 250 b 143.8 137.6 203.2 73.1 340 63 b 382.7 59.6 455.6 81.2 506 121 l 541 63 b 507.2 28.0 442.4 -2.6 324 -12 b 159.4 -11.2 70.4 67.5 60 250 b 59.9 410.9 134.9 500.0 313 512 b 381.5 513.9 462.9 496.0 512 470 l 511 467 l 511 328 l 439 328 m 134 550 l 277 732 l 314 732 l 449 550 l 371 550 l 290 659 l 204 550 l 134 550"},"Č":{"ha":600,"x_min":65,"x_max":544,"o":"m 458 517 l 458 624 b 424.0 650.1 343.4 655.5 220.5 574 b 135.7 468.0 127.1 279.0 215.5 134 b 313.0 50.1 416.5 45.5 469 79 l 469 179 l 543 179 l 543 44 l 544 42 b 457.8 -31.3 299.4 -41.6 147 75 b 41.0 208.0 30.7 444.5 154 628.5 b 287.9 724.9 417.8 728.9 469 702.5 b 485.8 699.3 510.0 688.7 531 675 l 532 675 l 532 517 l 458 517 m 524 870 l 376 746 l 318 746 l 169 870 l 273 870 l 350 803 l 431 870 l 524 870"},"č":{"ha":600,"x_min":60,"x_max":541,"o":"m 439 328 l 439 423 b 392.8 474.8 253.5 490.2 143 250 b 143.8 137.6 203.2 73.1 340 63 b 382.7 59.6 455.6 81.2 506 121 l 541 63 b 507.2 28.0 442.4 -2.6 324 -12 b 159.4 -11.2 70.4 67.5 60 250 b 59.9 410.9 134.9 500.0 313 512 b 381.5 513.9 462.9 496.0 512 470 l 511 467 l 511 328 l 439 328 m 456 732 l 313 550 l 276 550 l 141 732 l 219 732 l 300 623 l 386 732 l 456 732"},"Ď":{"ha":600,"x_min":80,"x_max":552,"o":"m 80 -1 l 80 700 b 164.3 725.4 300.6 731.5 481.5 609.5 b 572.8 474.2 580.5 287.2 485 102.5 b 339.8 -21.4 186.2 -29.3 152 -6.5 b 131.4 -5.3 98.2 -3.7 80 -1 m 234 634 b 221.7 634.4 188.3 633.2 163 629 l 163 69 b 180.8 67.0 206.5 65.8 232 65 b 404.4 73.7 472.0 169.2 464 355 b 481.6 493.9 433.0 601.4 234 634 m 450 870 l 302 746 l 244 746 l 95 870 l 199 870 l 276 803 l 357 870 l 450 870"},"ď":{"ha":600,"x_min":56,"x_max":673,"o":"m 349 633 l 349 700 l 511 700 l 511 171 b 511.5 144.1 515.1 106.5 522 65 l 589 65 l 589 0 l 456 0 l 446 77 l 442 77 b 372.3 -62.8 170.6 -88.3 56 249 b 56.7 409.3 133.1 496.9 311 508 b 359.7 508.4 394.0 503.9 433 491 l 433 633 l 349 633 m 289 55 b 347.5 46.4 410.6 88.1 433 181 l 433 413 b 384.0 477.1 237.8 492.1 139 249 b 132.6 139.9 169.8 69.9 289 55 m 593 700 l 673 700 b 660.5 619.2 628.8 551.0 591 509 l 558 527 b 574.8 556.6 591.6 627.5 593 700"},"Đ":{"ha":600,"x_min":9,"x_max":582,"o":"m 9 332 l 9 392 l 99 392 l 99 700 b 197.5 725.4 346.9 731.5 513.5 609.5 b 602.4 474.2 610.0 287.2 515.5 102.5 b 375.4 -21.4 223.7 -29.3 177 -6.5 b 153.4 -5.3 117.4 -3.7 99 -1 l 99 332 l 9 332 m 278 634 b 253.8 634.4 208.4 633.2 182 629 l 182 392 l 319 392 l 319 332 l 182 332 l 182 69 b 202.7 67.0 237.8 65.8 268 65 b 434.7 73.7 501.1 169.2 494 355 b 509.5 493.9 462.4 601.4 278 634"},"đ":{"ha":600,"x_min":56,"x_max":589,"o":"m 522 65 l 589 65 l 589 0 l 456 0 l 446 77 l 442 77 b 372.3 -62.8 170.6 -88.3 56 249 b 56.7 409.3 133.1 496.9 311 508 b 359.7 508.4 394.0 503.9 433 491 l 433 572 l 268 572 l 268 632 l 433 632 l 433 700 l 511 700 l 511 632 l 586 632 l 586 572 l 511 572 l 511 171 b 511.5 144.1 515.1 106.5 522 65 m 289 55 b 347.5 46.4 410.6 88.1 433 181 l 433 413 b 384.0 477.1 237.8 492.1 139 249 b 132.6 139.9 169.8 69.9 289 55"},"Ē":{"ha":600,"x_min":107,"x_max":523,"o":"m 107 0 l 107 700 l 518 700 l 518 626 l 190 626 l 190 397 l 493 397 l 493 323 l 190 323 l 190 74 l 523 74 l 523 0 l 107 0 m 151 781 l 151 843 l 467 843 l 467 781 l 151 781"},"ē":{"ha":600,"x_min":63,"x_max":537,"o":"m 498 120 l 529 63 b 482.0 20.0 411.7 -7.1 309 -12 b 156.7 -11.2 73.2 67.3 63 250 b 62.9 410.9 137.9 500.0 316 512 b 435.4 529.9 521.2 467.8 532 237 l 145 237 b 211.6 31.4 361.1 21.7 427 80 b 449.5 87.8 480.9 105.1 498 120 m 318 446 b 230.3 451.8 170.5 416.7 148 307 l 459 307 b 462.1 372.5 410.5 439.8 318 446 m 163 581 l 163 643 l 459 643 l 459 581 l 163 581"},"Ė":{"ha":600,"x_min":107,"x_max":523,"o":"m 107 0 l 107 700 l 518 700 l 518 626 l 190 626 l 190 397 l 493 397 l 493 323 l 190 323 l 190 74 l 523 74 l 523 0 l 107 0 m 248 795 b 267.5 866.2 348.5 874.1 386 795 b 364.3 720.8 282.9 712.9 248 795"},"ė":{"ha":600,"x_min":63,"x_max":537,"o":"m 498 120 l 529 63 b 482.0 20.0 411.7 -7.1 309 -12 b 156.7 -11.2 73.2 67.3 63 250 b 62.9 410.9 137.9 500.0 316 512 b 435.4 529.9 521.2 467.8 532 237 l 145 237 b 211.6 31.4 361.1 21.7 427 80 b 449.5 87.8 480.9 105.1 498 120 m 318 446 b 230.3 451.8 170.5 416.7 148 307 l 459 307 b 462.1 372.5 410.5 439.8 318 446 m 253 642 b 273.1 724.5 346.3 733.7 385 642 b 361.6 564.2 287.4 555.8 253 642"},"Ę":{"ha":600,"x_min":107,"x_max":550,"o":"m 107 0 l 107 700 l 518 700 l 518 626 l 190 626 l 190 397 l 493 397 l 493 323 l 190 323 l 190 74 l 523 74 l 523 0 l 503 0 b 438.0 -42.1 426.7 -114.2 499 -138 q 518 -138 539 -128 l 550 -171 b 501.5 -212.4 420.1 -219.0 365 -106 b 362.5 -66.1 396.3 -20.1 443 0 l 107 0"},"ę":{"ha":600,"x_min":63,"x_max":537,"o":"m 498 120 l 529 63 b 471.2 22.9 422.8 7.9 376 -30 b 335.7 -114.2 366.5 -154.5 447 -128 l 458 -171 b 409.5 -212.4 328.1 -219.0 273 -106 b 273.9 -64.4 305.2 -21.5 330 -11 b 295.4 -35.5 157.3 -0.5 79 142 b 35.3 293.0 70.6 425.5 211 494.5 b 350.0 539.0 451.0 518.9 520 375.5 q 537 322 532 237 l 145 237 b 211.6 31.4 361.1 21.7 427 80 b 449.5 87.8 480.9 105.1 498 120 m 318 446 b 230.3 451.8 170.5 416.7 148 307 l 459 307 b 462.1 372.5 410.5 439.8 318 446"},"Ě":{"ha":600,"x_min":107,"x_max":523,"o":"m 107 0 l 107 700 l 518 700 l 518 626 l 190 626 l 190 397 l 493 397 l 493 323 l 190 323 l 190 74 l 523 74 l 523 0 l 107 0 m 484 870 l 336 746 l 278 746 l 129 870 l 233 870 l 310 803 l 391 870 l 484 870"},"ě":{"ha":600,"x_min":63,"x_max":537,"o":"m 498 120 l 529 63 b 482.0 20.0 411.7 -7.1 309 -12 b 156.7 -11.2 73.2 67.3 63 250 b 62.9 410.9 137.9 500.0 316 512 b 435.4 529.9 521.2 467.8 532 237 l 145 237 b 211.6 31.4 361.1 21.7 427 80 b 449.5 87.8 480.9 105.1 498 120 m 318 446 b 230.3 451.8 170.5 416.7 148 307 l 459 307 b 462.1 372.5 410.5 439.8 318 446 m 468 732 l 325 550 l 288 550 l 153 732 l 231 732 l 312 623 l 398 732 l 468 732"},"Ĝ":{"ha":600,"x_min":53,"x_max":533,"o":"m 437 517 l 437 631 b 326.4 663.6 227.4 637.6 158.5 486 b 88.3 242.8 215.8 5.3 462 87 l 462 282 l 318 282 l 318 349 l 533 349 l 533 41 b 489.3 9.3 426.7 -9.6 340 -12 b 168.1 -20.0 68.7 78.0 53 350 b 63.2 589.8 160.4 707.1 347 712 b 402.5 713.4 470.3 704.7 512 688 l 511 684 l 511 517 l 437 517 m 153 748 l 308 871 l 368 871 l 513 748 l 414 748 l 337 813 l 254 748 l 153 748"},"ĝ":{"ha":600,"x_min":69,"x_max":524,"o":"m 524 478 l 524 -25 b 519.7 -144.0 446.6 -206.2 292 -212 b 238.1 -214.5 163.5 -198.2 113 -169 l 151 -98 b 174.9 -119.7 220.7 -136.8 291 -142 b 397.2 -146.3 445.6 -109.5 446 1 l 446 57 l 442 57 b 384.8 -62.4 186.3 -84.8 69 249 b 154.6 545.2 412.9 560.3 524 478 m 301 55 b 359.3 46.1 422.4 87.6 446 183 l 446 420 b 251.1 487.3 113.5 372.1 159 171.5 b 162.1 118.5 200.0 68.1 301 55 m 156 550 l 299 732 l 336 732 l 471 550 l 393 550 l 312 659 l 226 550 l 156 550"},"Ğ":{"ha":600,"x_min":53,"x_max":533,"o":"m 437 517 l 437 631 b 326.4 663.6 227.4 637.6 158.5 486 b 88.3 242.8 215.8 5.3 462 87 l 462 282 l 318 282 l 318 349 l 533 349 l 533 41 b 489.3 9.3 426.7 -9.6 340 -12 b 168.1 -20.0 68.7 78.0 53 350 b 63.2 589.8 160.4 707.1 347 712 b 402.5 713.4 470.3 704.7 512 688 l 511 684 l 511 517 l 437 517 m 149 840 l 200 871 b 263.0 780.1 382.7 772.4 462 871 l 509 845 b 411.7 711.5 295.7 703.8 227 755 b 204.0 763.8 170.4 795.1 149 840"},"ğ":{"ha":600,"x_min":69,"x_max":524,"o":"m 524 478 l 524 -25 b 519.7 -144.0 446.6 -206.2 292 -212 b 238.1 -214.5 163.5 -198.2 113 -169 l 151 -98 b 174.9 -119.7 220.7 -136.8 291 -142 b 397.2 -146.3 445.6 -109.5 446 1 l 446 57 l 442 57 b 384.8 -62.4 186.3 -84.8 69 249 b 154.6 545.2 412.9 560.3 524 478 m 301 55 b 359.3 46.1 422.4 87.6 446 183 l 446 420 b 251.1 487.3 113.5 372.1 159 171.5 b 162.1 118.5 200.0 68.1 301 55 m 158 697 l 203 720 b 262.6 621.8 349.1 612.0 421 720 l 463 702 b 453.8 634.5 408.2 585.8 314 573 b 241.4 572.8 188.0 610.2 158 697"},"Ģ":{"ha":600,"x_min":53,"x_max":533,"o":"m 437 517 l 437 631 b 326.4 663.6 227.4 637.6 158.5 486 b 88.3 242.8 215.8 5.3 462 87 l 462 282 l 318 282 l 318 349 l 533 349 l 533 41 b 489.3 9.3 426.7 -9.6 340 -12 b 168.1 -20.0 68.7 78.0 53 350 b 63.2 589.8 160.4 707.1 347 712 b 402.5 713.4 470.3 704.7 512 688 l 511 684 l 511 517 l 437 517 m 281 -92 b 297.7 -27.9 355.8 -19.0 396 -120 b 388.4 -183.8 357.0 -221.6 316 -235 l 288 -203 b 307.9 -195.4 329.6 -169.9 332 -134 b 329.6 -142.2 298.5 -139.0 281 -92"},"ģ":{"ha":600,"x_min":69,"x_max":524,"o":"m 524 478 l 524 -25 b 519.7 -144.0 446.6 -206.2 292 -212 b 238.1 -214.5 163.5 -198.2 113 -169 l 151 -98 b 174.9 -119.7 220.7 -136.8 291 -142 b 397.2 -146.3 445.6 -109.5 446 1 l 446 57 l 442 57 b 384.8 -62.4 186.3 -84.8 69 249 b 154.6 545.2 412.9 560.3 524 478 m 301 55 b 359.3 46.1 422.4 87.6 446 183 l 446 420 b 251.1 487.3 113.5 372.1 159 171.5 b 162.1 118.5 200.0 68.1 301 55 m 374.0147705078125 598.994384765625 b 357.3 534.9 299.3 526.0 259.02178955078125 626.99267578125 b 266.7 690.8 298.0 728.6 339.01690673828125 741.9856567382812 l 367.01519775390625 709.9876098632812 b 347.1 702.4 325.4 676.9 323.01788330078125 640.9918212890625 b 325.5 649.2 356.5 645.9 374.0147705078125 598.994384765625"},"Ĥ":{"ha":600,"x_min":60,"x_max":540,"o":"m 457 0 l 457 321 l 143 321 l 143 0 l 60 0 l 60 700 l 143 700 l 143 395 l 457 395 l 457 700 l 540 700 l 540 0 l 457 0 m 117 748 l 272 871 l 332 871 l 477 748 l 378 748 l 301 813 l 218 748 l 117 748"},"ĥ":{"ha":600,"x_min":-36,"x_max":525,"o":"m 4 633 l 4 700 l 160 700 l 160 438 l 165 438 b 254.6 527.9 391.3 535.9 480.5 467 b 502.7 451.5 523.6 387.3 525 288 l 525 0 l 447 0 l 447 273 b 455.6 380.7 425.9 438.4 319 445 b 246.1 443.5 189.7 405.4 160 318 l 160 0 l 83 0 l 83 633 l 4 633 m -36 748 l 119 871 l 179 871 l 324 748 l 225 748 l 148 813 l 65 748 l -36 748"},"Ħ":{"ha":600,"x_min":10,"x_max":590,"o":"m 10 523 l 10 587 l 89 587 l 89 700 l 172 700 l 172 587 l 428 587 l 428 700 l 511 700 l 511 587 l 590 587 l 590 523 l 511 523 l 511 0 l 428 0 l 428 321 l 172 321 l 172 0 l 89 0 l 89 523 l 10 523 m 172 395 l 428 395 l 428 523 l 172 523 l 172 395"},"ħ":{"ha":600,"x_min":3,"x_max":525,"o":"m 3 572 l 3 632 l 83 632 l 83 700 l 160 700 l 160 632 l 323 632 l 323 572 l 160 572 l 160 438 l 165 438 b 254.6 527.9 391.3 535.9 480.5 467 b 502.7 451.5 523.6 387.3 525 288 l 525 0 l 447 0 l 447 273 b 455.6 380.7 425.9 438.4 319 445 b 246.1 443.5 189.7 405.4 160 318 l 160 0 l 83 0 l 83 572 l 3 572"},"Ī":{"ha":600,"x_min":60,"x_max":540,"o":"m 60 626 l 60 700 l 540 700 l 540 626 l 341 626 l 341 74 l 540 74 l 540 0 l 60 0 l 60 74 l 258 74 l 258 626 l 60 626 m 142 781 l 142 843 l 458 843 l 458 781 l 142 781"},"ī":{"ha":600,"x_min":105,"x_max":529,"o":"m 529 0 l 105 0 l 105 67 l 279 67 l 279 433 l 105 433 l 105 500 l 359 500 l 359 67 l 529 67 l 529 0 m 152 581 l 152 643 l 448 643 l 448 581 l 152 581"},"Į":{"ha":600,"x_min":60,"x_max":540,"o":"m 60 626 l 60 700 l 540 700 l 540 626 l 341 626 l 341 74 l 540 74 l 540 0 l 465 0 b 400.0 -42.1 388.7 -114.2 461 -138 q 480 -138 501 -128 l 512 -171 b 463.5 -212.4 382.1 -219.0 327 -106 b 324.5 -66.1 358.3 -20.1 405 0 l 60 0 l 60 74 l 258 74 l 258 626 l 60 626"},"į":{"ha":600,"x_min":105,"x_max":529,"o":"m 395 0 l 105 0 l 105 67 l 279 67 l 279 433 l 105 433 l 105 500 l 359 500 l 359 67 l 529 67 l 529 0 l 455 0 b 390.0 -42.1 378.7 -114.2 451 -138 q 470 -138 491 -128 l 502 -171 b 453.5 -212.4 372.1 -219.0 317 -106 b 314.5 -66.1 348.3 -20.1 395 0 m 252 642 b 272.1 724.5 345.3 733.7 384 642 b 360.6 564.2 286.4 555.8 252 642"},"İ":{"ha":600,"x_min":60,"x_max":540,"o":"m 60 626 l 60 700 l 540 700 l 540 626 l 341 626 l 341 74 l 540 74 l 540 0 l 60 0 l 60 74 l 258 74 l 258 626 l 60 626 m 232 795 b 251.5 866.2 332.5 874.1 370 795 b 348.3 720.8 266.9 712.9 232 795"},"ı":{"ha":600,"x_min":105,"x_max":529,"o":"m 529 0 l 105 0 l 105 67 l 279 67 l 279 433 l 105 433 l 105 500 l 359 500 l 359 67 l 529 67 l 529 0"},"Ĵ":{"ha":600,"x_min":84,"x_max":493,"o":"m 97 626 l 97 700 l 493 700 l 493 248 b 408.3 -44.6 211.0 -59.7 151 8.5 b 128.3 15.8 98.2 31.5 84 46 l 120 112 b 144.8 91.3 183.4 71.5 258 64 b 332.2 49.5 404.4 110.8 410 263 l 410 626 l 97 626 m 127 748 l 282 871 l 342 871 l 487 748 l 388 748 l 311 813 l 228 748 l 127 748"},"ĵ":{"ha":600,"x_min":107,"x_max":464,"o":"m 384 3 l 384 433 l 142 433 l 142 500 l 464 500 l 464 -12 b 392.0 -241.7 228.1 -252.3 170 -188.5 b 149.2 -179.8 121.0 -163.6 107 -153 l 140 -88 b 218.9 -165.1 337.7 -178.4 384 3 m 148 550 l 291 732 l 328 732 l 463 550 l 385 550 l 304 659 l 218 550 l 148 550"},"Ķ":{"ha":600,"x_min":85,"x_max":595,"o":"m 490 0 l 245 324 l 168 324 l 168 0 l 85 0 l 85 700 l 168 700 l 168 388 l 243 388 l 468 700 l 564 700 l 317 367 l 595 0 l 490 0 m 233 -92 b 249.7 -27.9 307.8 -19.0 348 -120 b 340.4 -183.8 309.0 -221.6 268 -235 l 240 -203 b 259.9 -195.4 281.6 -169.9 284 -134 b 281.6 -142.2 250.5 -139.0 233 -92"},"ķ":{"ha":600,"x_min":24,"x_max":558,"o":"m 24 633 l 24 700 l 186 700 l 186 286 l 241 286 l 438 500 l 532 500 l 311 263 l 493 67 l 558 67 l 558 0 l 455 0 l 241 226 l 186 226 l 186 0 l 109 0 l 109 633 l 24 633 m 235 -92 b 251.7 -27.9 309.8 -19.0 350 -120 b 342.4 -183.8 311.0 -221.6 270 -235 l 242 -203 b 261.9 -195.4 283.6 -169.9 286 -134 b 283.6 -142.2 252.5 -139.0 235 -92"},"Ĺ":{"ha":600,"x_min":90,"x_max":530,"o":"m 90 0 l 90 700 l 173 700 l 173 74 l 456 74 l 456 248 l 530 248 l 530 0 l 90 0 m 158 752 l 276 870 l 390 870 l 390 849 l 227 752 l 158 752"},"ĺ":{"ha":600,"x_min":70,"x_max":463,"o":"m 70 633 l 70 700 l 236 700 l 236 168 b 253.1 33.7 338.1 27.9 427 99 l 463 46 b 420.6 10.1 370.8 -10.1 312 -13 b 217.0 -19.8 164.4 25.0 158 168 l 158 633 l 70 633 m 170 752 l 288 870 l 402 870 l 402 849 l 239 752 l 170 752"},"Ļ":{"ha":600,"x_min":90,"x_max":530,"o":"m 90 0 l 90 700 l 173 700 l 173 74 l 456 74 l 456 248 l 530 248 l 530 0 l 90 0 m 237 -92 b 253.7 -27.9 311.8 -19.0 352 -120 b 344.4 -183.8 313.0 -221.6 272 -235 l 244 -203 b 263.9 -195.4 285.6 -169.9 288 -134 b 285.6 -142.2 254.5 -139.0 237 -92"},"ļ":{"ha":600,"x_min":70,"x_max":463,"o":"m 70 633 l 70 700 l 236 700 l 236 168 b 253.1 33.7 338.1 27.9 427 99 l 463 46 b 420.6 10.1 370.8 -10.1 312 -13 b 217.0 -19.8 164.4 25.0 158 168 l 158 633 l 70 633 m 246 -92 b 262.7 -27.9 320.8 -19.0 361 -120 b 353.4 -183.8 322.0 -221.6 281 -235 l 253 -203 b 272.9 -195.4 294.6 -169.9 297 -134 b 294.6 -142.2 263.5 -139.0 246 -92"},"Ľ":{"ha":600,"x_min":90,"x_max":530,"o":"m 90 0 l 90 700 l 173 700 l 173 74 l 456 74 l 456 248 l 530 248 l 530 0 l 90 0 m 393 700 l 473 700 b 460.5 619.2 428.8 551.0 391 509 l 358 527 b 374.8 556.6 391.6 627.5 393 700"},"ľ":{"ha":600,"x_min":70,"x_max":463,"o":"m 70 633 l 70 700 l 236 700 l 236 168 b 253.1 33.7 338.1 27.9 427 99 l 463 46 b 420.6 10.1 370.8 -10.1 312 -13 b 217.0 -19.8 164.4 25.0 158 168 l 158 633 l 70 633 m 340 700 l 420 700 b 407.5 619.2 375.8 551.0 338 509 l 305 527 b 321.8 556.6 338.6 627.5 340 700"},"Ł":{"ha":600,"x_min":18,"x_max":530,"o":"m 18 211 l 18 287 l 90 343 l 90 700 l 173 700 l 173 408 l 278 491 l 278 411 l 173 330 l 173 74 l 456 74 l 456 248 l 530 248 l 530 0 l 90 0 l 90 266 l 18 211"},"ł":{"ha":600,"x_min":59,"x_max":463,"o":"m 59 177 l 59 253 l 158 331 l 158 633 l 70 633 l 70 700 l 236 700 l 236 392 l 383 509 l 383 429 l 236 314 l 236 168 b 253.1 33.7 338.1 27.9 427 99 l 463 46 b 420.6 10.1 370.8 -10.1 312 -13 b 217.0 -19.8 164.4 25.0 158 168 l 158 254 l 59 177"},"Ń":{"ha":600,"x_min":70,"x_max":530,"o":"m 476 0 l 196 438 l 142 539 l 138 539 l 148 438 l 148 0 l 70 0 l 70 700 l 124 700 l 406 264 l 458 168 l 463 168 l 452 264 l 452 700 l 530 700 l 530 0 l 476 0 m 252 752 l 370 870 l 484 870 l 484 849 l 321 752 l 252 752"},"ń":{"ha":600,"x_min":18,"x_max":525,"o":"m 93 0 l 93 325 b 93.1 353.4 90.9 392.7 85 435 l 18 435 l 18 500 l 152 500 l 161 419 l 166 419 b 191.0 466.3 243.1 502.4 337 512 b 454.4 524.4 517.9 471.5 525 287 l 525 0 l 447 0 l 447 272 b 417.7 466.2 292.2 476.9 227 401 b 208.1 387.5 182.4 352.8 170 314 l 170 0 l 93 0 m 247 571 l 312 720 l 421 720 l 302 571 l 247 571"},"Ņ":{"ha":600,"x_min":70,"x_max":530,"o":"m 476 0 l 196 438 l 142 539 l 138 539 l 148 438 l 148 0 l 70 0 l 70 700 l 124 700 l 406 264 l 458 168 l 463 168 l 452 264 l 452 700 l 530 700 l 530 0 l 476 0 m 242 -92 b 258.7 -27.9 316.8 -19.0 357 -120 b 349.4 -183.8 318.0 -221.6 277 -235 l 249 -203 b 268.9 -195.4 290.6 -169.9 293 -134 b 290.6 -142.2 259.5 -139.0 242 -92"},"ņ":{"ha":600,"x_min":18,"x_max":525,"o":"m 93 0 l 93 325 b 93.1 353.4 90.9 392.7 85 435 l 18 435 l 18 500 l 152 500 l 161 419 l 166 419 b 191.0 466.3 243.1 502.4 337 512 b 454.4 524.4 517.9 471.5 525 287 l 525 0 l 447 0 l 447 272 b 417.7 466.2 292.2 476.9 227 401 b 208.1 387.5 182.4 352.8 170 314 l 170 0 l 93 0 m 252 -92 b 268.7 -27.9 326.8 -19.0 367 -120 b 359.4 -183.8 328.0 -221.6 287 -235 l 259 -203 b 278.9 -195.4 300.6 -169.9 303 -134 b 300.6 -142.2 269.5 -139.0 252 -92"},"Ň":{"ha":600,"x_min":70,"x_max":530,"o":"m 476 0 l 196 438 l 142 539 l 138 539 l 148 438 l 148 0 l 70 0 l 70 700 l 124 700 l 406 264 l 458 168 l 463 168 l 452 264 l 452 700 l 530 700 l 530 0 l 476 0 m 475 870 l 327 746 l 269 746 l 120 870 l 224 870 l 301 803 l 382 870 l 475 870"},"ň":{"ha":600,"x_min":18,"x_max":525,"o":"m 93 0 l 93 325 b 93.1 353.4 90.9 392.7 85 435 l 18 435 l 18 500 l 152 500 l 161 419 l 166 419 b 191.0 466.3 243.1 502.4 337 512 b 454.4 524.4 517.9 471.5 525 287 l 525 0 l 447 0 l 447 272 b 417.7 466.2 292.2 476.9 227 401 b 208.1 387.5 182.4 352.8 170 314 l 170 0 l 93 0 m 468 732 l 325 550 l 288 550 l 153 732 l 231 732 l 312 623 l 398 732 l 468 732"},"Ō":{"ha":600,"x_min":48,"x_max":552,"o":"m 48 350 b 120.2 771.3 376.6 798.4 496 612.5 b 600.9 491.1 620.6 189.7 299 -12 b 129.8 -10.0 49.0 98.6 48 350 m 136 350 b 127.6 193.7 167.3 87.6 299 62 b 492.0 147.7 501.3 419.5 430 551.5 b 375.5 694.0 218.3 720.0 136 350 m 148 781 l 148 843 l 464 843 l 464 781 l 148 781"},"ō":{"ha":600,"x_min":57,"x_max":543,"o":"m 57 250 b 134.8 553.4 371.4 575.2 484 436 b 560.9 335.8 567.8 193.2 480 59 b 388.8 -32.7 240.7 -41.4 116 64 b 86.4 91.3 58.8 165.0 57 250 m 140 250 b 134.2 150.9 175.1 75.7 300 55 b 487.2 117.7 498.1 294.9 424.5 383 b 371.4 483.2 224.7 500.6 140 250 m 152 581 l 152 643 l 448 643 l 448 581 l 152 581"},"Ő":{"ha":600,"x_min":48,"x_max":552,"o":"m 48 350 b 120.2 771.3 376.6 798.4 496 612.5 b 600.9 491.1 620.6 189.7 299 -12 b 129.8 -10.0 49.0 98.6 48 350 m 136 350 b 127.6 193.7 167.3 87.6 299 62 b 492.0 147.7 501.3 419.5 430 551.5 b 375.5 694.0 218.3 720.0 136 350 m 200 741 l 264 850 l 357 850 l 357 834 l 257 741 l 200 741 m 324 741 l 426 850 l 525 850 l 525 834 l 382 741 l 324 741"},"ő":{"ha":600,"x_min":57,"x_max":543,"o":"m 57 250 b 134.8 553.4 371.4 575.2 484 436 b 560.9 335.8 567.8 193.2 480 59 b 388.8 -32.7 240.7 -41.4 116 64 b 86.4 91.3 58.8 165.0 57 250 m 140 250 b 134.2 150.9 175.1 75.7 300 55 b 487.2 117.7 498.1 294.9 424.5 383 b 371.4 483.2 224.7 500.6 140 250 m 208 571 l 243 720 l 329 720 l 250 571 l 208 571 m 316 571 l 389 720 l 492 720 l 361 571 l 316 571"},"Œ":{"ha":600,"x_min":28,"x_max":577,"o":"m 314 77 l 314 618 b 271.7 688.6 174.5 709.9 110 350 b 105.5 191.3 136.6 85.1 233 61 b 248.4 59.4 278.5 62.2 314 77 m 577 0 l 314 0 b 277.4 -29.0 188.9 -36.2 77 86 b -10.6 207.5 -25.5 513.4 227 712 b 252.9 712.6 286.2 707.9 314 700 l 574 700 l 574 625 l 394 625 l 394 397 l 557 397 l 557 322 l 394 322 l 394 75 l 577 75 l 577 0"},"œ":{"ha":600,"x_min":43,"x_max":556,"o":"m 116 250 b 113.5 144.0 134.1 72.5 197 55 b 285.1 114.1 288.9 297.3 256.5 387 b 233.1 483.1 160.9 500.5 116 250 m 310 70 b 261.1 -66.1 126.3 -86.8 43 250 b 95.0 557.2 245.2 576.8 310 431 b 365.4 525.6 449.7 534.8 513 477.5 b 561.2 403.7 564.8 302.7 551 237 l 344 237 b 369.2 26.8 468.1 14.6 522 87 l 546 32 b 477.7 -30.9 382.5 -37.7 310 70 m 423 446 q 352 446 345 298 l 488 298 q 488 446 423 446"},"Ŕ":{"ha":600,"x_min":100,"x_max":570,"o":"m 100 0 l 100 693 b 212.9 716.7 324.9 720.8 438.5 665 b 523.0 590.5 530.3 471.5 461.5 388.5 b 444.1 367.1 410.3 342.3 385 332 l 570 0 l 473 0 l 308 308 l 183 308 l 183 0 l 100 0 m 280 636 b 244.8 636.9 211.4 634.9 183 630 l 183 372 l 261 372 b 458.5 409.4 479.5 570.5 280 636 m 217 752 l 335 870 l 449 870 l 449 849 l 286 752 l 217 752"},"ŕ":{"ha":600,"x_min":66,"x_max":556,"o":"m 470 0 l 66 0 l 66 67 l 201 67 l 201 433 l 66 433 l 66 500 l 253 500 l 269 435 l 274 435 b 378.6 525.1 499.1 534.9 536.5 459 b 547.8 440.4 556.1 386.3 556 318 l 486 317 b 481.4 462.7 405.7 469.6 328.5 410 b 311.0 398.3 288.5 377.1 278 362 l 278 67 l 470 67 l 470 0 m 270 571 l 335 720 l 444 720 l 325 571 l 270 571"},"Ŗ":{"ha":600,"x_min":100,"x_max":570,"o":"m 100 0 l 100 693 b 212.9 716.7 324.9 720.8 438.5 665 b 523.0 590.5 530.3 471.5 461.5 388.5 b 444.1 367.1 410.3 342.3 385 332 l 570 0 l 473 0 l 308 308 l 183 308 l 183 0 l 100 0 m 280 636 b 244.8 636.9 211.4 634.9 183 630 l 183 372 l 261 372 b 458.5 409.4 479.5 570.5 280 636 m 254 -92 b 270.7 -27.9 328.8 -19.0 369 -120 b 361.4 -183.8 330.0 -221.6 289 -235 l 261 -203 b 280.9 -195.4 302.6 -169.9 305 -134 b 302.6 -142.2 271.5 -139.0 254 -92"},"ŗ":{"ha":600,"x_min":66,"x_max":556,"o":"m 470 0 l 66 0 l 66 67 l 201 67 l 201 433 l 66 433 l 66 500 l 253 500 l 269 435 l 274 435 b 378.6 525.1 499.1 534.9 536.5 459 b 547.8 440.4 556.1 386.3 556 318 l 486 317 b 481.4 462.7 405.7 469.6 328.5 410 b 311.0 398.3 288.5 377.1 278 362 l 278 67 l 470 67 l 470 0 m 230 -92 b 246.7 -27.9 304.8 -19.0 345 -120 b 337.4 -183.8 306.0 -221.6 265 -235 l 237 -203 b 256.9 -195.4 278.6 -169.9 281 -134 b 278.6 -142.2 247.5 -139.0 230 -92"},"Ř":{"ha":600,"x_min":86,"x_max":570,"o":"m 100 0 l 100 693 b 212.9 716.7 324.9 720.8 438.5 665 b 523.0 590.5 530.3 471.5 461.5 388.5 b 444.1 367.1 410.3 342.3 385 332 l 570 0 l 473 0 l 308 308 l 183 308 l 183 0 l 100 0 m 280 636 b 244.8 636.9 211.4 634.9 183 630 l 183 372 l 261 372 b 458.5 409.4 479.5 570.5 280 636 m 441 870 l 293 746 l 235 746 l 86 870 l 190 870 l 267 803 l 348 870 l 441 870"},"ř":{"ha":600,"x_min":66,"x_max":556,"o":"m 470 0 l 66 0 l 66 67 l 201 67 l 201 433 l 66 433 l 66 500 l 253 500 l 269 435 l 274 435 b 378.6 525.1 499.1 534.9 536.5 459 b 547.8 440.4 556.1 386.3 556 318 l 486 317 b 481.4 462.7 405.7 469.6 328.5 410 b 311.0 398.3 288.5 377.1 278 362 l 278 67 l 470 67 l 470 0 m 472 732 l 329 550 l 292 550 l 157 732 l 235 732 l 316 623 l 402 732 l 472 732"},"Ś":{"ha":600,"x_min":75,"x_max":535,"o":"m 150 210 l 150 99 b 238.1 53.9 329.9 49.0 405.5 89.5 b 472.7 128.9 480.9 213.0 356 291 b 231.5 325.1 121.2 381.7 82 534 b 83.2 640.0 151.8 702.0 312 712 b 367.6 713.8 449.9 702.4 499 681 l 501 682 l 501 680 l 502 680 l 501 677 l 501 517 l 427 517 l 427 624 b 357.8 644.1 273.7 647.0 203.5 608.5 b 144.9 576.8 137.5 509.1 261 427.5 b 385.5 390.3 495.8 331.7 535 185 b 535.2 69.3 466.0 -0.3 296 -12 b 198.7 -7.4 125.2 14.9 75 45 l 76 48 l 76 210 l 150 210 m 258 752 l 376 870 l 490 870 l 490 849 l 327 752 l 258 752"},"ś":{"ha":600,"x_min":84,"x_max":516,"o":"m 438 135 b 420.7 202.2 329.7 227.3 190 256 b 85.0 302.0 74.4 405.3 163 477.5 b 230.0 525.2 358.1 529.0 502 458 l 470 395 b 372.5 452.2 266.2 459.1 219.5 428 b 162.8 401.1 155.4 344.6 268 305.5 b 380.7 297.0 480.3 264.9 516 147 b 443.7 -31.4 250.8 -45.0 173 10 b 147.3 18.2 108.8 37.7 84 58 l 124 123 b 157.8 88.3 216.1 61.3 307 54 b 378.7 51.5 426.8 72.1 438 135 m 239 571 l 304 720 l 413 720 l 294 571 l 239 571"},"Ŝ":{"ha":600,"x_min":75,"x_max":535,"o":"m 150 210 l 150 99 b 238.1 53.9 329.9 49.0 405.5 89.5 b 472.7 128.9 480.9 213.0 356 291 b 231.5 325.1 121.2 381.7 82 534 b 83.2 640.0 151.8 702.0 312 712 b 367.6 713.8 449.9 702.4 499 681 l 501 682 l 501 680 l 502 680 l 501 677 l 501 517 l 427 517 l 427 624 b 357.8 644.1 273.7 647.0 203.5 608.5 b 144.9 576.8 137.5 509.1 261 427.5 b 385.5 390.3 495.8 331.7 535 185 b 535.2 69.3 466.0 -0.3 296 -12 b 198.7 -7.4 125.2 14.9 75 45 l 76 48 l 76 210 l 150 210 m 127 748 l 282 871 l 342 871 l 487 748 l 388 748 l 311 813 l 228 748 l 127 748"},"ŝ":{"ha":600,"x_min":84,"x_max":516,"o":"m 438 135 b 420.7 202.2 329.7 227.3 190 256 b 85.0 302.0 74.4 405.3 163 477.5 b 230.0 525.2 358.1 529.0 502 458 l 470 395 b 372.5 452.2 266.2 459.1 219.5 428 b 162.8 401.1 155.4 344.6 268 305.5 b 380.7 297.0 480.3 264.9 516 147 b 443.7 -31.4 250.8 -45.0 173 10 b 147.3 18.2 108.8 37.7 84 58 l 124 123 b 157.8 88.3 216.1 61.3 307 54 b 378.7 51.5 426.8 72.1 438 135 m 147 550 l 290 732 l 327 732 l 462 550 l 384 550 l 303 659 l 217 550 l 147 550"},"Ş":{"ha":600,"x_min":75,"x_max":535,"o":"m 150 210 l 150 99 b 238.1 53.9 329.9 49.0 405.5 89.5 b 472.7 128.9 480.9 213.0 356 291 b 231.5 325.1 121.2 381.7 82 534 b 83.2 640.0 151.8 702.0 312 712 b 367.6 713.8 449.9 702.4 499 681 l 501 682 l 501 680 l 502 680 l 501 677 l 501 517 l 427 517 l 427 624 b 357.8 644.1 273.7 647.0 203.5 608.5 b 144.9 576.8 137.5 509.1 261 427.5 b 385.5 390.3 495.8 331.7 535 185 b 529.4 69.0 454.2 -0.9 332 -10 l 314 -43 b 423.8 -70.0 434.4 -155.6 271 -208 b 261.8 -208.3 244.2 -206.9 226 -204 l 235 -165 q 241 -166 246 -166 l 256 -166 b 306.4 -163.2 323.8 -149.5 319 -127 q 319 -99 233 -90 l 275 -11 b 205.8 -7.8 128.9 14.8 75 45 l 76 48 l 76 210 l 150 210"},"ş":{"ha":600,"x_min":84,"x_max":516,"o":"m 438 135 b 420.7 202.2 329.7 227.3 190 256 b 85.0 302.0 74.4 405.3 163 477.5 b 230.0 525.2 358.1 529.0 502 458 l 470 395 b 372.5 452.2 266.2 459.1 219.5 428 b 162.8 401.1 155.4 344.6 268 305.5 b 380.7 297.0 480.3 264.9 516 147 b 525.1 78.0 455.6 2.1 332 -11 l 314 -43 b 423.8 -70.0 434.4 -155.6 271 -208 b 261.8 -208.3 244.2 -206.9 226 -204 l 235 -165 q 241 -166 246 -166 l 256 -166 b 306.4 -163.2 323.8 -149.5 319 -127 q 319 -99 233 -90 l 275 -11 b 219.3 -9.8 143.6 14.1 84 58 l 124 123 b 157.8 88.3 216.1 61.3 307 54 b 378.7 51.5 426.8 72.1 438 135"},"Š":{"ha":600,"x_min":75,"x_max":535,"o":"m 150 210 l 150 99 b 238.1 53.9 329.9 49.0 405.5 89.5 b 472.7 128.9 480.9 213.0 356 291 b 231.5 325.1 121.2 381.7 82 534 b 83.2 640.0 151.8 702.0 312 712 b 367.6 713.8 449.9 702.4 499 681 l 501 682 l 501 680 l 502 680 l 501 677 l 501 517 l 427 517 l 427 624 b 357.8 644.1 273.7 647.0 203.5 608.5 b 144.9 576.8 137.5 509.1 261 427.5 b 385.5 390.3 495.8 331.7 535 185 b 535.2 69.3 466.0 -0.3 296 -12 b 198.7 -7.4 125.2 14.9 75 45 l 76 48 l 76 210 l 150 210 m 480 870 l 332 746 l 274 746 l 125 870 l 229 870 l 306 803 l 387 870 l 480 870"},"š":{"ha":600,"x_min":84,"x_max":516,"o":"m 438 135 b 420.7 202.2 329.7 227.3 190 256 b 85.0 302.0 74.4 405.3 163 477.5 b 230.0 525.2 358.1 529.0 502 458 l 470 395 b 372.5 452.2 266.2 459.1 219.5 428 b 162.8 401.1 155.4 344.6 268 305.5 b 380.7 297.0 480.3 264.9 516 147 b 443.7 -31.4 250.8 -45.0 173 10 b 147.3 18.2 108.8 37.7 84 58 l 124 123 b 157.8 88.3 216.1 61.3 307 54 b 378.7 51.5 426.8 72.1 438 135 m 460 732 l 317 550 l 280 550 l 145 732 l 223 732 l 304 623 l 390 732 l 460 732"},"Ţ":{"ha":600,"x_min":40,"x_max":560,"o":"m 451 0 l 328 0 l 304 -43 b 413.8 -70.0 424.4 -155.6 261 -208 b 251.8 -208.3 234.2 -206.9 216 -204 l 225 -165 q 231 -166 236 -166 l 246 -166 b 296.4 -163.2 313.8 -149.5 309 -127 q 309 -99 223 -90 l 271 0 l 148 0 l 148 74 l 258 74 l 258 626 l 114 626 l 114 517 l 40 517 l 40 700 l 560 700 l 560 517 l 486 517 l 486 626 l 341 626 l 341 74 l 451 74 l 451 0"},"ţ":{"ha":600,"x_min":31,"x_max":530,"o":"m 31 433 l 31 500 l 150 500 l 150 599 l 228 621 l 228 500 l 495 500 l 495 433 l 228 433 l 228 197 b 266.1 26.4 407.4 17.7 504 108 l 530 49 b 502.0 21.1 427.3 -9.6 347 -13 l 340 -13 l 324 -43 b 433.8 -70.0 444.4 -155.6 281 -208 b 271.8 -208.3 254.2 -206.9 236 -204 l 245 -165 q 251 -166 256 -166 l 266 -166 b 316.4 -163.2 333.8 -149.5 329 -127 q 329 -99 243 -90 l 288 -6 b 259.3 -19.9 177.7 33.3 150 185 l 150 433 l 31 433"},"Ť":{"ha":600,"x_min":40,"x_max":560,"o":"m 40 517 l 40 700 l 560 700 l 560 517 l 486 517 l 486 626 l 341 626 l 341 74 l 451 74 l 451 0 l 148 0 l 148 74 l 258 74 l 258 626 l 114 626 l 114 517 l 40 517 m 474 870 l 326 746 l 268 746 l 119 870 l 223 870 l 300 803 l 381 870 l 474 870"},"ť":{"ha":600,"x_min":31,"x_max":530,"o":"m 31 433 l 31 500 l 150 500 l 150 599 l 228 621 l 228 500 l 495 500 l 495 433 l 228 433 l 228 197 b 266.1 26.4 407.4 17.7 504 108 l 530 49 b 420.0 -27.2 301.0 -34.8 209 34 b 182.2 50.7 153.1 106.9 150 185 l 150 433 l 31 433 m 358 714 l 438 714 b 425.5 633.2 393.8 565.0 356 523 l 323 541 b 339.8 570.6 356.6 641.5 358 714"},"Ū":{"ha":600,"x_min":60,"x_max":540,"o":"m 460 256 l 460 700 l 540 700 l 540 233 b 539.0 75.7 470.3 -3.9 309 -9 b 186.3 -24.5 68.7 49.4 60 217 l 60 700 l 143 700 l 143 256 b 140.6 126.6 186.1 65.9 310 65 b 389.8 50.8 457.4 108.8 460 256 m 144 781 l 144 843 l 460 843 l 460 781 l 144 781"},"ū":{"ha":600,"x_min":25,"x_max":578,"o":"m 363 433 l 363 500 l 505 500 l 505 159 q 505 110 511 65 l 578 65 l 578 0 l 445 0 l 442 85 l 438 85 b 349.9 -29.6 213.2 -40.4 133 35 b 112.3 51.8 93.2 116.3 92 213 l 92 433 l 25 433 l 25 500 l 170 500 l 170 229 b 161.1 123.4 182.5 62.9 278 55 b 326.8 48.5 392.7 94.6 427 174 l 427 433 l 363 433 m 146 581 l 146 643 l 442 643 l 442 581 l 146 581"},"Ŭ":{"ha":600,"x_min":60,"x_max":540,"o":"m 460 256 l 460 700 l 540 700 l 540 233 b 539.0 75.7 470.3 -3.9 309 -9 b 186.3 -24.5 68.7 49.4 60 217 l 60 700 l 143 700 l 143 256 b 140.6 126.6 186.1 65.9 310 65 b 389.8 50.8 457.4 108.8 460 256 m 120 840 l 171 871 b 234.0 780.1 353.7 772.4 433 871 l 480 845 b 382.7 711.5 266.7 703.8 198 755 b 175.0 763.8 141.4 795.1 120 840"},"ŭ":{"ha":600,"x_min":25,"x_max":578,"o":"m 363 433 l 363 500 l 505 500 l 505 159 q 505 110 511 65 l 578 65 l 578 0 l 445 0 l 442 85 l 438 85 b 349.9 -29.6 213.2 -40.4 133 35 b 112.3 51.8 93.2 116.3 92 213 l 92 433 l 25 433 l 25 500 l 170 500 l 170 229 b 161.1 123.4 182.5 62.9 278 55 b 326.8 48.5 392.7 94.6 427 174 l 427 433 l 363 433 m 141 697 l 186 720 b 245.6 621.8 332.1 612.0 404 720 l 446 702 b 436.8 634.5 391.2 585.8 297 573 b 224.4 572.8 171.0 610.2 141 697"},"Ů":{"ha":600,"x_min":60,"x_max":540,"o":"m 460 256 l 460 700 l 540 700 l 540 233 b 539.0 75.7 470.3 -3.9 309 -9 b 186.3 -24.5 68.7 49.4 60 217 l 60 700 l 143 700 l 143 256 b 140.6 126.6 186.1 65.9 310 65 b 389.8 50.8 457.4 108.8 460 256 m 199 768 b 224.0 875.3 355.0 887.4 410 768 b 382.0 663.3 251.7 651.9 199 768 m 260 768 b 270.4 717.7 326.3 712.1 349 768 b 337.5 821.3 281.4 826.7 260 768"},"ů":{"ha":600,"x_min":25,"x_max":578,"o":"m 363 433 l 363 500 l 505 500 l 505 159 q 505 110 511 65 l 578 65 l 578 0 l 445 0 l 442 85 l 438 85 b 349.9 -29.6 213.2 -40.4 133 35 b 112.3 51.8 93.2 116.3 92 213 l 92 433 l 25 433 l 25 500 l 170 500 l 170 229 b 161.1 123.4 182.5 62.9 278 55 b 326.8 48.5 392.7 94.6 427 174 l 427 433 l 363 433 m 196 643 b 225.7 758.8 336.2 771.3 391 643 b 358.2 529.5 249.5 516.8 196 643 m 250 643 b 265.6 589.3 312.4 583.8 337 643 b 320.4 698.6 275.1 703.8 250 643"},"Ű":{"ha":600,"x_min":60,"x_max":540,"o":"m 460 256 l 460 700 l 540 700 l 540 233 b 539.0 75.7 470.3 -3.9 309 -9 b 186.3 -24.5 68.7 49.4 60 217 l 60 700 l 143 700 l 143 256 b 140.6 126.6 186.1 65.9 310 65 b 389.8 50.8 457.4 108.8 460 256 m 187 741 l 251 850 l 344 850 l 344 834 l 244 741 l 187 741 m 311 741 l 413 850 l 512 850 l 512 834 l 369 741 l 311 741"},"ű":{"ha":600,"x_min":25,"x_max":578,"o":"m 363 433 l 363 500 l 505 500 l 505 159 q 505 110 511 65 l 578 65 l 578 0 l 445 0 l 442 85 l 438 85 b 349.9 -29.6 213.2 -40.4 133 35 b 112.3 51.8 93.2 116.3 92 213 l 92 433 l 25 433 l 25 500 l 170 500 l 170 229 b 161.1 123.4 182.5 62.9 278 55 b 326.8 48.5 392.7 94.6 427 174 l 427 433 l 363 433 m 198 571 l 233 720 l 319 720 l 240 571 l 198 571 m 306 571 l 379 720 l 482 720 l 351 571 l 306 571"},"Ų":{"ha":600,"x_min":60,"x_max":540,"o":"m 460 256 l 460 700 l 540 700 l 540 233 b 530.7 79.1 453.8 2.8 360 -30 b 319.7 -114.2 350.5 -154.5 431 -128 l 442 -171 b 393.5 -212.4 312.1 -219.0 257 -106 b 257.3 -64.7 288.8 -21.4 318 -9 l 309 -9 b 186.3 -24.5 68.7 49.4 60 217 l 60 700 l 143 700 l 143 256 b 140.6 126.6 186.1 65.9 310 65 b 389.8 50.8 457.4 108.8 460 256"},"ų":{"ha":600,"x_min":25,"x_max":604,"o":"m 363 433 l 363 500 l 505 500 l 505 159 q 505 110 511 65 l 578 65 l 578 0 l 557 0 b 492.0 -42.1 480.7 -114.2 553 -138 q 572 -138 593 -128 l 604 -171 b 555.5 -212.4 474.1 -219.0 419 -106 b 416.5 -66.1 450.3 -20.1 497 0 l 445 0 l 442 85 l 438 85 b 349.9 -29.6 213.2 -40.4 133 35 b 112.3 51.8 93.2 116.3 92 213 l 92 433 l 25 433 l 25 500 l 170 500 l 170 229 b 161.1 123.4 182.5 62.9 278 55 b 326.8 48.5 392.7 94.6 427 174 l 427 433 l 363 433"},"Ÿ":{"ha":600,"x_min":9,"x_max":591,"o":"m 259 0 l 259 268 l 9 700 l 106 700 l 306 354 l 307 354 l 502 700 l 591 700 l 342 269 l 342 0 l 259 0 m 128 800 b 148.3 865.8 218.2 872.6 252 800 b 231.9 735.3 162.5 728.8 128 800 m 353 800 b 372.2 865.8 442.2 872.6 476 800 b 456.5 735.3 385.6 728.8 353 800"},"Ź":{"ha":600,"x_min":55,"x_max":545,"o":"m 55 0 l 55 75 l 450 626 l 55 626 l 55 700 l 545 700 l 545 625 l 148 74 l 545 74 l 545 0 l 55 0 m 238 752 l 356 870 l 470 870 l 470 849 l 307 752 l 238 752"},"ź":{"ha":600,"x_min":84,"x_max":516,"o":"m 84 0 l 84 67 l 423 433 l 84 433 l 84 500 l 516 500 l 516 433 l 174 67 l 516 67 l 516 0 l 84 0 m 237 571 l 302 720 l 411 720 l 292 571 l 237 571"},"Ż":{"ha":600,"x_min":55,"x_max":545,"o":"m 55 0 l 55 75 l 450 626 l 55 626 l 55 700 l 545 700 l 545 625 l 148 74 l 545 74 l 545 0 l 55 0 m 232 795 b 251.5 866.2 332.5 874.1 370 795 b 348.3 720.8 266.9 712.9 232 795"},"ż":{"ha":600,"x_min":84,"x_max":516,"o":"m 84 0 l 84 67 l 423 433 l 84 433 l 84 500 l 516 500 l 516 433 l 174 67 l 516 67 l 516 0 l 84 0 m 244 642 b 264.1 724.5 337.3 733.7 376 642 b 352.6 564.2 278.4 555.8 244 642"},"Ž":{"ha":600,"x_min":55,"x_max":545,"o":"m 55 0 l 55 75 l 450 626 l 55 626 l 55 700 l 545 700 l 545 625 l 148 74 l 545 74 l 545 0 l 55 0 m 462 870 l 314 746 l 256 746 l 107 870 l 211 870 l 288 803 l 369 870 l 462 870"},"ž":{"ha":600,"x_min":84,"x_max":516,"o":"m 84 0 l 84 67 l 423 433 l 84 433 l 84 500 l 516 500 l 516 433 l 174 67 l 516 67 l 516 0 l 84 0 m 458 732 l 315 550 l 278 550 l 143 732 l 221 732 l 302 623 l 388 732 l 458 732"},"ſ":{"ha":600,"x_min":95,"x_max":555,"o":"m 95 430 l 95 500 l 213 500 l 213 528 b 269.5 737.1 444.6 746.1 555 667 l 526 601 b 455.7 655.4 338.5 666.7 293 529 l 293 0 l 213 0 l 213 430 l 95 430"},"ƒ":{"ha":600,"x_min":21,"x_max":578,"o":"m 502 430 l 371 430 l 292 -34 b 282.8 -131.5 241.8 -194.5 136 -208 b 110.3 -209.3 60.6 -199.7 21 -184 l 42 -119 b 94.2 -164.2 166.5 -176.0 220 8 l 288 430 l 203 430 l 203 500 l 299 500 l 310 567 b 359.3 735.1 492.8 743.1 578 687 l 555 623 b 428.7 656.6 404.6 643.9 398.5 588 q 393 569 389 541 l 382 500 l 502 500 l 502 430"},"Ǵ":{"ha":600,"x_min":53,"x_max":533,"o":"m 437 517 l 437 631 b 326.4 663.6 227.4 637.6 158.5 486 b 88.3 242.8 215.8 5.3 462 87 l 462 282 l 318 282 l 318 349 l 533 349 l 533 41 b 489.3 9.3 426.7 -9.6 340 -12 b 168.1 -20.0 68.7 78.0 53 350 b 63.2 589.8 160.4 707.1 347 712 b 402.5 713.4 470.3 704.7 512 688 l 511 684 l 511 517 l 437 517 m 287 752 l 405 870 l 519 870 l 519 849 l 356 752 l 287 752"},"ǵ":{"ha":600,"x_min":69,"x_max":524,"o":"m 524 478 l 524 -25 b 519.7 -144.0 446.6 -206.2 292 -212 b 238.1 -214.5 163.5 -198.2 113 -169 l 151 -98 b 174.9 -119.7 220.7 -136.8 291 -142 b 397.2 -146.3 445.6 -109.5 446 1 l 446 57 l 442 57 b 384.8 -62.4 186.3 -84.8 69 249 b 154.6 545.2 412.9 560.3 524 478 m 301 55 b 359.3 46.1 422.4 87.6 446 183 l 446 420 b 251.1 487.3 113.5 372.1 159 171.5 b 162.1 118.5 200.0 68.1 301 55 m 277 571 l 342 720 l 451 720 l 332 571 l 277 571"},"Ș":{"ha":600,"x_min":75,"x_max":535,"o":"m 150 210 l 150 99 b 238.1 53.9 329.9 49.0 405.5 89.5 b 472.7 128.9 480.9 213.0 356 291 b 231.5 325.1 121.2 381.7 82 534 b 83.2 640.0 151.8 702.0 312 712 b 367.6 713.8 449.9 702.4 499 681 l 501 682 l 501 680 l 502 680 l 501 677 l 501 517 l 427 517 l 427 624 b 357.8 644.1 273.7 647.0 203.5 608.5 b 144.9 576.8 137.5 509.1 261 427.5 b 385.5 390.3 495.8 331.7 535 185 b 535.2 69.3 466.0 -0.3 296 -12 b 198.7 -7.4 125.2 14.9 75 45 l 76 48 l 76 210 l 150 210 m 234 -92 b 250.7 -27.9 308.8 -19.0 349 -120 b 341.4 -183.8 310.0 -221.6 269 -235 l 241 -203 b 260.9 -195.4 282.6 -169.9 285 -134 b 282.6 -142.2 251.5 -139.0 234 -92"},"ș":{"ha":600,"x_min":84,"x_max":516,"o":"m 438 135 b 420.7 202.2 329.7 227.3 190 256 b 85.0 302.0 74.4 405.3 163 477.5 b 230.0 525.2 358.1 529.0 502 458 l 470 395 b 372.5 452.2 266.2 459.1 219.5 428 b 162.8 401.1 155.4 344.6 268 305.5 b 380.7 297.0 480.3 264.9 516 147 b 443.7 -31.4 250.8 -45.0 173 10 b 147.3 18.2 108.8 37.7 84 58 l 124 123 b 157.8 88.3 216.1 61.3 307 54 b 378.7 51.5 426.8 72.1 438 135 m 246 -92 b 262.7 -27.9 320.8 -19.0 361 -120 b 353.4 -183.8 322.0 -221.6 281 -235 l 253 -203 b 272.9 -195.4 294.6 -169.9 297 -134 b 294.6 -142.2 263.5 -139.0 246 -92"},"Ț":{"ha":600,"x_min":40,"x_max":560,"o":"m 40 517 l 40 700 l 560 700 l 560 517 l 486 517 l 486 626 l 341 626 l 341 74 l 451 74 l 451 0 l 148 0 l 148 74 l 258 74 l 258 626 l 114 626 l 114 517 l 40 517 m 241 -92 b 257.7 -27.9 315.8 -19.0 356 -120 b 348.4 -183.8 317.0 -221.6 276 -235 l 248 -203 b 267.9 -195.4 289.6 -169.9 292 -134 b 289.6 -142.2 258.5 -139.0 241 -92"},"ț":{"ha":600,"x_min":31,"x_max":530,"o":"m 31 433 l 31 500 l 150 500 l 150 599 l 228 621 l 228 500 l 495 500 l 495 433 l 228 433 l 228 197 b 266.1 26.4 407.4 17.7 504 108 l 530 49 b 420.0 -27.2 301.0 -34.8 209 34 b 182.2 50.7 153.1 106.9 150 185 l 150 433 l 31 433 m 267 -92 b 283.7 -27.9 341.8 -19.0 382 -120 b 374.4 -183.8 343.0 -221.6 302 -235 l 274 -203 b 293.9 -195.4 315.6 -169.9 318 -134 b 315.6 -142.2 284.5 -139.0 267 -92"},"ȷ":{"ha":600,"x_min":59,"x_max":416,"o":"m 336 3 l 336 433 l 94 433 l 94 500 l 416 500 l 416 -12 b 344.0 -241.7 180.1 -252.3 122 -188.5 b 101.2 -179.8 73.0 -163.6 59 -153 l 92 -88 b 170.9 -165.1 289.7 -178.4 336 3"},"ʼ":{"ha":600,"x_min":158,"x_max":297,"o":"m 158 679 b 176.8 758.0 253.3 767.7 297 654 b 287.8 555.5 246.7 502.7 191 487 l 161 528 b 189.0 537.1 224.9 569.9 230 620 b 229.3 609.1 187.3 613.8 158 679"},"ˆ":{"ha":600,"x_min":144,"x_max":459,"o":"m 144 550 l 287 732 l 324 732 l 459 550 l 381 550 l 300 659 l 214 550 l 144 550"},"ˇ":{"ha":600,"x_min":142,"x_max":457,"o":"m 457 732 l 314 550 l 277 550 l 142 732 l 220 732 l 301 623 l 387 732 l 457 732"},"˘":{"ha":600,"x_min":147,"x_max":452,"o":"m 147 697 l 192 720 b 251.6 621.8 338.1 612.0 410 720 l 452 702 b 442.8 634.5 397.2 585.8 303 573 b 230.4 572.8 177.0 610.2 147 697"},"˙":{"ha":600,"x_min":234,"x_max":366,"o":"m 234 642 b 254.1 724.5 327.3 733.7 366 642 b 342.6 564.2 268.4 555.8 234 642"},"˚":{"ha":600,"x_min":202,"x_max":397,"o":"m 202 643 b 231.7 758.8 342.2 771.3 397 643 b 364.2 529.5 255.5 516.8 202 643 m 256 643 b 271.6 589.3 318.4 583.8 343 643 b 326.4 698.6 281.1 703.8 256 643"},"˛":{"ha":600,"x_min":207,"x_max":392,"o":"m 310 10 l 365 10 b 273.3 -45.9 265.1 -116.0 341 -138 q 360 -138 381 -128 l 392 -171 b 343.5 -212.4 262.1 -219.0 207 -106 b 200.7 -67.8 237.5 -17.9 310 10"},"˜":{"ha":600,"x_min":146,"x_max":450,"o":"m 183 614 l 146 654 b 230.7 726.2 281.9 728.8 316.5 693.5 b 330.1 677.2 353.0 663.4 415 698 l 450 654 b 385.1 592.6 330.0 592.2 294.5 625.5 b 261.9 651.5 229.1 655.8 183 614"},"˝":{"ha":600,"x_min":166,"x_max":450,"o":"m 166 571 l 201 720 l 287 720 l 208 571 l 166 571 m 274 571 l 347 720 l 450 720 l 319 571 l 274 571"},"́":{"ha":600,"x_min":196,"x_max":370,"o":"m 196 571 l 261 720 l 370 720 l 251 571 l 196 571"},"Δ":{"ha":600,"x_min":28,"x_max":572,"o":"m 572 0 l 28 0 l 28 37 l 282 711 l 316 711 l 572 37 l 572 0 m 294 543 l 120 72 l 475 72 l 295 543 l 294 543"},"Ω":{"ha":600,"x_min":25,"x_max":575,"o":"m 25 0 l 25 70 l 185 70 l 185 86 b 79.9 117.1 27.7 209.9 25 376 b 16.1 576.4 87.5 693.4 299 712 b 488.7 708.8 575.0 605.4 575 372 b 575.5 233.5 528.0 138.2 413 86 l 413 70 l 575 70 l 575 0 l 338 0 l 338 125 b 419.1 130.5 474.1 195.0 487 377 b 502.8 510.5 464.9 609.9 298 638 b 164.4 640.9 109.0 567.2 113 374 b 113.5 221.0 158.1 141.8 261 125 l 261 0 l 25 0"},"π":{"ha":600,"x_min":13,"x_max":586,"o":"m 491 430 l 491 116 b 499.4 57.4 530.4 56.0 567 72 l 586 18 b 536.8 -22.9 440.8 -32.6 411 106 l 411 430 l 221 430 l 221 0 l 141 0 l 141 430 l 127 430 b 108.4 433.0 85.9 417.7 66 385 l 13 417 b 24.2 454.8 65.5 495.7 141 500 l 574 500 l 574 430 l 491 430"},"Ё":{"ha":600,"x_min":107,"x_max":523,"o":"m 107 0 l 107 700 l 518 700 l 518 626 l 190 626 l 190 397 l 493 397 l 493 323 l 190 323 l 190 74 l 523 74 l 523 0 l 107 0 m 137 800 b 157.3 865.8 227.2 872.6 261 800 b 240.9 735.3 171.5 728.8 137 800 m 362 800 b 381.2 865.8 451.2 872.6 485 800 b 465.5 735.3 394.6 728.8 362 800"},"Ђ":{"ha":600,"x_min":23,"x_max":587,"o":"m 274 342 l 274 0 l 191 0 l 191 626 l 23 626 l 23 700 l 472 700 l 472 626 l 274 626 l 274 415 b 322.0 442.9 433.9 450.1 527.5 393 b 624.4 328.7 641.9 114.8 394 -8 b 362.8 -8.3 335.1 -7.7 324 -5 l 324 67 b 351.3 38.2 447.6 27.7 499 220 b 495.6 321.6 456.7 366.2 377 364 b 343.6 364.4 295.3 352.3 274 342"},"Ѓ":{"ha":600,"x_min":70,"x_max":550,"o":"m 70 626 l 70 700 l 550 700 l 550 517 l 476 517 l 476 626 l 249 626 l 249 74 l 406 74 l 406 0 l 70 0 l 70 74 l 166 74 l 166 626 l 70 626 m 267 752 l 385 870 l 499 870 l 499 849 l 336 752 l 267 752"},"Є":{"ha":600,"x_min":55,"x_max":544,"o":"m 458 517 l 458 624 b 423.2 648.4 345.7 653.1 225.5 584.5 b 195.0 565.3 157.4 496.7 145 398 l 451 398 l 451 324 l 143 324 b 154.3 158.7 226.8 71.2 379 62 b 402.1 60.9 439.2 67.0 469 79 l 469 179 l 543 179 l 543 44 l 544 42 b 458.5 -31.3 300.3 -41.6 142.5 75 b 30.1 208.0 18.9 444.5 148.5 628.5 b 288.1 724.9 418.7 728.9 469 702.5 b 485.8 699.3 510.0 688.7 531 675 l 532 675 l 532 517 l 458 517"},"Ѕ":{"ha":600,"x_min":75,"x_max":535,"o":"m 150 210 l 150 99 b 238.1 53.9 329.9 49.0 405.5 89.5 b 472.7 128.9 480.9 213.0 356 291 b 231.5 325.1 121.2 381.7 82 534 b 83.2 640.0 151.8 702.0 312 712 b 367.6 713.8 449.9 702.4 499 681 l 501 682 l 501 680 l 502 680 l 501 677 l 501 517 l 427 517 l 427 624 b 357.8 644.1 273.7 647.0 203.5 608.5 b 144.9 576.8 137.5 509.1 261 427.5 b 385.5 390.3 495.8 331.7 535 185 b 535.2 69.3 466.0 -0.3 296 -12 b 198.7 -7.4 125.2 14.9 75 45 l 76 48 l 76 210 l 150 210"},"І":{"ha":600,"x_min":60,"x_max":540,"o":"m 60 626 l 60 700 l 540 700 l 540 626 l 341 626 l 341 74 l 540 74 l 540 0 l 60 0 l 60 74 l 258 74 l 258 626 l 60 626"},"Ї":{"ha":600,"x_min":60,"x_max":540,"o":"m 60 626 l 60 700 l 540 700 l 540 626 l 341 626 l 341 74 l 540 74 l 540 0 l 60 0 l 60 74 l 258 74 l 258 626 l 60 626 m 126 800 b 146.3 865.8 216.2 872.6 250 800 b 229.9 735.3 160.5 728.8 126 800 m 351 800 b 370.2 865.8 440.2 872.6 474 800 b 454.5 735.3 383.6 728.8 351 800"},"Ј":{"ha":600,"x_min":84,"x_max":493,"o":"m 97 626 l 97 700 l 493 700 l 493 248 b 408.3 -44.6 211.0 -59.7 151 8.5 b 128.3 15.8 98.2 31.5 84 46 l 120 112 b 144.8 91.3 183.4 71.5 258 64 b 332.2 49.5 404.4 110.8 410 263 l 410 626 l 97 626"},"Љ":{"ha":600,"x_min":1,"x_max":598,"o":"m 297 5 l 297 626 l 188 626 b 178.6 133.4 135.6 -40.7 44 -5 q 21 -5 1 5 l 10 79 b 28.7 56.8 56.7 67.1 82.5 192.5 b 93.5 234.9 104.9 383.0 111 700 l 377 700 l 377 428 b 400.8 444.9 456.1 448.9 550 394 b 633.0 329.8 648.9 115.0 414 -8 b 387.7 -8.9 348.0 -5.8 297 5 m 420 66 b 534.2 106.8 538.5 268.9 492 335 b 451.5 368.9 403.9 369.7 377 354 l 377 72 q 395 66 420 66"},"Њ":{"ha":600,"x_min":16,"x_max":584,"o":"m 273 6 l 273 331 l 96 331 l 96 0 l 16 0 l 16 700 l 96 700 l 96 405 l 273 405 l 273 700 l 353 700 l 353 405 b 366.7 408.4 391.3 412.4 415 414 b 509.2 426.7 571.1 381.8 584 216 b 513.4 -40.7 373.0 -48.2 342.5 -5.5 b 326.0 -4.5 296.0 -0.1 273 6 m 409 66 b 519.2 102.8 523.9 256.3 478 317 b 436.3 344.5 396.9 344.7 378.5 337 b 370.4 336.1 358.6 333.0 353 331 l 353 72 b 360.3 68.1 385.3 65.8 409 66"},"Ћ":{"ha":600,"x_min":18,"x_max":582,"o":"m 269 320 l 269 0 l 186 0 l 186 626 l 18 626 l 18 700 l 467 700 l 467 626 l 269 626 l 269 395 b 299.0 416.1 341.4 434.8 421 440 b 525.6 449.1 578.2 401.6 582 244 l 582 0 l 499 0 l 499 229 b 506.8 315.9 487.2 361.5 405 366 b 361.4 368.7 307.7 352.0 269 320"},"Ќ":{"ha":600,"x_min":85,"x_max":595,"o":"m 490 0 l 245 324 l 168 324 l 168 0 l 85 0 l 85 700 l 168 700 l 168 388 l 243 388 l 468 700 l 564 700 l 317 367 l 595 0 l 490 0 m 223 752 l 341 870 l 455 870 l 455 849 l 292 752 l 223 752"},"Ў":{"ha":600,"x_min":30,"x_max":570,"o":"m 126 700 l 299 284 l 363 284 l 485 700 l 570 700 l 428 245 b 385.0 75.7 332.7 -4.0 235 -5 b 205.0 -6.5 170.6 0.8 146 17 l 171 86 b 212.3 43.0 260.9 32.8 336 210 l 246 211 l 30 700 l 126 700 m 138 850 l 217 870 b 248.8 771.5 349.3 762.3 401 869 l 472 852 b 417.4 703.4 237.1 687.5 138 850"},"Џ":{"ha":600,"x_min":75,"x_max":524,"o":"m 266 0 l 75 0 l 75 700 l 158 700 l 158 74 l 441 74 l 441 700 l 524 700 l 524 0 l 336 0 l 336 -181 l 266 -181 l 266 0"},"А":{"ha":600,"x_min":16,"x_max":584,"o":"m 497 0 l 431 194 l 162 194 l 98 0 l 16 0 l 250 700 l 348 700 l 584 0 l 497 0 m 293 595 l 188 266 l 408 266 l 305 595 l 293 595"},"Б":{"ha":600,"x_min":108,"x_max":535,"o":"m 108 7 l 108 700 l 488 700 l 488 626 l 191 626 l 191 416 b 229.2 432.3 314.0 436.6 459 383 b 555.9 312.1 565.4 165.0 458 46.5 b 342.9 -15.5 247.2 -18.4 195.5 -5 b 174.8 -3.8 138.2 -0.0 108 7 m 289 64 b 376.0 60.9 434.0 100.6 447 207 b 441.6 316.4 384.9 358.5 273 353 b 245.8 352.0 214.8 349.4 191 345 l 191 70 b 211.7 65.7 245.0 63.3 289 64"},"В":{"ha":600,"x_min":100,"x_max":543,"o":"m 522 540 b 524.6 471.0 489.3 412.4 390 375 l 390 371 b 471.5 363.5 528.0 316.7 543 199 b 533.3 63.9 446.5 -3.7 282 -8 b 234.0 -10.0 171.3 -7.3 100 5 l 100 694 b 210.7 714.5 336.7 718.2 446 676.5 b 478.9 665.4 517.3 616.9 522 540 m 290 64 b 378.2 61.9 440.1 97.3 455 193 b 446.8 288.9 383.4 326.4 270 322 l 183 322 l 183 71 b 205.6 66.9 243.3 64.5 290 64 m 183 392 l 235 392 b 287.3 386.1 338.5 394.8 398.5 443 b 445.4 484.9 450.5 553.4 388 613 b 328.8 640.5 252.3 641.4 183 630 l 183 392"},"Г":{"ha":600,"x_min":70,"x_max":550,"o":"m 70 626 l 70 700 l 550 700 l 550 517 l 476 517 l 476 626 l 249 626 l 249 74 l 406 74 l 406 0 l 70 0 l 70 74 l 166 74 l 166 626 l 70 626"},"Д":{"ha":600,"x_min":8,"x_max":584,"o":"m 584 74 l 584 -141 l 514 -141 l 514 0 l 78 0 l 78 -141 l 8 -141 l 8 74 l 75 74 b 99.2 86.2 141.0 251.8 165 700 l 509 700 l 509 74 l 584 74 m 163 74 l 426 74 l 426 626 l 243 626 b 229.8 354.1 199.7 178.6 163 74"},"Е":{"ha":600,"x_min":107,"x_max":523,"o":"m 107 0 l 107 700 l 518 700 l 518 626 l 190 626 l 190 397 l 493 397 l 493 323 l 190 323 l 190 74 l 523 74 l 523 0 l 107 0"},"Ж":{"ha":600,"x_min":0,"x_max":600,"o":"m 259 386 l 259 700 l 339 700 l 339 386 l 389 386 l 499 700 l 581 700 l 460 358 l 600 0 l 508 0 l 391 324 l 339 324 l 339 0 l 259 0 l 259 324 l 204 324 l 86 0 l 0 0 l 131 353 l 18 700 l 105 700 l 200 386 l 259 386"},"З":{"ha":600,"x_min":80,"x_max":530,"o":"m 80 25 l 80 183 l 154 183 l 154 78 b 211.4 33.0 342.3 21.4 442 202 b 451.3 263.5 393.4 321.0 285 331 l 225 331 l 225 401 l 294 401 b 363.7 409.9 410.6 447.4 421 523 b 419.1 603.1 373.0 640.7 268 642 b 242.3 642.8 196.9 637.3 160 628 l 160 529 l 86 529 l 86 677 l 86 678 b 112.7 694.9 174.5 708.3 282 712 b 404.2 719.7 488.7 678.4 509 540 b 518.0 492.7 475.1 417.1 378 379 l 378 375 b 560.3 314.7 574.6 151.6 449.5 40 b 350.8 -24.9 208.6 -28.1 80 24 l 80 25"},"И":{"ha":600,"x_min":60,"x_max":540,"o":"m 457 0 l 457 464 l 463 564 l 457 564 l 399 452 l 139 0 l 60 0 l 60 700 l 143 700 l 143 230 l 138 131 l 144 131 l 201 243 l 461 700 l 540 700 l 540 0 l 457 0"},"Й":{"ha":600,"x_min":60,"x_max":540,"o":"m 457 0 l 457 464 l 463 564 l 457 564 l 399 452 l 139 0 l 60 0 l 60 700 l 143 700 l 143 230 l 138 131 l 144 131 l 201 243 l 461 700 l 540 700 l 540 0 l 457 0 m 144 850 l 223 870 b 254.8 771.5 355.3 762.3 407 869 l 478 852 b 423.4 703.4 243.1 687.5 144 850"},"К":{"ha":600,"x_min":85,"x_max":595,"o":"m 490 0 l 245 324 l 168 324 l 168 0 l 85 0 l 85 700 l 168 700 l 168 388 l 243 388 l 468 700 l 564 700 l 317 367 l 595 0 l 490 0"},"Л":{"ha":600,"x_min":3,"x_max":524,"o":"m 441 0 l 441 626 l 252 626 b 229.5 135.4 164.4 -40.7 59 -5 b 42.9 -5.7 21.0 -2.4 3 5 l 14 77 b 39.9 54.0 83.6 73.5 127.5 198 b 145.6 238.3 163.9 384.3 174 700 l 524 700 l 524 0 l 441 0"},"М":{"ha":600,"x_min":60,"x_max":540,"o":"m 457 0 l 457 465 l 467 560 l 462 560 l 414 474 l 312 303 l 287 303 l 180 475 l 134 560 l 129 560 l 141 466 l 141 0 l 60 0 l 60 700 l 137 700 l 303 434 l 305 434 l 465 700 l 540 700 l 540 0 l 457 0"},"Н":{"ha":600,"x_min":60,"x_max":540,"o":"m 457 0 l 457 321 l 143 321 l 143 0 l 60 0 l 60 700 l 143 700 l 143 395 l 457 395 l 457 700 l 540 700 l 540 0 l 457 0"},"О":{"ha":600,"x_min":48,"x_max":552,"o":"m 48 350 b 120.2 771.3 376.6 798.4 496 612.5 b 600.9 491.1 620.6 189.7 299 -12 b 129.8 -10.0 49.0 98.6 48 350 m 136 350 b 127.6 193.7 167.3 87.6 299 62 b 492.0 147.7 501.3 419.5 430 551.5 b 375.5 694.0 218.3 720.0 136 350"},"П":{"ha":600,"x_min":70,"x_max":530,"o":"m 447 0 l 447 626 l 153 626 l 153 0 l 70 0 l 70 700 l 530 700 l 530 0 l 447 0"},"Р":{"ha":600,"x_min":100,"x_max":537,"o":"m 100 0 l 100 693 b 199.5 717.3 310.2 720.9 449 666 b 559.7 590.3 571.1 432.0 453 313.5 b 322.4 254.6 234.9 252.7 224.5 262.5 b 212.6 262.9 192.8 264.4 183 266 l 183 0 l 100 0 m 271 636 b 247.0 636.6 207.4 635.4 183 630 l 183 340 b 202.7 336.5 233.9 335.5 261 336 b 356.4 326.2 428.8 361.0 449 493 b 442.0 592.2 381.1 636.7 271 636"},"С":{"ha":600,"x_min":65,"x_max":544,"o":"m 458 517 l 458 624 b 424.0 650.1 343.4 655.5 220.5 574 b 135.7 468.0 127.1 279.0 215.5 134 b 313.0 50.1 416.5 45.5 469 79 l 469 179 l 543 179 l 543 44 l 544 42 b 457.8 -31.3 299.4 -41.6 147 75 b 41.0 208.0 30.7 444.5 154 628.5 b 287.9 724.9 417.8 728.9 469 702.5 b 485.8 699.3 510.0 688.7 531 675 l 532 675 l 532 517 l 458 517"},"Т":{"ha":600,"x_min":40,"x_max":560,"o":"m 40 517 l 40 700 l 560 700 l 560 517 l 486 517 l 486 626 l 341 626 l 341 74 l 451 74 l 451 0 l 148 0 l 148 74 l 258 74 l 258 626 l 114 626 l 114 517 l 40 517"},"У":{"ha":600,"x_min":30,"x_max":570,"o":"m 126 700 l 299 284 l 363 284 l 485 700 l 570 700 l 428 245 b 385.0 75.7 332.7 -4.0 235 -5 b 205.0 -6.5 170.6 0.8 146 17 l 171 86 b 212.3 43.0 260.9 32.8 336 210 l 246 211 l 30 700 l 126 700"},"Ф":{"ha":600,"x_min":22,"x_max":578,"o":"m 258 -20 l 258 65 b 135.4 45.5 46.5 106.9 22 350 b 27.8 549.6 102.8 645.3 258 648 l 258 720 l 341 720 l 341 648 b 460.9 664.6 552.0 597.5 578 360 b 569.0 154.1 489.3 62.4 341 65 l 341 -20 l 258 -20 m 495 360 b 494.7 503.7 448.1 574.0 338 578 l 338 134 b 432.1 122.5 486.4 177.0 495 360 m 105 350 b 102.2 204.1 144.3 135.6 260 134 l 260 578 b 170.7 589.7 115.5 534.2 105 350"},"Х":{"ha":600,"x_min":20,"x_max":580,"o":"m 20 0 l 251 356 l 40 700 l 140 700 l 280 463 l 305 416 l 329 463 l 478 700 l 570 700 l 351 363 l 580 0 l 483 0 l 326 251 l 299 301 l 273 251 l 113 0 l 20 0"},"Ц":{"ha":600,"x_min":70,"x_max":594,"o":"m 594 74 l 594 -141 l 524 -141 l 524 0 l 70 0 l 70 700 l 153 700 l 153 74 l 428 74 l 428 700 l 511 700 l 511 74 l 594 74"},"Ч":{"ha":600,"x_min":82,"x_max":527,"o":"m 82 700 l 165 700 l 165 468 b 224.5 290.1 361.5 302.5 444 377 l 444 700 l 527 700 l 527 0 l 444 0 l 444 302 b 353.2 247.7 225.5 239.2 135 298.5 b 110.2 313.1 84.4 369.5 82 453 l 82 700"},"Ш":{"ha":600,"x_min":51,"x_max":549,"o":"m 549 0 l 51 0 l 51 700 l 129 700 l 129 74 l 261 74 l 261 700 l 339 700 l 339 74 l 471 74 l 471 700 l 549 700 l 549 0"},"Щ":{"ha":600,"x_min":42,"x_max":600,"o":"m 530 0 l 42 0 l 42 700 l 120 700 l 120 74 l 251 74 l 251 700 l 329 700 l 329 74 l 461 74 l 461 700 l 539 700 l 539 74 l 600 74 l 600 -141 l 530 -141 l 530 0"},"Ъ":{"ha":600,"x_min":21,"x_max":568,"o":"m 161 7 l 161 626 l 21 626 l 21 700 l 244 700 l 244 428 b 270.7 444.3 359.7 449.1 501 385.5 b 586.5 309.1 594.8 176.9 502.5 56.5 b 386.7 -15.9 282.7 -20.0 247 -5.5 b 228.7 -4.7 191.9 -0.4 161 7 m 322 64 b 527.6 112.8 544.7 293.6 318 364 b 296.4 364.3 262.3 360.2 244 355 l 244 70 b 264.5 65.8 292.1 64.4 322 64"},"Ы":{"ha":600,"x_min":50,"x_max":550,"o":"m 467 0 l 467 700 l 550 700 l 550 0 l 467 0 m 50 5 l 50 700 l 133 700 l 133 437 b 151.5 453.4 221.2 458.4 337 401 b 418.7 322.9 427.2 167.9 341 48 b 240.9 -16.0 152.8 -18.5 116 -5.5 b 99.9 -4.6 71.4 -0.9 50 5 m 187 66 b 263.6 61.2 310.8 101.1 319 220 b 315.6 328.2 274.5 375.2 190 372 b 173.7 372.5 145.7 369.1 133 363 l 133 73 b 138.9 69.1 161.4 66.0 187 66"},"Ь":{"ha":600,"x_min":118,"x_max":554,"o":"m 118 7 l 118 700 l 201 700 l 201 428 b 219.7 431.5 254.9 434.4 300 436 b 432.4 447.2 527.8 397.2 554 226 b 549.4 76.2 463.6 -1.7 281 -8 b 241.1 -9.2 185.2 -6.3 118 7 m 292 64 b 388.0 61.1 452.3 104.3 466 220 b 460.0 321.6 401.9 366.2 289 364 b 260.5 363.2 226.7 360.5 201 355 l 201 70 b 211.8 67.0 251.0 64.2 292 64"},"Э":{"ha":600,"x_min":60,"x_max":540,"o":"m 76 525 l 76 670 l 75 673 b 162.5 729.8 304.1 738.4 458.5 628.5 b 564.2 495.6 574.8 255.0 448.5 70.5 b 307.4 -26.0 183.2 -29.9 129.5 3.5 b 108.5 9.2 77.4 21.1 60 31 l 60 179 l 134 179 l 134 79 b 188.1 46.8 275.9 40.5 390 117 b 419.9 137.6 453.2 212.2 457 321 l 209 321 l 209 395 l 456 395 b 448.7 555.6 381.6 636.3 239 642 b 215.9 642.6 179.6 637.9 150 630 l 150 525 l 76 525"},"Ю":{"ha":600,"x_min":35,"x_max":576,"o":"m 118 700 l 118 395 l 201 395 b 200.5 577.8 249.9 690.6 389 712 b 513.9 712.2 574.3 605.5 576 350 b 517.7 -71.7 322.6 -96.3 244 77.5 b 222.4 110.0 202.5 203.6 200 322 l 118 322 l 118 0 l 35 0 l 35 700 l 118 700 m 284 350 b 312.9 -19.6 444.8 -56.5 493 350 b 500.0 510.3 475.5 615.2 383 638 b 315.0 638.0 283.9 553.9 284 350"},"Я":{"ha":600,"x_min":42,"x_max":500,"o":"m 500 693 l 500 0 l 417 0 l 417 289 l 314 289 l 140 0 l 42 0 l 236 302 b 157.8 315.7 104.2 370.0 92 496 b 97.5 642.9 180.4 708.7 352 708 b 380.8 709.3 441.6 705.5 500 693 m 348 636 b 258.8 643.1 195.9 609.6 180 496 b 183.9 402.3 237.7 355.3 349 353 l 417 353 l 417 630 b 406.8 633.0 383.6 635.8 348 636"},"а":{"ha":600,"x_min":75,"x_max":545,"o":"m 133 403 l 108 461 b 239.3 523.9 372.9 528.9 445.5 450.5 b 483.0 386.0 483.4 300.3 472 160 q 472 110 478 65 l 545 65 l 545 0 l 412 0 l 403 75 l 398 75 b 387.6 43.6 344.0 7.5 235 -9 b 43.1 34.0 27.0 183.9 162 270 b 193.6 289.3 284.3 298.2 397 283 b 412.8 393.9 386.7 442.5 292 441 b 251.7 442.5 184.5 425.1 133 403 m 255 58 b 327.5 63.5 374.8 97.5 397 152 l 397 222 b 259.9 247.9 173.9 229.6 157 140 b 149.6 106.9 178.8 64.2 255 58"},"б":{"ha":600,"x_min":57,"x_max":543,"o":"m 130 409 l 133 409 b 228.2 551.1 432.4 568.6 543 261 b 471.3 -119.6 59.2 -91.5 66.5 450 b 89.3 597.2 149.9 664.2 269 680 b 325.6 684.5 430.3 692.0 493 725 l 505 656 b 484.7 635.2 442.1 624.8 344 619 b 220.7 631.3 150.3 589.8 130 409 m 140 249 b 136.4 146.9 179.2 74.2 300 55 b 485.9 123.6 496.1 303.5 426 380 b 384.0 467.4 234.6 482.9 140 249"},"в":{"ha":600,"x_min":120,"x_max":530,"o":"m 120 1 l 120 499 b 161.8 502.5 213.3 505.4 304 507 b 552.4 474.5 567.1 349.6 410 266 l 410 262 b 587.9 220.6 607.6 66.6 282 -7 b 239.9 -7.4 176.9 -3.9 120 1 m 197 229 l 197 63 b 242.9 44.4 364.4 37.5 450 146 b 456.1 194.5 418.9 223.8 302 229 l 197 229 m 197 289 l 316 289 b 372.4 291.2 416.5 316.0 429 368 b 396.4 452.7 260.8 454.5 197 438 l 197 289"},"г":{"ha":600,"x_min":102,"x_max":506,"o":"m 396 0 l 102 0 l 102 67 l 166 67 l 166 432 l 102 432 l 102 500 l 506 500 l 506 313 l 438 313 l 438 432 l 244 432 l 244 67 l 396 67 l 396 0"},"д":{"ha":600,"x_min":28,"x_max":566,"o":"m 566 68 l 566 -120 l 498 -120 l 498 0 l 96 0 l 96 -120 l 28 -120 l 28 68 l 84 68 b 116.4 80.9 154.0 194.2 175 500 l 489 500 l 489 68 l 566 68 m 165 67 l 411 67 l 411 433 l 246 433 b 243.3 315.2 221.0 190.0 165 67"},"е":{"ha":600,"x_min":63,"x_max":537,"o":"m 498 120 l 529 63 b 482.0 20.0 411.7 -7.1 309 -12 b 156.7 -11.2 73.2 67.3 63 250 b 62.9 410.9 137.9 500.0 316 512 b 435.4 529.9 521.2 467.8 532 237 l 145 237 b 211.6 31.4 361.1 21.7 427 80 b 449.5 87.8 480.9 105.1 498 120 m 318 446 b 230.3 451.8 170.5 416.7 148 307 l 459 307 b 462.1 372.5 410.5 439.8 318 446"},"ж":{"ha":600,"x_min":6,"x_max":594,"o":"m 260 224 l 199 224 l 92 0 l 6 0 l 134 256 l 19 500 l 106 500 l 197 284 l 260 284 l 260 500 l 338 500 l 338 284 l 392 284 l 498 500 l 580 500 l 462 268 l 594 0 l 505 0 l 398 224 l 338 224 l 338 0 l 260 0 l 260 224"},"з":{"ha":600,"x_min":79,"x_max":526,"o":"m 107 334 l 107 453 l 106 456 b 142.4 483.5 199.0 503.6 313 510 b 421.4 510.5 491.1 474.4 505 384 b 505.6 339.5 476.3 298.1 407 268 l 407 264 b 553.5 213.1 560.6 106.2 466.5 34 b 373.8 -18.4 244.8 -22.7 152.5 19 b 127.6 29.3 95.7 51.5 79 71 l 119 134 b 141.3 98.1 194.9 68.4 310 58 b 384.6 56.8 434.2 80.1 446 145 b 457.0 182.6 412.1 219.9 298 223 l 241 223 l 241 288 l 312 288 b 368.5 290.2 411.5 315.0 424 367 b 421.5 416.8 380.6 441.2 296 443 b 259.3 444.4 208.5 434.2 175 417 l 175 334 l 107 334"},"и":{"ha":600,"x_min":85,"x_max":515,"o":"m 437 0 l 437 314 l 440 380 l 437 380 l 156 0 l 85 0 l 85 500 l 163 500 l 163 177 l 160 114 l 164 114 l 443 500 l 515 500 l 515 0 l 437 0"},"й":{"ha":600,"x_min":85,"x_max":515,"o":"m 437 0 l 437 314 l 440 380 l 437 380 l 156 0 l 85 0 l 85 500 l 163 500 l 163 177 l 160 114 l 164 114 l 443 500 l 515 500 l 515 0 l 437 0 m 147 678 l 215 702 b 256.4 594.3 338.0 586.4 397 701 l 457 682 b 387.4 543.0 269.3 534.4 203 590 b 182.8 599.8 156.8 632.8 147 678"},"к":{"ha":600,"x_min":109,"x_max":558,"o":"m 455 0 l 241 226 l 186 226 l 186 0 l 109 0 l 109 500 l 186 500 l 186 286 l 241 286 l 438 500 l 532 500 l 311 263 l 493 67 l 558 67 l 558 0 l 455 0"},"л":{"ha":600,"x_min":40,"x_max":504,"o":"m 426 0 l 426 432 l 253 432 b 258.7 189.0 226.6 30.3 91 -4 b 73.4 -4.7 56.9 -2.1 40 5 l 53 79 b 101.1 53.1 134.6 74.0 159.5 199.5 b 166.5 233.0 175.2 343.4 180 500 l 504 500 l 504 0 l 426 0"},"м":{"ha":600,"x_min":64,"x_max":536,"o":"m 458 0 l 458 297 l 460 368 l 455 368 l 311 139 l 283 139 l 137 368 l 133 368 l 138 298 l 138 0 l 64 0 l 64 500 l 143 500 l 302 249 l 304 249 l 456 500 l 536 500 l 536 0 l 458 0"},"н":{"ha":600,"x_min":88,"x_max":512,"o":"m 434 0 l 434 222 l 165 222 l 165 0 l 88 0 l 88 500 l 165 500 l 165 292 l 434 292 l 434 500 l 512 500 l 512 0 l 434 0"},"о":{"ha":600,"x_min":57,"x_max":543,"o":"m 57 250 b 134.8 553.4 371.4 575.2 484 436 b 560.9 335.8 567.8 193.2 480 59 b 388.8 -32.7 240.7 -41.4 116 64 b 86.4 91.3 58.8 165.0 57 250 m 140 250 b 134.2 150.9 175.1 75.7 300 55 b 487.2 117.7 498.1 294.9 424.5 383 b 371.4 483.2 224.7 500.6 140 250"},"п":{"ha":600,"x_min":92,"x_max":508,"o":"m 430 0 l 430 432 l 169 432 l 169 0 l 92 0 l 92 500 l 508 500 l 508 0 l 430 0"},"р":{"ha":600,"x_min":21,"x_max":554,"o":"m 96 -200 l 96 325 b 96.1 353.4 93.9 392.7 88 435 l 21 435 l 21 500 l 154 500 l 164 430 l 169 430 b 242.4 560.7 440.1 585.8 554 260 b 552.8 97.3 475.0 2.9 295 -12 b 246.4 -12.1 213.1 -6.6 173 10 l 173 -200 l 96 -200 m 326 439 b 246.7 433.6 192.3 390.6 173 315 l 173 87 b 221.3 18.0 367.6 2.4 471 261 b 481.9 345.3 438.3 431.2 326 439"},"с":{"ha":600,"x_min":60,"x_max":541,"o":"m 439 328 l 439 423 b 392.8 474.8 253.5 490.2 143 250 b 143.8 137.6 203.2 73.1 340 63 b 382.7 59.6 455.6 81.2 506 121 l 541 63 b 507.2 28.0 442.4 -2.6 324 -12 b 159.4 -11.2 70.4 67.5 60 250 b 59.9 410.9 134.9 500.0 313 512 b 381.5 513.9 462.9 496.0 512 470 l 511 467 l 511 328 l 439 328"},"т":{"ha":600,"x_min":52,"x_max":548,"o":"m 52 313 l 52 500 l 548 500 l 548 313 l 480 313 l 480 432 l 339 432 l 339 67 l 460 67 l 460 0 l 136 0 l 136 67 l 261 67 l 261 432 l 120 432 l 120 313 l 52 313"},"у":{"ha":600,"x_min":46,"x_max":554,"o":"m 136 500 l 311 77 l 349 77 l 473 500 l 554 500 l 415 51 b 405.0 -59.7 362.0 -164.7 209 -205 b 173.1 -203.4 137.1 -192.6 109 -172 l 137 -100 b 156.2 -114.2 187.7 -123.9 221 -127 q 296 -127 323 0 l 256 0 l 46 500 l 136 500"},"ф":{"ha":600,"x_min":24,"x_max":576,"o":"m 184 633 l 184 700 l 338 700 l 338 503 b 357.9 548.9 468.4 567.5 576 260 b 505.8 -43.6 361.8 -61.8 338 -5 l 338 -200 l 262 -200 l 262 -4 b 233.7 -56.2 125.0 -74.1 24 250 b 26.0 443.8 165.9 548.8 262 504 l 262 633 l 184 633 m 382 442 b 372.2 442.6 356.8 442.2 337 437 l 337 57 b 354.7 20.1 434.5 6.7 496 260 b 502.4 369.1 475.5 432.5 382 442 m 213 54 b 222.9 53.6 242.0 54.8 263 59 l 263 438 b 246.7 473.5 171.0 487.3 104 250 b 100.5 138.6 128.6 67.4 213 54"},"х":{"ha":600,"x_min":46,"x_max":554,"o":"m 46 0 l 253 256 l 60 500 l 160 500 l 304 312 l 452 500 l 542 500 l 349 260 l 554 0 l 458 0 l 299 205 l 137 0 l 46 0"},"ц":{"ha":600,"x_min":90,"x_max":585,"o":"m 585 68 l 585 -120 l 517 -120 l 517 0 l 90 0 l 90 500 l 167 500 l 167 68 l 425 68 l 425 500 l 503 500 l 503 68 l 585 68"},"ч":{"ha":600,"x_min":90,"x_max":488,"o":"m 90 500 l 167 500 l 167 367 b 159.1 295.4 180.9 250.9 269 243 b 320.1 241.5 381.5 257.4 410 279 l 410 500 l 488 500 l 488 0 l 410 0 l 410 212 b 343.4 168.1 210.2 160.4 131.5 214.5 b 111.2 228.3 91.5 281.0 90 361 l 90 500"},"ш":{"ha":600,"x_min":55,"x_max":545,"o":"m 545 0 l 55 0 l 55 500 l 129 500 l 129 70 l 263 70 l 263 500 l 337 500 l 337 70 l 471 70 l 471 500 l 545 500 l 545 0"},"щ":{"ha":600,"x_min":68,"x_max":592,"o":"m 592 70 l 592 -120 l 524 -120 l 524 0 l 68 0 l 68 500 l 142 500 l 142 70 l 262 70 l 262 500 l 336 500 l 336 70 l 456 70 l 456 500 l 530 500 l 530 70 l 592 70"},"ъ":{"ha":600,"x_min":44,"x_max":556,"o":"m 245 242 l 245 67 b 390.6 35.4 511.1 93.6 439 222 b 361.0 256.7 294.7 255.2 245 242 m 245 500 l 245 307 b 298.0 322.1 388.9 324.8 508 271 b 602.6 225.7 621.6 86.8 308 -6 q 244 -6 168 0 l 168 432 l 44 432 l 44 500 l 245 500"},"ы":{"ha":600,"x_min":47,"x_max":553,"o":"m 127 243 l 127 70 b 251.4 38.4 342.1 92.4 286.5 224 b 226.4 257.5 169.0 256.0 127 243 m 127 500 l 127 309 b 175.3 324.1 255.3 326.8 356 273 b 434.3 225.9 451.0 86.5 180 -6 q 116 -6 47 0 l 47 500 l 127 500 m 473 0 l 473 500 l 553 500 l 553 0 l 473 0"},"ь":{"ha":600,"x_min":112,"x_max":530,"o":"m 189 242 l 189 69 b 222.2 65.0 263.1 61.5 302 61 b 489.3 91.8 505.5 197.1 306 249 b 276.0 249.8 224.4 248.6 189 242 m 189 500 l 189 307 b 251.7 322.1 366.9 324.8 481.5 271 b 577.0 225.7 596.0 86.8 281 -6 b 235.9 -5.3 179.5 -1.7 112 4 l 112 500 l 189 500"},"э":{"ha":600,"x_min":75,"x_max":541,"o":"m 101 353 l 101 475 l 103 475 b 198.7 528.0 345.6 534.6 472 441 b 561.4 342.0 570.3 190.7 465 56.5 b 349.8 -23.4 237.4 -28.2 163.5 6.5 b 138.2 12.9 99.9 31.9 75 55 l 108 117 b 201.8 47.8 315.0 38.5 401.5 97 b 427.9 111.2 457.6 157.2 461 219 l 224 219 l 224 285 l 460 285 b 454.1 375.8 398.3 433.7 268 445 b 242.0 446.1 200.7 440.0 169 428 l 169 353 l 101 353"},"ю":{"ha":600,"x_min":49,"x_max":562,"o":"m 387 -12 b 266.5 -11.2 212.9 58.4 210 221 l 129 221 l 129 0 l 49 0 l 49 500 l 129 500 l 129 291 l 211 291 b 212.4 427.3 258.3 502.5 389 512 b 511.6 511.2 564.3 432.5 562 250 b 575.5 125.1 524.4 -0.9 387 -12 m 288 250 b 279.1 144.6 298.1 74.5 389 58 b 456.2 54.0 482.2 105.6 479 250 b 487.5 355.4 470.4 425.5 388 442 b 314.6 446.0 285.0 394.2 288 250"},"я":{"ha":600,"x_min":64,"x_max":488,"o":"m 410 0 l 410 195 l 290 195 l 164 0 l 64 0 l 64 67 l 116 67 l 207 203 b 154.7 214.5 115.9 254.8 106 342 b 108.9 453.9 182.6 510.4 347 513 b 379.7 513.7 435.0 506.1 488 496 l 488 0 l 410 0 m 270 255 l 410 255 l 410 433 b 382.6 462.9 282.3 471.2 188 348 b 183.7 308.5 216.4 267.4 270 255"},"ё":{"ha":600,"x_min":63,"x_max":537,"o":"m 498 120 l 529 63 b 482.0 20.0 411.7 -7.1 309 -12 b 156.7 -11.2 73.2 67.3 63 250 b 62.9 410.9 137.9 500.0 316 512 b 435.4 529.9 521.2 467.8 532 237 l 145 237 b 211.6 31.4 361.1 21.7 427 80 b 449.5 87.8 480.9 105.1 498 120 m 318 446 b 230.3 451.8 170.5 416.7 148 307 l 459 307 b 462.1 372.5 410.5 439.8 318 446 m 131 626 b 148.4 700.6 213.8 708.3 245 626 b 226.6 554.4 161.3 546.7 131 626 m 354 626 b 371.2 700.6 436.3 708.3 469 626 b 449.6 554.4 383.7 546.7 354 626"},"ђ":{"ha":600,"x_min":59,"x_max":540,"o":"m 59 440 l 59 500 l 139 500 l 139 700 l 219 700 l 219 500 l 379 500 l 379 440 l 219 440 l 219 292 l 223 292 b 300.9 374.3 421.7 382.4 500.5 317 b 520.7 301.8 539.0 241.9 540 150 l 540 -27 b 491.0 -236.1 380.4 -245.1 376 -210 l 376 -142 b 440.8 -145.0 464.9 -106.4 460 0 l 460 132 b 466.5 231.5 441.9 284.4 353 290 b 307.5 296.2 242.9 255.0 219 181 l 219 0 l 139 0 l 139 440 l 59 440"},"ѓ":{"ha":600,"x_min":102,"x_max":506,"o":"m 396 0 l 102 0 l 102 67 l 166 67 l 166 432 l 102 432 l 102 500 l 506 500 l 506 313 l 438 313 l 438 432 l 244 432 l 244 67 l 396 67 l 396 0 m 254 571 l 319 720 l 428 720 l 309 571 l 254 571"},"є":{"ha":600,"x_min":60,"x_max":541,"o":"m 439 328 l 439 423 b 392.5 469.0 252.8 478.5 145 286 l 372 286 l 372 220 l 144 220 b 143.4 147.3 203.1 78.4 340 63 b 382.7 59.6 455.6 81.2 506 121 l 541 63 b 507.2 28.0 442.4 -2.6 324 -12 b 159.4 -11.2 70.4 67.5 60 250 b 59.9 410.9 134.9 500.0 313 512 b 381.5 513.9 462.9 496.0 512 470 l 511 467 l 511 328 l 439 328"},"ѕ":{"ha":600,"x_min":84,"x_max":516,"o":"m 438 135 b 420.7 202.2 329.7 227.3 190 256 b 85.0 302.0 74.4 405.3 163 477.5 b 230.0 525.2 358.1 529.0 502 458 l 470 395 b 372.5 452.2 266.2 459.1 219.5 428 b 162.8 401.1 155.4 344.6 268 305.5 b 380.7 297.0 480.3 264.9 516 147 b 443.7 -31.4 250.8 -45.0 173 10 b 147.3 18.2 108.8 37.7 84 58 l 124 123 b 157.8 88.3 216.1 61.3 307 54 b 378.7 51.5 426.8 72.1 438 135"},"і":{"ha":600,"x_min":105,"x_max":529,"o":"m 529 0 l 105 0 l 105 67 l 279 67 l 279 433 l 105 433 l 105 500 l 359 500 l 359 67 l 529 67 l 529 0 m 252 642 b 272.1 724.5 345.3 733.7 384 642 b 360.6 564.2 286.4 555.8 252 642"},"ї":{"ha":600,"x_min":105,"x_max":529,"o":"m 529 0 l 105 0 l 105 67 l 279 67 l 279 433 l 105 433 l 105 500 l 359 500 l 359 67 l 529 67 l 529 0 m 131 645 b 148.4 719.6 213.8 727.3 245 645 b 226.6 573.4 161.3 565.7 131 645 m 354 645 b 371.2 719.6 436.3 727.3 469 645 b 449.6 573.4 383.7 565.7 354 645"},"ј":{"ha":600,"x_min":59,"x_max":426,"o":"m 336 3 l 336 433 l 94 433 l 94 500 l 416 500 l 416 -12 b 344.0 -241.7 180.1 -252.3 122 -188.5 b 101.2 -179.8 73.0 -163.6 59 -153 l 92 -88 b 170.9 -165.1 289.7 -178.4 336 3 m 294 642 b 314.1 724.5 387.3 733.7 426 642 b 402.6 564.2 328.4 555.8 294 642"},"љ":{"ha":600,"x_min":6,"x_max":584,"o":"m 372 500 l 372 309 b 409.0 324.1 475.8 326.8 552.5 273 b 616.5 225.9 628.4 86.5 410 -6 b 381.2 -6.4 337.4 -4.4 297 0 l 297 430 l 199 430 b 197.4 322.1 187.2 201.0 147.5 74 b 95.5 -13.7 28.3 -19.9 6 5 l 18 72 b 49.5 33.8 89.4 60.9 118 281 q 126 365 129 500 l 372 500 m 372 243 l 372 69 b 466.7 37.3 528.1 92.4 490.5 224 b 450.7 257.5 402.2 256.0 372 243"},"њ":{"ha":600,"x_min":19,"x_max":592,"o":"m 345 243 l 345 69 b 371.3 48.8 455.3 41.9 509 158 b 480.9 260.3 385.8 267.6 345 243 m 345 500 l 345 309 b 380.4 323.2 460.1 326.8 555.5 273 b 630.2 225.9 646.2 86.5 388 -6 b 358.0 -6.4 302.9 -4.4 265 0 l 265 223 l 99 223 l 99 0 l 19 0 l 19 500 l 99 500 l 99 293 l 265 293 l 265 500 l 345 500"},"ћ":{"ha":600,"x_min":59,"x_max":540,"o":"m 59 440 l 59 500 l 139 500 l 139 700 l 219 700 l 219 500 l 379 500 l 379 440 l 219 440 l 219 292 l 223 292 b 300.9 374.3 421.7 382.4 500.5 317 b 520.7 301.8 539.0 241.9 540 150 l 540 0 l 460 0 l 460 132 b 466.5 231.5 441.9 284.4 353 290 b 307.5 296.2 242.9 255.0 219 181 l 219 0 l 139 0 l 139 440 l 59 440"},"ќ":{"ha":600,"x_min":109,"x_max":558,"o":"m 455 0 l 241 226 l 186 226 l 186 0 l 109 0 l 109 500 l 186 500 l 186 286 l 241 286 l 438 500 l 532 500 l 311 263 l 493 67 l 558 67 l 558 0 l 455 0 m 235 571 l 300 720 l 409 720 l 290 571 l 235 571"},"ў":{"ha":600,"x_min":46,"x_max":554,"o":"m 136 500 l 311 77 l 349 77 l 473 500 l 554 500 l 415 51 b 405.0 -59.7 362.0 -164.7 209 -205 b 173.1 -203.4 137.1 -192.6 109 -172 l 137 -100 b 156.2 -114.2 187.7 -123.9 221 -127 q 296 -127 323 0 l 256 0 l 46 500 l 136 500 m 158 678 l 226 702 b 267.4 594.3 349.0 586.4 408 701 l 468 682 b 398.4 543.0 280.3 534.4 214 590 b 193.8 599.8 167.8 632.8 158 678"},"џ":{"ha":600,"x_min":100,"x_max":500,"o":"m 269 0 l 100 0 l 100 500 l 180 500 l 180 70 l 420 70 l 420 500 l 500 500 l 500 0 l 337 0 l 337 -160 l 269 -160 l 269 0"},"Ѣ":{"ha":600,"x_min":7,"x_max":592,"o":"m 7 550 l 7 620 l 156 620 l 156 721 l 239 721 l 239 620 l 446 620 l 446 550 l 239 550 l 239 427 b 257.7 430.5 292.9 433.4 338 435 b 470.4 446.1 565.8 397.2 592 226 b 587.4 76.2 501.6 -1.7 319 -8 b 279.1 -9.2 223.2 -6.3 156 7 l 156 550 l 7 550 m 330 64 b 426.0 61.1 490.3 104.3 504 220 b 498.0 321.8 439.9 365.2 327 363 b 298.5 362.2 264.7 359.5 239 354 l 239 70 b 249.8 67.0 289.0 64.2 330 64"},"ѣ":{"ha":600,"x_min":37,"x_max":533,"o":"m 37 434 l 37 500 l 146 500 l 146 700 l 226 700 l 226 500 l 416 500 l 416 434 l 226 434 l 226 309 b 279.2 324.1 389.5 326.8 490.5 273 b 575.2 225.9 592.5 86.5 309 -6 b 262.5 -5.8 207.4 -4.8 146 0 l 146 434 l 37 434 m 226 243 l 226 70 b 271.3 48.0 378.8 41.7 450 158 b 414.0 260.3 290.7 268.1 226 243"},"Ѳ":{"ha":600,"x_min":48,"x_max":552,"o":"m 48 350 b 120.2 771.3 376.6 798.4 496 612.5 b 600.9 491.1 620.6 189.7 299 -12 b 129.8 -10.0 49.0 98.6 48 350 m 299 62 b 378.4 44.1 453.0 126.3 463 318 l 136 318 b 133.8 176.4 174.6 83.5 299 62 m 299 638 b 222.6 655.1 148.7 575.4 137 392 l 463 392 b 462.7 527.8 421.9 617.7 299 638"},"ѳ":{"ha":600,"x_min":57,"x_max":543,"o":"m 57 250 b 134.8 553.4 371.4 575.2 484 436 b 560.9 335.8 567.8 193.2 480 59 b 388.8 -32.7 240.7 -41.4 116 64 b 86.4 91.3 58.8 165.0 57 250 m 300 445 q 153 445 141 281 l 459 281 b 454.7 367.8 412.3 428.8 300 445 m 300 55 b 370.3 44.2 443.5 98.5 459 217 l 141 217 b 145.3 131.0 187.7 70.3 300 55"},"Ѵ":{"ha":600,"x_min":-29,"x_max":630,"o":"m 451 520 l 295 0 l 217 0 l -29 700 l 61 700 l 257 134 l 264 134 l 362 492 b 414.2 670.0 464.5 725.5 538 707 b 570.0 708.5 605.5 701.2 630 685 l 606 615 b 562.0 654.4 514.0 663.0 451 520"},"ѵ":{"ha":600,"x_min":40,"x_max":560,"o":"m 443 356 l 291 -11 l 257 -11 l 40 500 l 132 500 l 279 139 l 280 139 l 352 325 b 383.5 434.5 420.9 497.5 502 507 b 518.1 507.7 541.6 505.1 560 498 l 548 424 b 532.4 446.4 505.5 453.9 443 356"},"Ҋ":{"ha":600,"x_min":24,"x_max":608,"o":"m 421 0 l 421 464 l 427 564 l 421 564 l 363 452 l 103 0 l 24 0 l 24 700 l 107 700 l 107 230 l 102 131 l 108 131 l 165 243 l 425 700 l 504 700 l 504 70 l 608 70 l 537 -130 l 463 -130 l 508 0 l 421 0 m 108 850 l 187 870 b 218.8 771.5 319.3 762.3 371 869 l 442 852 b 387.4 703.4 207.1 687.5 108 850"},"ҋ":{"ha":600,"x_min":85,"x_max":621,"o":"m 437 0 l 437 314 l 440 380 l 437 380 l 156 0 l 85 0 l 85 500 l 163 500 l 163 177 l 160 114 l 164 114 l 443 500 l 515 500 l 515 67 l 621 67 l 550 -130 l 476 -130 l 521 0 l 437 0 m 147 678 l 215 702 b 256.4 594.3 338.0 586.4 397 701 l 457 682 b 387.4 543.0 269.3 534.4 203 590 b 182.8 599.8 156.8 632.8 147 678"},"Ҍ":{"ha":600,"x_min":7,"x_max":592,"o":"m 7 550 l 7 620 l 156 620 l 156 721 l 239 721 l 239 620 l 446 620 l 446 550 l 239 550 l 239 427 b 257.7 430.5 292.9 433.4 338 435 b 470.4 446.1 565.8 397.2 592 226 b 587.4 76.2 501.6 -1.7 319 -8 b 279.1 -9.2 223.2 -6.3 156 7 l 156 550 l 7 550 m 330 64 b 426.0 61.1 490.3 104.3 504 220 b 498.0 321.8 439.9 365.2 327 363 b 298.5 362.2 264.7 359.5 239 354 l 239 70 b 249.8 67.0 289.0 64.2 330 64"},"ҍ":{"ha":600,"x_min":37,"x_max":533,"o":"m 37 434 l 37 500 l 146 500 l 146 700 l 226 700 l 226 500 l 416 500 l 416 434 l 226 434 l 226 309 b 279.2 324.1 389.5 326.8 490.5 273 b 575.2 225.9 592.5 86.5 309 -6 b 262.5 -5.8 207.4 -4.8 146 0 l 146 434 l 37 434 m 226 243 l 226 70 b 271.3 48.0 378.8 41.7 450 158 b 414.0 260.3 290.7 268.1 226 243"},"Ҏ":{"ha":600,"x_min":81,"x_max":518,"o":"m 81 0 l 81 693 b 180.5 717.3 291.2 720.9 430 666 b 545.4 593.2 558.3 423.8 405 296 l 473 198 l 427 165 l 350 275 b 217.0 257.3 206.3 259.2 181 264 q 169 265 164 266 l 164 0 l 81 0 m 244 435 l 287 462 l 358 359 b 446.6 417.6 455.2 536.7 373.5 605.5 b 297.1 641.4 220.7 643.0 164 630 l 164 340 b 183.7 336.5 214.9 335.5 242 336 b 256.5 335.4 282.3 336.6 308 342 l 244 435"},"ҏ":{"ha":600,"x_min":21,"x_max":554,"o":"m 96 -200 l 96 325 b 96.1 353.4 93.9 392.7 88 435 l 21 435 l 21 500 l 154 500 l 164 430 l 169 430 b 242.4 560.7 440.1 585.8 554 260 b 552.8 163.6 500.3 58.7 465 45 l 524 -22 l 476 -63 l 412 11 b 388.4 -4.6 266.3 -17.3 227.5 -6.5 b 216.2 -4.9 195.4 1.1 173 10 l 173 -200 l 96 -200 m 326 439 b 246.7 433.6 192.3 390.6 173 315 l 173 87 b 196.3 62.0 262.1 46.3 364 67 l 303 138 l 349 179 l 416 101 b 472.5 99.6 515.0 344.8 326 439"},"Ґ":{"ha":600,"x_min":70,"x_max":550,"o":"m 70 626 l 70 700 l 476 700 l 476 820 l 550 820 l 550 626 l 249 626 l 249 74 l 416 74 l 416 0 l 70 0 l 70 74 l 166 74 l 166 626 l 70 626"},"ґ":{"ha":600,"x_min":102,"x_max":506,"o":"m 396 0 l 102 0 l 102 67 l 166 67 l 166 432 l 102 432 l 102 500 l 438 500 l 438 620 l 506 620 l 506 432 l 244 432 l 244 67 l 396 67 l 396 0"},"Ғ":{"ha":600,"x_min":64,"x_max":535,"o":"m 535 700 l 535 626 l 243 626 l 243 385 l 458 385 l 458 319 l 243 319 l 243 0 l 160 0 l 160 319 l 64 319 l 64 385 l 160 385 l 160 700 l 535 700"},"ғ":{"ha":600,"x_min":49,"x_max":511,"o":"m 511 500 l 511 430 l 219 430 l 219 279 l 468 279 l 468 219 l 219 219 l 219 0 l 139 0 l 139 219 l 49 219 l 49 279 l 139 279 l 139 500 l 511 500"},"Ҕ":{"ha":600,"x_min":82,"x_max":518,"o":"m 165 282 l 165 0 l 82 0 l 82 700 l 457 700 l 457 626 l 165 626 l 165 355 b 218.5 383.9 339.1 391.4 450.5 327 b 562.9 253.1 582.6 9.7 285 -128 b 253.8 -128.3 226.1 -127.7 215 -125 l 215 -51 b 237.8 -97.8 418.6 -72.4 418 213.5 b 381.6 294.5 311.1 317.8 242.5 301.5 b 217.3 298.2 186.6 290.5 165 282"},"ҕ":{"ha":600,"x_min":98,"x_max":541,"o":"m 178 182 l 178 0 l 98 0 l 98 500 l 479 500 l 479 430 l 178 430 l 178 252 b 186.3 259.5 225.8 268.8 333 273 b 443.0 282.6 520.9 226.3 541 45 b 463.7 -243.5 265.7 -254.7 254 -206 l 254 -136 b 276.2 -167.7 387.3 -178.7 461 35 b 457.5 145.2 410.7 200.1 311 203 b 255.3 203.4 197.0 192.1 178 182"},"Җ":{"ha":600,"x_min":0,"x_max":619,"o":"m 259 386 l 259 700 l 339 700 l 339 386 l 389 386 l 499 700 l 581 700 l 460 358 l 571 74 l 619 74 l 619 -120 l 549 -120 l 549 0 l 508 0 l 391 324 l 339 324 l 339 0 l 259 0 l 259 324 l 204 324 l 86 0 l 0 0 l 131 353 l 18 700 l 105 700 l 200 386 l 259 386"},"җ":{"ha":600,"x_min":6,"x_max":612,"o":"m 260 224 l 199 224 l 92 0 l 6 0 l 134 256 l 19 500 l 106 500 l 197 284 l 260 284 l 260 500 l 338 500 l 338 284 l 392 284 l 498 500 l 580 500 l 462 268 l 561 67 l 612 67 l 612 -120 l 544 -120 l 544 0 l 505 0 l 398 224 l 338 224 l 338 0 l 260 0 l 260 224"},"Ҙ":{"ha":600,"x_min":80,"x_max":530,"o":"m 80 24 l 80 183 l 154 183 l 154 78 b 211.4 33.0 342.3 21.4 442 202 b 451.3 263.5 393.4 321.0 285 331 l 225 331 l 225 401 l 294 401 b 363.7 409.9 410.6 447.4 421 523 b 419.1 603.1 373.0 640.7 268 642 b 242.3 642.8 196.9 637.3 160 628 l 160 529 l 86 529 l 86 678 b 112.7 694.9 174.5 708.3 282 712 b 404.2 719.7 488.7 678.4 509 540 b 518.0 492.7 475.1 417.1 378 379 l 378 375 b 560.3 314.7 574.6 151.6 449.5 40 b 412.8 12.7 350.1 -8.4 316 -9 l 316 -160 l 246 -160 l 246 -11 b 200.1 -11.0 130.5 3.7 80 24"},"ҙ":{"ha":600,"x_min":79,"x_max":526,"o":"m 107 334 l 107 453 l 106 456 b 142.4 483.5 199.0 503.6 313 510 b 421.4 510.5 491.1 474.4 505 384 b 505.6 339.5 476.3 298.1 407 268 l 407 264 b 553.5 213.1 560.6 106.2 466.5 34 b 437.7 13.6 378.8 -5.0 337 -7 l 337 -160 l 269 -160 l 269 -8 b 191.8 -3.9 118.9 25.7 79 71 l 119 134 b 141.3 98.1 194.9 68.4 310 58 b 384.6 56.8 434.2 80.1 446 145 b 457.0 182.6 412.1 219.9 298 223 l 241 223 l 241 288 l 312 288 b 368.5 290.2 411.5 315.0 424 367 b 421.5 416.8 380.6 441.2 296 443 b 259.3 444.4 208.5 434.2 175 417 l 175 334 l 107 334"},"Қ":{"ha":600,"x_min":85,"x_max":600,"o":"m 490 0 l 245 324 l 168 324 l 168 0 l 85 0 l 85 700 l 168 700 l 168 388 l 243 388 l 468 700 l 564 700 l 317 367 l 539 74 l 600 74 l 600 -120 l 530 -120 l 530 0 l 490 0"},"қ":{"ha":600,"x_min":89,"x_max":540,"o":"m 435 0 l 221 226 l 166 226 l 166 0 l 89 0 l 89 500 l 166 500 l 166 286 l 221 286 l 418 500 l 512 500 l 291 263 l 473 67 l 540 67 l 540 -120 l 472 -120 l 472 0 l 435 0"},"Ҝ":{"ha":600,"x_min":47,"x_max":587,"o":"m 184 195 l 184 324 l 130 324 l 130 0 l 47 0 l 47 700 l 130 700 l 130 388 l 184 388 l 184 505 l 250 505 l 250 388 l 275 388 l 470 700 l 566 700 l 349 367 l 587 0 l 482 0 l 277 324 l 250 324 l 250 195 l 184 195"},"ҝ":{"ha":600,"x_min":74,"x_max":558,"o":"m 558 0 l 465 0 l 301 226 l 265 226 l 265 98 l 202 98 l 202 226 l 151 226 l 151 0 l 74 0 l 74 500 l 151 500 l 151 286 l 202 286 l 202 402 l 265 402 l 265 286 l 301 286 l 448 500 l 532 500 l 371 263 l 509 67 l 558 67 l 558 0"},"Ҟ":{"ha":600,"x_min":0,"x_max":595,"o":"m 0 570 l 0 636 l 115 636 l 115 700 l 198 700 l 198 636 l 317 636 l 317 570 l 198 570 l 198 388 l 243 388 l 468 700 l 564 700 l 317 367 l 595 0 l 490 0 l 245 324 l 198 324 l 198 0 l 115 0 l 115 570 l 0 570"},"ҟ":{"ha":600,"x_min":24,"x_max":558,"o":"m 25 500 l 25 560 l 109 560 l 109 633 l 24 633 l 24 700 l 186 700 l 186 560 l 345 560 l 345 500 l 186 500 l 186 286 l 241 286 l 438 500 l 532 500 l 311 263 l 493 67 l 558 67 l 558 0 l 455 0 l 241 226 l 186 226 l 186 0 l 109 0 l 109 500 l 25 500"},"Ҡ":{"ha":600,"x_min":5,"x_max":596,"o":"m 491 0 l 246 324 l 219 324 l 219 0 l 136 0 l 136 626 l 5 626 l 5 700 l 219 700 l 219 388 l 244 388 l 469 700 l 565 700 l 318 367 l 596 0 l 491 0"},"ҡ":{"ha":600,"x_min":19,"x_max":578,"o":"m 475 0 l 261 226 l 206 226 l 206 0 l 129 0 l 129 430 l 19 430 l 19 500 l 206 500 l 206 286 l 261 286 l 458 500 l 552 500 l 331 263 l 513 67 l 578 67 l 578 0 l 475 0"},"Ң":{"ha":600,"x_min":63,"x_max":587,"o":"m 412 0 l 412 321 l 146 321 l 146 0 l 63 0 l 63 700 l 146 700 l 146 395 l 412 395 l 412 700 l 495 700 l 495 74 l 587 74 l 587 -120 l 517 -120 l 517 0 l 412 0"},"ң":{"ha":600,"x_min":70,"x_max":579,"o":"m 426 0 l 426 221 l 150 221 l 150 0 l 70 0 l 70 500 l 150 500 l 150 291 l 426 291 l 426 500 l 506 500 l 506 67 l 579 67 l 579 -120 l 511 -120 l 510 0 l 426 0"},"Ҥ":{"ha":600,"x_min":3,"x_max":597,"o":"m 597 700 l 597 626 l 405 626 l 405 0 l 322 0 l 322 321 l 86 321 l 86 0 l 3 0 l 3 700 l 86 700 l 86 395 l 322 395 l 322 700 l 597 700"},"ҥ":{"ha":600,"x_min":21,"x_max":579,"o":"m 579 500 l 579 430 l 407 430 l 407 0 l 327 0 l 327 221 l 101 221 l 101 0 l 21 0 l 21 500 l 101 500 l 101 291 l 327 291 l 327 500 l 579 500"},"Ҧ":{"ha":600,"x_min":19,"x_max":586,"o":"m 358 292 l 358 0 l 275 0 l 275 626 l 102 626 l 102 0 l 19 0 l 19 700 l 358 700 l 358 365 b 385.2 384.7 462.3 389.7 544 327 b 621.3 253.1 635.8 9.7 398 -128 q 363 -128 348 -125 l 348 -51 b 371.6 -84.2 441.4 -96.6 504 129 b 506.0 251.4 481.8 306.2 412 304 b 399.5 304.6 376.2 299.9 358 292"},"ҧ":{"ha":600,"x_min":29,"x_max":582,"o":"m 350 190 l 350 0 l 270 0 l 270 430 l 109 430 l 109 0 l 29 0 l 29 500 l 350 500 l 350 260 b 374.3 282.0 451.3 287.0 539 223.5 b 618.6 153.8 634.3 -74.8 388 -209 q 351 -209 336 -206 l 336 -136 b 358.2 -167.7 439.1 -178.7 502 35 b 470.3 229.0 383.7 235.4 350 190"},"Ҩ":{"ha":600,"x_min":15,"x_max":600,"o":"m 252 712 l 252 638 b 58.0 566.1 39.1 204.3 273 58 b 282.7 57.4 304.0 58.6 321 64 b 239.4 117.0 192.5 212.7 185 362 b 241.2 765.8 487.8 798.5 581 398 b 587.7 281.5 548.9 137.1 472 63 b 488.1 56.2 510.9 54.3 575 76 l 600 11 b 560.6 -20.3 492.5 -23.7 399 18 b 338.6 -31.8 220.4 -39.6 77.5 87 b -31.4 208.6 -50.2 511.4 252 712 m 273 354 b 269.8 258.7 303.7 166.6 402 91 b 508.1 245.8 514.5 461.3 470 544 b 438.1 653.8 338.3 676.1 273 354"},"ҩ":{"ha":600,"x_min":9,"x_max":591,"o":"m 229 512 l 229 442 b 68.0 383.9 58.7 204.1 131 115.5 b 201.0 50.0 273.8 45.4 301 68 b 200.9 157.7 190.9 297.5 252.5 420.5 b 319.2 518.5 442.8 528.0 527.5 437 b 578.2 352.6 582.0 245.4 530.5 143.5 b 517.1 115.6 483.7 78.6 449 61 b 470.6 47.0 514.0 48.4 566 87 l 591 27 b 530.1 -21.7 446.8 -27.2 373 24 b 296.5 -29.4 192.3 -34.5 69 59.5 b -33.8 148.2 -51.9 365.1 229 512 m 298 256 b 293.0 202.8 323.2 123.2 381 78 b 437.1 104.1 474.6 167.8 484 285 b 485.5 360.0 461.2 415.1 395 430 b 323.7 423.4 295.3 364.0 298 256"},"Ҫ":{"ha":600,"x_min":65,"x_max":544,"o":"m 458 517 l 458 624 b 424.0 650.1 343.4 655.5 220.5 574 b 135.7 468.0 127.1 279.0 215.5 134 b 313.0 50.1 416.5 45.5 469 79 l 469 179 l 543 179 l 543 44 l 544 42 b 518.5 18.7 453.7 -6.9 386 -11 l 386 -160 l 316 -160 l 316 -10 b 202.6 -21.1 91.7 76.3 65 350 b 71.9 590.3 167.7 707.1 366 712 b 446.0 712.2 494.0 702.0 531 675 l 532 675 l 532 517 l 458 517"},"ҫ":{"ha":600,"x_min":60,"x_max":541,"o":"m 439 328 l 439 423 b 392.8 474.8 253.5 490.2 143 250 b 143.8 137.6 203.2 73.1 340 63 b 382.7 59.6 455.6 81.2 506 121 l 541 63 b 503.5 27.9 434.8 -2.9 347 -11 l 347 -160 l 279 -160 l 279 -9 b 174.2 -12.7 78.3 67.0 60 250 b 59.9 410.9 134.9 500.0 313 512 b 381.5 513.9 462.9 496.0 512 470 l 511 467 l 511 328 l 439 328"},"Ҭ":{"ha":600,"x_min":40,"x_max":560,"o":"m 40 517 l 40 700 l 560 700 l 560 517 l 486 517 l 486 626 l 341 626 l 341 74 l 433 74 l 433 -120 l 363 -120 l 363 0 l 258 0 l 258 626 l 114 626 l 114 517 l 40 517"},"ҭ":{"ha":600,"x_min":52,"x_max":548,"o":"m 52 313 l 52 500 l 548 500 l 548 313 l 480 313 l 480 432 l 339 432 l 339 67 l 480 67 l 480 -120 l 412 -120 l 412 0 l 136 0 l 136 67 l 261 67 l 261 432 l 120 432 l 120 313 l 52 313"},"Ү":{"ha":600,"x_min":9,"x_max":591,"o":"m 259 0 l 259 268 l 9 700 l 106 700 l 306 354 l 307 354 l 502 700 l 591 700 l 342 269 l 342 0 l 259 0"},"ү":{"ha":600,"x_min":43,"x_max":557,"o":"m 135 500 l 302 97 l 313 97 l 470 500 l 557 500 l 342 -7 l 342 -200 l 262 -200 l 262 -8 l 43 500 l 135 500"},"Ұ":{"ha":600,"x_min":9,"x_max":591,"o":"m 109 223 l 109 285 l 249 285 l 9 700 l 106 700 l 306 354 l 307 354 l 502 700 l 591 700 l 351 285 l 492 285 l 492 223 l 342 223 l 342 0 l 259 0 l 259 223 l 109 223"},"ұ":{"ha":600,"x_min":43,"x_max":557,"o":"m 142 -60 l 142 0 l 258 0 l 43 500 l 135 500 l 302 97 l 313 97 l 470 500 l 557 500 l 345 0 l 462 0 l 462 -60 l 342 -60 l 342 -200 l 262 -200 l 262 -60 l 142 -60"},"Ҳ":{"ha":600,"x_min":20,"x_max":595,"o":"m 20 0 l 251 356 l 40 700 l 140 700 l 280 463 l 305 416 l 329 463 l 478 700 l 570 700 l 351 363 l 533 74 l 595 74 l 595 -120 l 525 -120 l 525 0 l 483 0 l 326 251 l 299 301 l 273 251 l 113 0 l 20 0"},"ҳ":{"ha":600,"x_min":46,"x_max":574,"o":"m 46 0 l 253 256 l 60 500 l 160 500 l 304 312 l 452 500 l 542 500 l 349 260 l 501 67 l 574 67 l 574 -120 l 506 -120 l 506 0 l 458 0 l 299 205 l 137 0 l 46 0"},"Ҵ":{"ha":600,"x_min":0,"x_max":600,"o":"m 0 626 l 0 700 l 378 700 l 378 626 l 232 626 l 232 74 l 434 74 l 434 700 l 517 700 l 517 74 l 600 74 l 600 -141 l 530 -141 l 530 0 l 149 0 l 149 626 l 0 626"},"ҵ":{"ha":600,"x_min":7,"x_max":593,"o":"m 593 70 l 593 -127 l 525 -127 l 525 0 l 154 0 l 154 430 l 7 430 l 7 500 l 374 500 l 374 430 l 234 430 l 234 70 l 441 70 l 441 500 l 521 500 l 521 70 l 593 70"},"Ҷ":{"ha":600,"x_min":32,"x_max":568,"o":"m 32 700 l 115 700 l 115 468 b 174.5 290.1 311.5 302.5 394 377 l 394 700 l 477 700 l 477 74 l 568 74 l 568 -120 l 498 -120 l 498 0 l 394 0 l 394 302 b 303.2 247.7 175.5 239.2 85 298.5 b 60.2 313.1 34.4 369.5 32 453 l 32 700"},"ҷ":{"ha":600,"x_min":90,"x_max":569,"o":"m 90 500 l 167 500 l 167 367 b 159.1 295.4 180.9 250.9 269 243 b 320.1 241.5 381.5 257.4 410 279 l 410 500 l 488 500 l 488 67 l 569 67 l 569 -120 l 501 -120 l 501 0 l 410 0 l 410 212 b 343.4 168.1 210.2 160.4 131.5 214.5 b 111.2 228.3 91.5 281.0 90 361 l 90 500"},"Ҹ":{"ha":600,"x_min":73,"x_max":526,"o":"m 269 145 l 269 257 b 152.1 247.9 83.4 295.4 73 453 l 73 700 l 156 700 l 156 468 q 156 337 269 331 l 269 455 l 335 455 l 335 335 b 364.0 338.0 410.3 354.0 443 377 l 443 700 l 526 700 l 526 0 l 443 0 l 443 302 b 428.8 292.0 386.9 275.6 335 264 l 335 145 l 269 145"},"ҹ":{"ha":600,"x_min":90,"x_max":488,"o":"m 90 500 l 167 500 l 167 367 b 160.5 295.4 183.8 250.9 260 243 l 260 373 l 323 373 l 323 246 b 336.3 245.9 371.9 256.4 410 279 l 410 500 l 488 500 l 488 0 l 410 0 l 410 212 b 389.9 199.9 344.8 182.8 323 180 l 323 68 l 260 68 l 260 176 l 256 176 b 151.1 166.4 95.9 211.4 90 361 l 90 500"},"Һ":{"ha":600,"x_min":77,"x_max":523,"o":"m 523 0 l 440 0 l 440 232 b 380.6 409.9 242.4 397.5 160 323 l 160 0 l 77 0 l 77 700 l 160 700 l 160 398 b 251.6 452.3 378.3 460.8 470 401.5 b 494.8 386.9 520.6 330.5 523 247 l 523 0"},"һ":{"ha":600,"x_min":4,"x_max":525,"o":"m 4 633 l 4 700 l 160 700 l 160 438 l 165 438 b 254.6 527.9 391.3 535.9 480.5 467 b 502.7 451.5 523.6 387.3 525 288 l 525 0 l 447 0 l 447 273 b 455.6 380.7 425.9 438.4 319 445 b 246.1 443.5 189.7 405.4 160 318 l 160 0 l 83 0 l 83 633 l 4 633"},"Ҽ":{"ha":600,"x_min":8,"x_max":582,"o":"m 572 318 l 237 318 b 238.7 154.4 280.3 69.3 408 62 b 449.4 59.3 507.8 82.6 545 118 l 582 61 b 506.5 -71.9 295.6 -102.2 153 318 l 136 318 b -14.1 365.1 -20.9 470.5 36 518 l 114 518 b 75.1 472.2 72.4 434.6 92.5 405.5 b 96.6 395.9 112.9 385.8 138 386 l 153 387 b 232.9 762.9 446.1 786.5 538 636.5 b 573.3 591.5 590.6 471.9 572 318 m 236 388 l 494 388 b 501.6 407.0 503.5 463.6 479 581 b 444.8 689.8 316.1 709.8 236 388"},"ҽ":{"ha":600,"x_min":17,"x_max":577,"o":"m 530 97 l 560 40 b 466.8 -28.9 332.7 -36.7 222 57 b 195.5 81.8 170.1 152.7 167 241 l 155 241 b 65.7 243.6 20.0 281.0 17 361 b 14.1 387.6 27.3 423.2 58 454 l 136 454 b 82.1 405.5 77.2 347.2 104 325.5 b 116.0 311.9 150.8 302.7 170 307 b 260.5 542.9 434.6 557.0 516 476 b 559.4 451.8 588.1 355.1 571 242 l 250 242 b 245.2 130.2 286.3 67.1 411 58 b 442.8 56.0 498.4 71.7 530 97 m 388 442 b 330.5 452.5 266.6 412.4 251 305 l 499 305 b 506.1 379.8 467.4 440.5 388 442"},"Ҿ":{"ha":600,"x_min":8,"x_max":582,"o":"m 572 318 l 237 318 b 238.7 154.4 280.3 69.3 408 62 b 449.4 59.3 507.8 82.6 545 118 l 582 61 b 563.5 34.8 505.5 0.2 426 -11 l 426 -160 l 356 -160 l 356 -9 b 261.9 -16.7 168.2 90.2 153 318 l 136 318 b -14.1 365.1 -20.9 470.5 36 518 l 114 518 b 75.1 472.2 72.4 434.6 92.5 405.5 b 96.6 395.9 112.9 385.8 138 386 l 153 387 b 232.9 762.9 446.1 786.5 538 636.5 b 573.3 591.5 590.6 471.9 572 318 m 236 388 l 494 388 b 501.6 407.0 503.5 463.6 479 581 b 444.8 689.8 316.1 709.8 236 388"},"ҿ":{"ha":600,"x_min":17,"x_max":577,"o":"m 530 97 l 560 40 b 540.0 19.8 483.4 -2.7 417 -10 l 417 -160 l 349 -160 l 349 -9 b 258.2 -11.9 173.8 81.0 167 241 l 155 241 b 65.7 243.6 20.0 281.0 17 361 b 14.1 387.6 27.3 423.2 58 454 l 136 454 b 82.1 405.5 77.2 347.2 104 325.5 b 116.0 311.9 150.8 302.7 170 307 b 260.5 542.9 434.6 557.0 516 476 b 559.4 451.8 588.1 355.1 571 242 l 250 242 b 245.2 130.2 286.3 67.1 411 58 b 442.8 56.0 498.4 71.7 530 97 m 388 442 b 330.5 452.5 266.6 412.4 251 305 l 499 305 b 506.1 379.8 467.4 440.5 388 442"},"Ӏ":{"ha":600,"x_min":60,"x_max":540,"o":"m 60 626 l 60 700 l 540 700 l 540 626 l 341 626 l 341 74 l 540 74 l 540 0 l 60 0 l 60 74 l 258 74 l 258 626 l 60 626"},"Ӄ":{"ha":600,"x_min":85,"x_max":564,"o":"m 456 71 b 471.7 205.0 398.6 319.3 230 324 l 168 324 l 168 0 l 85 0 l 85 700 l 168 700 l 168 388 l 243 388 l 468 700 l 564 700 l 323 375 q 539 354 539 74 l 539 56 b 539.0 -121.8 481.1 -208.1 344 -211 b 338.2 -211.2 327.8 -211.2 316 -210 l 316 -137 b 412.1 -144.6 456.2 -92.1 456 71"},"ӄ":{"ha":600,"x_min":109,"x_max":532,"o":"m 448 16 b 462.1 119.8 386.8 212.2 230 216 l 186 216 l 186 0 l 109 0 l 109 500 l 186 500 l 186 276 l 241 276 l 438 500 l 532 500 l 321 265 b 477.4 241.3 536.6 157.4 528 25 b 525.9 -133.6 459.2 -211.2 311 -214 b 303.8 -214.3 275.7 -214.5 257 -212 l 257 -143 b 270.5 -149.9 318.1 -152.3 409.5 -109.5 b 428.8 -97.5 446.8 -52.3 448 16"},"Ӆ":{"ha":600,"x_min":3,"x_max":617,"o":"m 441 0 l 441 626 l 252 626 b 229.5 135.4 164.4 -40.7 59 -5 b 42.9 -5.7 21.0 -2.4 3 5 l 14 77 b 39.9 54.0 83.6 73.5 127.5 198 b 145.6 238.3 163.9 384.3 174 700 l 524 700 l 524 70 l 617 70 l 546 -130 l 472 -130 l 517 0 l 441 0"},"ӆ":{"ha":600,"x_min":20,"x_max":590,"o":"m 406 0 l 406 432 l 233 432 b 238.7 189.0 206.6 30.3 71 -4 b 53.4 -4.7 36.9 -2.1 20 5 l 33 79 b 81.1 53.1 114.6 74.0 139.5 199.5 b 146.5 233.0 155.2 343.4 160 500 l 484 500 l 484 67 l 590 67 l 519 -130 l 445 -130 l 490 0 l 406 0"},"Ӈ":{"ha":600,"x_min":69,"x_max":531,"o":"m 531 700 l 531 -27 b 483.0 -236.1 372.7 -245.3 367 -210 l 367 -140 b 432.2 -143.7 454.1 -105.4 448 0 l 448 321 l 152 321 l 152 0 l 69 0 l 69 700 l 152 700 l 152 395 l 448 395 l 448 700 l 531 700"},"ӈ":{"ha":600,"x_min":82,"x_max":518,"o":"m 438 0 l 438 221 l 162 221 l 162 0 l 82 0 l 82 500 l 162 500 l 162 291 l 438 291 l 438 500 l 518 500 l 518 -27 b 469.0 -236.1 358.4 -245.1 354 -210 l 354 -142 b 418.8 -145.0 442.9 -106.4 438 0"},"Ӊ":{"ha":600,"x_min":57,"x_max":603,"o":"m 416 0 l 416 321 l 140 321 l 140 0 l 57 0 l 57 700 l 140 700 l 140 395 l 416 395 l 416 700 l 499 700 l 499 70 l 603 70 l 532 -130 l 458 -130 l 503 0 l 416 0"},"ӊ":{"ha":600,"x_min":68,"x_max":597,"o":"m 414 0 l 414 222 l 145 222 l 145 0 l 68 0 l 68 500 l 145 500 l 145 292 l 414 292 l 414 500 l 492 500 l 492 67 l 597 67 l 526 -130 l 452 -130 l 497 0 l 414 0"},"Ӌ":{"ha":600,"x_min":77,"x_max":522,"o":"m 77 700 l 160 700 l 160 468 b 219.5 290.1 356.5 302.5 439 377 l 439 700 l 522 700 l 522 0 l 417 0 l 417 -120 l 347 -120 l 347 74 l 439 74 l 439 302 b 348.2 247.7 220.5 239.2 130 298.5 b 105.2 313.1 79.4 369.5 77 453 l 77 700"},"ӌ":{"ha":600,"x_min":90,"x_max":488,"o":"m 90 500 l 167 500 l 167 367 b 159.1 295.4 180.9 250.9 269 243 b 320.1 241.5 381.5 257.4 410 279 l 410 500 l 488 500 l 488 0 l 393 0 l 393 -120 l 325 -120 l 325 64 l 410 64 l 410 212 b 343.4 168.1 210.2 160.4 131.5 214.5 b 111.2 228.3 91.5 281.0 90 361 l 90 500"},"Ӎ":{"ha":600,"x_min":40,"x_max":624,"o":"m 437 0 l 437 465 l 447 560 l 442 560 l 394 474 l 292 303 l 267 303 l 160 475 l 114 560 l 109 560 l 121 466 l 121 0 l 40 0 l 40 700 l 117 700 l 283 434 l 285 434 l 445 700 l 520 700 l 520 70 l 624 70 l 553 -130 l 479 -130 l 524 0 l 437 0"},"ӎ":{"ha":600,"x_min":64,"x_max":641,"o":"m 458 0 l 458 297 l 460 368 l 455 368 l 311 139 l 283 139 l 137 368 l 133 368 l 138 298 l 138 0 l 64 0 l 64 500 l 143 500 l 302 249 l 304 249 l 456 500 l 536 500 l 536 67 l 641 67 l 570 -130 l 496 -130 l 541 0 l 458 0"},"ӏ":{"ha":600,"x_min":120,"x_max":478,"o":"m 120 633 l 120 700 l 340 700 l 340 67 l 478 67 l 478 0 l 260 0 l 260 633 l 120 633"},"Ӑ":{"ha":600,"x_min":16,"x_max":584,"o":"m 497 0 l 431 194 l 162 194 l 98 0 l 16 0 l 250 700 l 348 700 l 584 0 l 497 0 m 293 595 l 188 266 l 408 266 l 305 595 l 293 595 m 130 850 l 209 870 b 240.8 771.5 341.3 762.3 393 869 l 464 852 b 409.4 703.4 229.1 687.5 130 850"},"ӑ":{"ha":600,"x_min":75,"x_max":545,"o":"m 133 403 l 108 461 b 239.3 523.9 372.9 528.9 445.5 450.5 b 483.0 386.0 483.4 300.3 472 160 q 472 110 478 65 l 545 65 l 545 0 l 412 0 l 403 75 l 398 75 b 387.6 43.6 344.0 7.5 235 -9 b 43.1 34.0 27.0 183.9 162 270 b 193.6 289.3 284.3 298.2 397 283 b 412.8 393.9 386.7 442.5 292 441 b 251.7 442.5 184.5 425.1 133 403 m 255 58 b 327.5 63.5 374.8 97.5 397 152 l 397 222 b 259.9 247.9 173.9 229.6 157 140 b 149.6 106.9 178.8 64.2 255 58 m 153 678 l 221 702 b 262.4 594.3 344.0 586.4 403 701 l 463 682 b 393.4 543.0 275.3 534.4 209 590 b 188.8 599.8 162.8 632.8 153 678"},"Ӓ":{"ha":600,"x_min":16,"x_max":584,"o":"m 497 0 l 431 194 l 162 194 l 98 0 l 16 0 l 250 700 l 348 700 l 584 0 l 497 0 m 293 595 l 188 266 l 408 266 l 305 595 l 293 595 m 125 800 b 145.3 865.8 215.2 872.6 249 800 b 228.9 735.3 159.5 728.8 125 800 m 350 800 b 369.2 865.8 439.2 872.6 473 800 b 453.5 735.3 382.6 728.8 350 800"},"ӓ":{"ha":600,"x_min":75,"x_max":545,"o":"m 133 403 l 108 461 b 239.3 523.9 372.9 528.9 445.5 450.5 b 483.0 386.0 483.4 300.3 472 160 q 472 110 478 65 l 545 65 l 545 0 l 412 0 l 403 75 l 398 75 b 387.6 43.6 344.0 7.5 235 -9 b 43.1 34.0 27.0 183.9 162 270 b 193.6 289.3 284.3 298.2 397 283 b 412.8 393.9 386.7 442.5 292 441 b 251.7 442.5 184.5 425.1 133 403 m 255 58 b 327.5 63.5 374.8 97.5 397 152 l 397 222 b 259.9 247.9 173.9 229.6 157 140 b 149.6 106.9 178.8 64.2 255 58 m 139 626 b 156.4 700.6 221.8 708.3 253 626 b 234.6 554.4 169.3 546.7 139 626 m 362 626 b 379.2 700.6 444.3 708.3 477 626 b 457.6 554.4 391.7 546.7 362 626"},"Ӕ":{"ha":600,"x_min":20,"x_max":569,"o":"m 306 552 l 304 552 l 283 486 l 201 263 l 306 263 l 306 552 m 306 0 l 306 191 l 176 191 l 103 0 l 20 0 l 294 700 l 566 700 l 566 625 l 386 625 l 386 397 l 549 397 l 549 322 l 386 322 l 386 75 l 569 75 l 569 0 l 306 0"},"ӕ":{"ha":600,"x_min":29,"x_max":571,"o":"m 175 59 b 205.9 55.7 246.5 79.4 261 120 l 261 225 b 247.3 225.8 225.0 227.2 206 227 b 150.4 234.1 112.4 217.5 103 145 b 97.7 110.0 119.9 65.3 175 59 m 287 65 l 283 65 b 224.8 -40.3 93.6 -53.1 29 138 b 30.6 243.1 81.1 291.6 192 291 b 208.5 291.3 235.6 290.1 260 289 b 266.9 318.0 268.6 363.2 233.5 419.5 b 203.3 449.6 153.8 452.2 74 407 l 55 465 b 137.7 516.3 212.2 519.3 257 492 b 273.2 486.3 295.5 468.9 305 445 b 331.5 488.9 373.6 511.5 428 512 b 496.3 523.9 553.0 481.0 571 326 b 571.4 309.1 570.2 267.0 566 229 l 325 229 b 373.2 27.7 465.9 22.4 493.5 63.5 b 505.3 66.3 522.2 74.0 531 82 l 555 26 b 479.0 -19.1 399.2 -23.1 344 7.5 b 326.2 14.3 300.8 36.2 287 65 m 428 445 b 378.3 448.2 340.8 406.4 327 294 l 502 294 l 502 312 b 505.5 378.2 474.7 440.7 428 445"},"Ӗ":{"ha":600,"x_min":107,"x_max":523,"o":"m 107 0 l 107 700 l 518 700 l 518 626 l 190 626 l 190 397 l 493 397 l 493 323 l 190 323 l 190 74 l 523 74 l 523 0 l 107 0 m 129 850 l 208 870 b 239.8 771.5 340.3 762.3 392 869 l 463 852 b 408.4 703.4 228.1 687.5 129 850"},"ӗ":{"ha":600,"x_min":63,"x_max":537,"o":"m 498 120 l 529 63 b 482.0 20.0 411.7 -7.1 309 -12 b 156.7 -11.2 73.2 67.3 63 250 b 62.9 410.9 137.9 500.0 316 512 b 435.4 529.9 521.2 467.8 532 237 l 145 237 b 211.6 31.4 361.1 21.7 427 80 b 449.5 87.8 480.9 105.1 498 120 m 318 446 b 230.3 451.8 170.5 416.7 148 307 l 459 307 b 462.1 372.5 410.5 439.8 318 446 m 154 678 l 222 702 b 263.4 594.3 345.0 586.4 404 701 l 464 682 b 394.4 543.0 276.3 534.4 210 590 b 189.8 599.8 163.8 632.8 154 678"},"Ә":{"ha":600,"x_min":55,"x_max":535,"o":"m 452 322 l 142 322 b 131.6 304.9 128.9 246.5 174.5 123 b 222.5 8.5 364.7 -13.9 452 322 m 65 392 l 452 392 b 384.7 673.3 228.8 684.5 177.5 624 b 158.7 619.0 130.2 608.0 112 597 l 91 664 b 188.6 729.2 341.9 740.1 468.5 627.5 b 583.1 507.9 603.5 187.0 288 -12 b 148.1 -11.3 67.1 74.1 55 279 b 54.3 300.7 57.6 345.7 65 392"},"ә":{"ha":600,"x_min":58,"x_max":537,"o":"m 111 380 l 78 442 b 197.5 531.2 354.2 540.5 474 440.5 b 555.8 341.8 563.6 189.8 469 56 b 368.4 -30.7 239.7 -39.4 124.5 53 b 90.7 76.2 58.3 159.7 68 283 l 455 283 b 386.0 461.8 237.8 474.8 177.5 420 b 157.5 412.2 128.1 394.9 111 380 m 302 54 b 375.9 50.6 433.7 93.5 452 213 l 145 213 b 144.1 123.2 189.1 65.5 302 54"},"Ӛ":{"ha":600,"x_min":55,"x_max":535,"o":"m 452 322 l 142 322 b 131.6 304.9 128.9 246.5 174.5 123 b 222.5 8.5 364.7 -13.9 452 322 m 65 392 l 452 392 b 384.7 673.3 228.8 684.5 177.5 624 b 158.7 619.0 130.2 608.0 112 597 l 91 664 b 188.6 729.2 341.9 740.1 468.5 627.5 b 583.1 507.9 603.5 187.0 288 -12 b 148.1 -11.3 67.1 74.1 55 279 b 54.3 300.7 57.6 345.7 65 392 m 109 800 b 129.3 865.8 199.2 872.6 233 800 b 212.9 735.3 143.5 728.8 109 800 m 334 800 b 353.2 865.8 423.2 872.6 457 800 b 437.5 735.3 366.6 728.8 334 800"},"ӛ":{"ha":600,"x_min":58,"x_max":537,"o":"m 111 380 l 78 442 b 197.5 531.2 354.2 540.5 474 440.5 b 555.8 341.8 563.6 189.8 469 56 b 368.4 -30.7 239.7 -39.4 124.5 53 b 90.7 76.2 58.3 159.7 68 283 l 455 283 b 386.0 461.8 237.8 474.8 177.5 420 b 157.5 412.2 128.1 394.9 111 380 m 302 54 b 375.9 50.6 433.7 93.5 452 213 l 145 213 b 144.1 123.2 189.1 65.5 302 54 m 124 626 b 141.4 700.6 206.8 708.3 238 626 b 219.6 554.4 154.3 546.7 124 626 m 347 626 b 364.2 700.6 429.3 708.3 462 626 b 442.6 554.4 376.7 546.7 347 626"},"Ӝ":{"ha":600,"x_min":0,"x_max":600,"o":"m 259 386 l 259 700 l 339 700 l 339 386 l 389 386 l 499 700 l 581 700 l 460 358 l 600 0 l 508 0 l 391 324 l 339 324 l 339 0 l 259 0 l 259 324 l 204 324 l 86 0 l 0 0 l 131 353 l 18 700 l 105 700 l 200 386 l 259 386 m 123 800 b 143.3 865.8 213.2 872.6 247 800 b 226.9 735.3 157.5 728.8 123 800 m 348 800 b 367.2 865.8 437.2 872.6 471 800 b 451.5 735.3 380.6 728.8 348 800"},"ӝ":{"ha":600,"x_min":6,"x_max":594,"o":"m 260 224 l 199 224 l 92 0 l 6 0 l 134 256 l 19 500 l 106 500 l 197 284 l 260 284 l 260 500 l 338 500 l 338 284 l 392 284 l 498 500 l 580 500 l 462 268 l 594 0 l 505 0 l 398 224 l 338 224 l 338 0 l 260 0 l 260 224 m 125 626 b 142.4 700.6 207.8 708.3 239 626 b 220.6 554.4 155.3 546.7 125 626 m 348 626 b 365.2 700.6 430.3 708.3 463 626 b 443.6 554.4 377.7 546.7 348 626"},"Ӟ":{"ha":600,"x_min":80,"x_max":530,"o":"m 80 25 l 80 183 l 154 183 l 154 78 b 211.4 33.0 342.3 21.4 442 202 b 451.3 263.5 393.4 321.0 285 331 l 225 331 l 225 401 l 294 401 b 363.7 409.9 410.6 447.4 421 523 b 419.1 603.1 373.0 640.7 268 642 b 242.3 642.8 196.9 637.3 160 628 l 160 529 l 86 529 l 86 677 l 86 678 b 112.7 694.9 174.5 708.3 282 712 b 404.2 719.7 488.7 678.4 509 540 b 518.0 492.7 475.1 417.1 378 379 l 378 375 b 560.3 314.7 574.6 151.6 449.5 40 b 350.8 -24.9 208.6 -28.1 80 24 l 80 25 m 125 800 b 145.3 865.8 215.2 872.6 249 800 b 228.9 735.3 159.5 728.8 125 800 m 350 800 b 369.2 865.8 439.2 872.6 473 800 b 453.5 735.3 382.6 728.8 350 800"},"ӟ":{"ha":600,"x_min":79,"x_max":526,"o":"m 107 334 l 107 453 l 106 456 b 142.4 483.5 199.0 503.6 313 510 b 421.4 510.5 491.1 474.4 505 384 b 505.6 339.5 476.3 298.1 407 268 l 407 264 b 553.5 213.1 560.6 106.2 466.5 34 b 373.8 -18.4 244.8 -22.7 152.5 19 b 127.6 29.3 95.7 51.5 79 71 l 119 134 b 141.3 98.1 194.9 68.4 310 58 b 384.6 56.8 434.2 80.1 446 145 b 457.0 182.6 412.1 219.9 298 223 l 241 223 l 241 288 l 312 288 b 368.5 290.2 411.5 315.0 424 367 b 421.5 416.8 380.6 441.2 296 443 b 259.3 444.4 208.5 434.2 175 417 l 175 334 l 107 334 m 120 626 b 137.4 700.6 202.8 708.3 234 626 b 215.6 554.4 150.3 546.7 120 626 m 343 626 b 360.2 700.6 425.3 708.3 458 626 b 438.6 554.4 372.7 546.7 343 626"},"Ӡ":{"ha":600,"x_min":65,"x_max":558,"o":"m 67 517 l 67 700 l 512 700 l 512 647 l 321 407 l 331 407 b 462.7 406.9 543.5 350.1 558 213 b 553.9 76.2 470.6 -1.5 289 -12 b 211.4 -14.6 111.9 14.4 65 53 l 65 211 l 139 211 l 139 95 b 220.4 53.0 330.3 47.5 423.5 100.5 b 516.7 149.6 532.6 270.6 277 341 l 219 341 l 219 396 l 401 626 l 141 626 l 141 517 l 67 517"},"ӡ":{"ha":600,"x_min":98,"x_max":539,"o":"m 98 313 l 98 500 l 493 500 l 493 428 l 314 197 l 330 197 b 449.8 196.6 524.7 142.1 539 12 b 536.9 -126.0 462.4 -202.8 293 -212 b 226.3 -211.4 161.7 -190.7 99 -144 l 100 -142 l 100 0 l 168 0 l 168 -103 b 238.0 -170.4 371.2 -182.5 461 3 b 471.8 71.0 406.6 128.7 282 131 l 218 131 l 218 179 l 397 428 l 166 428 l 166 313 l 98 313"},"Ӣ":{"ha":600,"x_min":60,"x_max":540,"o":"m 457 0 l 457 464 l 463 564 l 457 564 l 399 452 l 139 0 l 60 0 l 60 700 l 143 700 l 143 230 l 138 131 l 144 131 l 201 243 l 461 700 l 540 700 l 540 0 l 457 0 m 146 781 l 146 843 l 462 843 l 462 781 l 146 781"},"ӣ":{"ha":600,"x_min":85,"x_max":515,"o":"m 437 0 l 437 314 l 440 380 l 437 380 l 156 0 l 85 0 l 85 500 l 163 500 l 163 177 l 160 114 l 164 114 l 443 500 l 515 500 l 515 0 l 437 0 m 157 581 l 157 643 l 453 643 l 453 581 l 157 581"},"Ӥ":{"ha":600,"x_min":60,"x_max":540,"o":"m 457 0 l 457 464 l 463 564 l 457 564 l 399 452 l 139 0 l 60 0 l 60 700 l 143 700 l 143 230 l 138 131 l 144 131 l 201 243 l 461 700 l 540 700 l 540 0 l 457 0 m 130 800 b 150.3 865.8 220.2 872.6 254 800 b 233.9 735.3 164.5 728.8 130 800 m 355 800 b 374.2 865.8 444.2 872.6 478 800 b 458.5 735.3 387.6 728.8 355 800"},"ӥ":{"ha":600,"x_min":85,"x_max":515,"o":"m 437 0 l 437 314 l 440 380 l 437 380 l 156 0 l 85 0 l 85 500 l 163 500 l 163 177 l 160 114 l 164 114 l 443 500 l 515 500 l 515 0 l 437 0 m 139 626 b 156.4 700.6 221.8 708.3 253 626 b 234.6 554.4 169.3 546.7 139 626 m 362 626 b 379.2 700.6 444.3 708.3 477 626 b 457.6 554.4 391.7 546.7 362 626"},"Ӧ":{"ha":600,"x_min":48,"x_max":552,"o":"m 48 350 b 120.2 771.3 376.6 798.4 496 612.5 b 600.9 491.1 620.6 189.7 299 -12 b 129.8 -10.0 49.0 98.6 48 350 m 136 350 b 127.6 193.7 167.3 87.6 299 62 b 492.0 147.7 501.3 419.5 430 551.5 b 375.5 694.0 218.3 720.0 136 350 m 126 800 b 146.3 865.8 216.2 872.6 250 800 b 229.9 735.3 160.5 728.8 126 800 m 351 800 b 370.2 865.8 440.2 872.6 474 800 b 454.5 735.3 383.6 728.8 351 800"},"ӧ":{"ha":600,"x_min":57,"x_max":543,"o":"m 57 250 b 134.8 553.4 371.4 575.2 484 436 b 560.9 335.8 567.8 193.2 480 59 b 388.8 -32.7 240.7 -41.4 116 64 b 86.4 91.3 58.8 165.0 57 250 m 140 250 b 134.2 150.9 175.1 75.7 300 55 b 487.2 117.7 498.1 294.9 424.5 383 b 371.4 483.2 224.7 500.6 140 250 m 130 626 b 147.4 700.6 212.8 708.3 244 626 b 225.6 554.4 160.3 546.7 130 626 m 353 626 b 370.2 700.6 435.3 708.3 468 626 b 448.6 554.4 382.7 546.7 353 626"},"Ө":{"ha":600,"x_min":48,"x_max":552,"o":"m 48 350 b 120.2 771.3 376.6 798.4 496 612.5 b 600.9 491.1 620.6 189.7 299 -12 b 129.8 -10.0 49.0 98.6 48 350 m 299 62 b 378.4 44.1 453.0 126.3 463 318 l 136 318 b 133.8 176.4 174.6 83.5 299 62 m 299 638 b 222.6 655.1 148.7 575.4 137 392 l 463 392 b 462.7 527.8 421.9 617.7 299 638"},"ө":{"ha":600,"x_min":57,"x_max":543,"o":"m 57 250 b 134.8 553.4 371.4 575.2 484 436 b 560.9 335.8 567.8 193.2 480 59 b 388.8 -32.7 240.7 -41.4 116 64 b 86.4 91.3 58.8 165.0 57 250 m 300 445 q 153 445 141 281 l 459 281 b 454.7 367.8 412.3 428.8 300 445 m 300 55 b 370.3 44.2 443.5 98.5 459 217 l 141 217 b 145.3 131.0 187.7 70.3 300 55"},"Ӫ":{"ha":600,"x_min":48,"x_max":552,"o":"m 48 350 b 120.2 771.3 376.6 798.4 496 612.5 b 600.9 491.1 620.6 189.7 299 -12 b 129.8 -10.0 49.0 98.6 48 350 m 299 62 b 378.4 44.1 453.0 126.3 463 318 l 136 318 b 133.8 176.4 174.6 83.5 299 62 m 299 638 b 222.6 655.1 148.7 575.4 137 392 l 463 392 b 462.7 527.8 421.9 617.7 299 638 m 126 800 b 146.3 865.8 216.2 872.6 250 800 b 229.9 735.3 160.5 728.8 126 800 m 351 800 b 370.2 865.8 440.2 872.6 474 800 b 454.5 735.3 383.6 728.8 351 800"},"ӫ":{"ha":600,"x_min":57,"x_max":543,"o":"m 57 250 b 134.8 553.4 371.4 575.2 484 436 b 560.9 335.8 567.8 193.2 480 59 b 388.8 -32.7 240.7 -41.4 116 64 b 86.4 91.3 58.8 165.0 57 250 m 300 445 q 153 445 141 281 l 459 281 b 454.7 367.8 412.3 428.8 300 445 m 300 55 b 370.3 44.2 443.5 98.5 459 217 l 141 217 b 145.3 131.0 187.7 70.3 300 55 m 130 626 b 147.4 700.6 212.8 708.3 244 626 b 225.6 554.4 160.3 546.7 130 626 m 353 626 b 370.2 700.6 435.3 708.3 468 626 b 448.6 554.4 382.7 546.7 353 626"},"Ӭ":{"ha":600,"x_min":60,"x_max":540,"o":"m 76 525 l 76 670 l 75 673 b 162.5 729.8 304.1 738.4 458.5 628.5 b 564.2 495.6 574.8 255.0 448.5 70.5 b 307.4 -26.0 183.2 -29.9 129.5 3.5 b 108.5 9.2 77.4 21.1 60 31 l 60 179 l 134 179 l 134 79 b 188.1 46.8 275.9 40.5 390 117 b 419.9 137.6 453.2 212.2 457 321 l 209 321 l 209 395 l 456 395 b 448.7 555.6 381.6 636.3 239 642 b 215.9 642.6 179.6 637.9 150 630 l 150 525 l 76 525 m 83 800 b 103.3 865.8 173.2 872.6 207 800 b 186.9 735.3 117.5 728.8 83 800 m 308 800 b 327.2 865.8 397.2 872.6 431 800 b 411.5 735.3 340.6 728.8 308 800"},"ӭ":{"ha":600,"x_min":75,"x_max":541,"o":"m 101 353 l 101 475 l 103 475 b 198.7 528.0 345.6 534.6 472 441 b 561.4 342.0 570.3 190.7 465 56.5 b 349.8 -23.4 237.4 -28.2 163.5 6.5 b 138.2 12.9 99.9 31.9 75 55 l 108 117 b 201.8 47.8 315.0 38.5 401.5 97 b 427.9 111.2 457.6 157.2 461 219 l 224 219 l 224 285 l 460 285 b 454.1 375.8 398.3 433.7 268 445 b 242.0 446.1 200.7 440.0 169 428 l 169 353 l 101 353 m 117 626 b 134.4 700.6 199.8 708.3 231 626 b 212.6 554.4 147.3 546.7 117 626 m 340 626 b 357.2 700.6 422.3 708.3 455 626 b 435.6 554.4 369.7 546.7 340 626"},"Ӯ":{"ha":600,"x_min":30,"x_max":570,"o":"m 126 700 l 299 284 l 363 284 l 485 700 l 570 700 l 428 245 b 385.0 75.7 332.7 -4.0 235 -5 b 205.0 -6.5 170.6 0.8 146 17 l 171 86 b 212.3 43.0 260.9 32.8 336 210 l 246 211 l 30 700 l 126 700 m 142 781 l 142 843 l 458 843 l 458 781 l 142 781"},"ӯ":{"ha":600,"x_min":46,"x_max":554,"o":"m 136 500 l 311 77 l 349 77 l 473 500 l 554 500 l 415 51 b 405.0 -59.7 362.0 -164.7 209 -205 b 173.1 -203.4 137.1 -192.6 109 -172 l 137 -100 b 156.2 -114.2 187.7 -123.9 221 -127 q 296 -127 323 0 l 256 0 l 46 500 l 136 500 m 183 581 l 183 643 l 479 643 l 479 581 l 183 581"},"Ӱ":{"ha":600,"x_min":30,"x_max":570,"o":"m 126 700 l 299 284 l 363 284 l 485 700 l 570 700 l 428 245 b 385.0 75.7 332.7 -4.0 235 -5 b 205.0 -6.5 170.6 0.8 146 17 l 171 86 b 212.3 43.0 260.9 32.8 336 210 l 246 211 l 30 700 l 126 700 m 133 800 b 153.3 865.8 223.2 872.6 257 800 b 236.9 735.3 167.5 728.8 133 800 m 358 800 b 377.2 865.8 447.2 872.6 481 800 b 461.5 735.3 390.6 728.8 358 800"},"ӱ":{"ha":600,"x_min":46,"x_max":554,"o":"m 136 500 l 311 77 l 349 77 l 473 500 l 554 500 l 415 51 b 405.0 -59.7 362.0 -164.7 209 -205 b 173.1 -203.4 137.1 -192.6 109 -172 l 137 -100 b 156.2 -114.2 187.7 -123.9 221 -127 q 296 -127 323 0 l 256 0 l 46 500 l 136 500 m 141 626 b 158.4 700.6 223.8 708.3 255 626 b 236.6 554.4 171.3 546.7 141 626 m 364 626 b 381.2 700.6 446.3 708.3 479 626 b 459.6 554.4 393.7 546.7 364 626"},"Ӳ":{"ha":600,"x_min":30,"x_max":570,"o":"m 126 700 l 299 284 l 363 284 l 485 700 l 570 700 l 428 245 b 385.0 75.7 332.7 -4.0 235 -5 b 205.0 -6.5 170.6 0.8 146 17 l 171 86 b 212.3 43.0 260.9 32.8 336 210 l 246 211 l 30 700 l 126 700 m 180 741 l 244 850 l 337 850 l 337 834 l 237 741 l 180 741 m 304 741 l 406 850 l 505 850 l 505 834 l 362 741 l 304 741"},"ӳ":{"ha":600,"x_min":46,"x_max":554,"o":"m 136 500 l 311 77 l 349 77 l 473 500 l 554 500 l 415 51 b 405.0 -59.7 362.0 -164.7 209 -205 b 173.1 -203.4 137.1 -192.6 109 -172 l 137 -100 b 156.2 -114.2 187.7 -123.9 221 -127 q 296 -127 323 0 l 256 0 l 46 500 l 136 500 m 225 571 l 260 720 l 346 720 l 267 571 l 225 571 m 333 571 l 406 720 l 509 720 l 378 571 l 333 571"},"Ӵ":{"ha":600,"x_min":82,"x_max":527,"o":"m 82 700 l 165 700 l 165 468 b 224.5 290.1 361.5 302.5 444 377 l 444 700 l 527 700 l 527 0 l 444 0 l 444 302 b 353.2 247.7 225.5 239.2 135 298.5 b 110.2 313.1 84.4 369.5 82 453 l 82 700 m 139 800 b 159.3 865.8 229.2 872.6 263 800 b 242.9 735.3 173.5 728.8 139 800 m 364 800 b 383.2 865.8 453.2 872.6 487 800 b 467.5 735.3 396.6 728.8 364 800"},"ӵ":{"ha":600,"x_min":90,"x_max":488,"o":"m 90 500 l 167 500 l 167 367 b 159.1 295.4 180.9 250.9 269 243 b 320.1 241.5 381.5 257.4 410 279 l 410 500 l 488 500 l 488 0 l 410 0 l 410 212 b 343.4 168.1 210.2 160.4 131.5 214.5 b 111.2 228.3 91.5 281.0 90 361 l 90 500 m 120 626 b 137.4 700.6 202.8 708.3 234 626 b 215.6 554.4 150.3 546.7 120 626 m 343 626 b 360.2 700.6 425.3 708.3 458 626 b 438.6 554.4 372.7 546.7 343 626"},"Ӷ":{"ha":600,"x_min":70,"x_max":550,"o":"m 70 626 l 70 700 l 550 700 l 550 517 l 476 517 l 476 626 l 249 626 l 249 74 l 406 74 l 406 -120 l 336 -120 l 336 0 l 70 0 l 70 74 l 166 74 l 166 626 l 70 626"},"ӷ":{"ha":600,"x_min":72,"x_max":516,"o":"m 408 0 l 72 0 l 72 67 l 196 67 l 196 432 l 72 432 l 72 500 l 516 500 l 516 313 l 448 313 l 448 432 l 274 432 l 274 67 l 476 67 l 476 -120 l 408 -120 l 408 0"},"Ӹ":{"ha":600,"x_min":50,"x_max":550,"o":"m 467 0 l 467 700 l 550 700 l 550 0 l 467 0 m 50 5 l 50 700 l 133 700 l 133 437 b 151.5 453.4 221.2 458.4 337 401 b 418.7 322.9 427.2 167.9 341 48 b 240.9 -16.0 152.8 -18.5 116 -5.5 b 99.9 -4.6 71.4 -0.9 50 5 m 187 66 b 263.6 61.2 310.8 101.1 319 220 b 315.6 328.2 274.5 375.2 190 372 b 173.7 372.5 145.7 369.1 133 363 l 133 73 b 138.9 69.1 161.4 66.0 187 66 m 123 800 b 143.3 865.8 213.2 872.6 247 800 b 226.9 735.3 157.5 728.8 123 800 m 348 800 b 367.2 865.8 437.2 872.6 471 800 b 451.5 735.3 380.6 728.8 348 800"},"ӹ":{"ha":600,"x_min":47,"x_max":553,"o":"m 127 243 l 127 70 b 251.4 38.4 342.1 92.4 286.5 224 b 226.4 257.5 169.0 256.0 127 243 m 127 500 l 127 309 b 175.3 324.1 255.3 326.8 356 273 b 434.3 225.9 451.0 86.5 180 -6 q 116 -6 47 0 l 47 500 l 127 500 m 473 0 l 473 500 l 553 500 l 553 0 l 473 0 m 127 626 b 144.4 700.6 209.8 708.3 241 626 b 222.6 554.4 157.3 546.7 127 626 m 350 626 b 367.2 700.6 432.3 708.3 465 626 b 445.6 554.4 379.7 546.7 350 626"},"Ӽ":{"ha":600,"x_min":20,"x_max":570,"o":"m 418 104 l 326 251 l 299 301 l 273 251 l 113 0 l 20 0 l 251 356 l 40 700 l 140 700 l 280 463 l 305 416 l 329 463 l 478 700 l 570 700 l 351 363 l 491 141 b 595.0 9.9 611.2 -147.1 429 -210 b 422.2 -210.3 410.1 -210.5 398 -208 l 398 -140 b 503.7 -124.4 506.8 -50.3 461.5 29 b 452.4 48.8 434.1 80.1 418 104"},"ӽ":{"ha":600,"x_min":46,"x_max":542,"o":"m 382 97 l 299 205 l 137 0 l 46 0 l 253 256 l 60 500 l 160 500 l 304 312 l 452 500 l 542 500 l 349 260 l 446 135 b 489.8 83.1 524.8 20.4 535 -58 b 467.0 -232.4 348.3 -239.7 347 -210 l 347 -142 b 474.2 -127.9 479.7 -46.1 429 23.5 b 419.3 42.9 398.7 74.3 382 97"},"Ԑ":{"ha":600,"x_min":66,"x_max":537,"o":"m 445 525 l 445 613 b 368.4 644.4 292.9 648.0 219.5 614.5 b 163.0 576.2 157.4 506.0 219 445 b 276.7 406.2 333.5 396.6 396 401 l 412 401 l 412 331 l 357 331 b 348.1 350.7 260.3 352.8 154 202 b 161.4 112.9 220.0 66.1 329 62 b 362.8 60.1 418.6 70.1 463 91 l 463 179 l 537 179 l 537 49 b 431.7 -24.9 263.7 -34.6 143 39 b 33.6 113.3 18.8 262.8 215 372 l 215 376 b 133.0 404.3 91.2 457.6 87 540 b 93.5 651.7 171.2 708.3 326 712 b 399.2 710.8 467.2 692.0 519 655 l 519 525 l 445 525"},"ԑ":{"ha":600,"x_min":83,"x_max":523,"o":"m 423 328 l 423 421 b 363.4 450.1 255.9 456.8 182 366 b 185.8 322.0 219.1 291.0 280 283 l 360 283 l 360 218 l 292 218 b 122.7 201.2 110.1 109.2 299 61 b 368.8 62.9 438.1 82.9 495 121 l 523 57 b 483.2 24.0 411.3 -1.3 309 -9 b 37.9 40.4 18.0 195.2 189 259 l 189 263 b 59.9 318.5 42.9 445.5 298 507 b 372.1 505.8 439.6 491.8 495 464 l 495 328 l 423 328"},"Ԓ":{"ha":600,"x_min":8,"x_max":521,"o":"m 521 700 l 521 -27 b 472.0 -236.1 361.4 -245.1 357 -210 l 357 -142 b 422.2 -147.2 444.1 -110.7 438 0 l 438 626 l 259 626 b 236.4 135.4 170.1 -40.7 66 -5 q 31 -5 8 5 l 21 77 b 46.8 54.0 91.8 73.5 135 198 b 152.5 238.3 170.8 384.3 181 700 l 521 700"},"ԓ":{"ha":600,"x_min":34,"x_max":505,"o":"m 425 0 l 425 430 l 240 430 b 246.1 222.7 215.7 51.0 92 -4 b 74.8 -4.7 51.0 -2.1 34 5 l 46 72 b 81.8 33.8 125.9 60.9 156 281 q 164 365 167 500 l 505 500 l 505 -27 b 456.0 -236.1 345.4 -245.1 341 -210 l 341 -142 b 405.8 -145.0 429.9 -106.4 425 0"},"Ԝ":{"ha":600,"x_min":15,"x_max":585,"o":"m 94 700 l 173 201 l 178 136 l 185 136 l 199 207 l 273 480 l 339 480 l 408 209 l 426 135 l 431 135 l 437 203 l 511 700 l 585 700 l 477 0 l 394 0 l 313 284 l 303 352 l 300 352 l 289 283 l 208 0 l 124 0 l 15 700 l 94 700"},"ԝ":{"ha":600,"x_min":10,"x_max":590,"o":"m 271 390 l 339 390 l 439 112 l 446 112 l 517 500 l 590 500 l 492 0 l 403 0 l 307 276 l 304 276 l 204 0 l 115 0 l 10 500 l 87 500 l 168 110 l 174 110 l 271 390"},"Ԥ":{"ha":600,"x_min":70,"x_max":593,"o":"m 417 0 l 417 626 l 153 626 l 153 0 l 70 0 l 70 700 l 500 700 l 500 74 l 593 74 l 593 -120 l 523 -120 l 523 0 l 417 0"},"ԥ":{"ha":600,"x_min":92,"x_max":587,"o":"m 430 0 l 430 432 l 169 432 l 169 0 l 92 0 l 92 500 l 508 500 l 508 67 l 587 67 l 587 -120 l 519 -120 l 519 0 l 430 0"},"Ԧ":{"ha":600,"x_min":51,"x_max":589,"o":"m 519 0 l 414 0 l 414 232 b 354.6 409.9 216.4 397.5 134 323 l 134 0 l 51 0 l 51 700 l 134 700 l 134 398 b 225.6 452.3 352.3 460.8 444 401.5 b 468.8 386.9 494.6 330.5 497 247 l 497 74 l 589 74 l 589 -129 l 519 -129 l 519 0"},"ԧ":{"ha":600,"x_min":4,"x_max":604,"o":"m 4 633 l 4 700 l 160 700 l 160 438 l 165 438 b 254.6 527.9 391.3 535.9 480.5 467 b 502.7 451.5 523.6 387.3 525 288 l 525 67 l 604 67 l 604 -120 l 536 -120 l 536 0 l 447 0 l 447 273 b 455.6 380.7 425.9 438.4 319 445 b 246.1 443.5 189.7 405.4 160 318 l 160 0 l 83 0 l 83 633 l 4 633"},"Ḱ":{"ha":600,"x_min":85,"x_max":595,"o":"m 490 0 l 245 324 l 168 324 l 168 0 l 85 0 l 85 700 l 168 700 l 168 388 l 243 388 l 468 700 l 564 700 l 317 367 l 595 0 l 490 0 m 197 752 l 315 870 l 429 870 l 429 849 l 266 752 l 197 752"},"ḱ":{"ha":600,"x_min":24,"x_max":558,"o":"m 24 633 l 24 700 l 186 700 l 186 286 l 241 286 l 438 500 l 532 500 l 311 263 l 493 67 l 558 67 l 558 0 l 455 0 l 241 226 l 186 226 l 186 0 l 109 0 l 109 633 l 24 633 m 253 571 l 318 720 l 427 720 l 308 571 l 253 571"},"Ḿ":{"ha":600,"x_min":60,"x_max":540,"o":"m 457 0 l 457 465 l 467 560 l 462 560 l 414 474 l 312 303 l 287 303 l 180 475 l 134 560 l 129 560 l 141 466 l 141 0 l 60 0 l 60 700 l 137 700 l 303 434 l 305 434 l 465 700 l 540 700 l 540 0 l 457 0 m 231 752 l 349 870 l 463 870 l 463 849 l 300 752 l 231 752"},"ḿ":{"ha":600,"x_min":41,"x_max":559,"o":"m 338 0 l 262 0 l 262 333 b 266.7 390.4 255.9 431.8 210 442 b 178.0 447.3 137.3 409.4 117 344 l 117 0 l 41 0 l 41 500 l 93 500 l 108 439 l 112 439 b 130.2 479.7 157.8 506.7 226 512 b 268.6 514.8 304.3 494.4 323 429 b 388.8 528.4 493.1 536.3 538.5 469.5 b 549.8 453.9 558.8 410.4 559 357 l 559 0 l 483 0 l 483 340 b 486.3 396.2 475.2 433.8 433 442 b 400.0 449.0 358.3 411.7 338 334 l 338 0 m 226 571 l 291 720 l 400 720 l 281 571 l 226 571"},"Ṕ":{"ha":600,"x_min":100,"x_max":537,"o":"m 100 0 l 100 693 b 199.5 717.3 310.2 720.9 449 666 b 559.7 590.3 571.1 432.0 453 313.5 b 322.4 254.6 234.9 252.7 224.5 262.5 b 212.6 262.9 192.8 264.4 183 266 l 183 0 l 100 0 m 271 636 b 247.0 636.6 207.4 635.4 183 630 l 183 340 b 202.7 336.5 233.9 335.5 261 336 b 356.4 326.2 428.8 361.0 449 493 b 442.0 592.2 381.1 636.7 271 636 m 217 752 l 335 870 l 449 870 l 449 849 l 286 752 l 217 752"},"ṕ":{"ha":600,"x_min":21,"x_max":554,"o":"m 96 -200 l 96 325 b 96.1 353.4 93.9 392.7 88 435 l 21 435 l 21 500 l 154 500 l 164 430 l 169 430 b 242.4 560.7 440.1 585.8 554 260 b 552.8 97.3 475.0 2.9 295 -12 b 246.4 -12.1 213.1 -6.6 173 10 l 173 -200 l 96 -200 m 326 439 b 246.7 433.6 192.3 390.6 173 315 l 173 87 b 221.3 18.0 367.6 2.4 471 261 b 481.9 345.3 438.3 431.2 326 439 m 225 571 l 290 720 l 399 720 l 280 571 l 225 571"},"ẞ":{"ha":600,"x_min":51,"x_max":548,"o":"m 226 400 l 395 603 b 370.3 624.3 324.5 639.0 253 642 b 152.4 635.4 122.4 571.6 134 447 l 134 0 l 51 0 l 51 478 b 38.0 607.8 84.9 693.0 258 712 b 333.9 716.2 435.4 682.8 504 629 l 315 407 l 342 407 b 609.6 353.2 635.9 108.0 319 -12 b 289.2 -12.7 243.6 -8.6 196 7 l 209 80 b 237.3 66.5 277.7 60.0 320 60 b 448.2 47.5 536.8 138.2 288 341 l 226 341 l 226 400"},"‑":{"ha":600,"x_min":129,"x_max":471,"o":"m 129 251 l 129 325 l 471 325 l 471 251 l 129 251"},"–":{"ha":600,"x_min":88,"x_max":512,"o":"m 88 251 l 88 325 l 512 325 l 512 251 l 88 251"},"—":{"ha":600,"x_min":8,"x_max":592,"o":"m 8 251 l 8 325 l 592 325 l 592 251 l 8 251"},"‘":{"ha":600,"x_min":229,"x_max":368,"o":"m 368 589 b 349.2 510.0 272.7 500.3 229 614 b 238.2 712.5 279.3 765.3 335 781 l 365 740 b 337.0 730.9 301.1 698.1 296 648 b 296.7 658.9 338.7 654.2 368 589"},"’":{"ha":600,"x_min":232,"x_max":371,"o":"m 232 679 b 250.8 758.0 327.3 767.7 371 654 b 361.8 555.5 320.7 502.7 265 487 l 235 528 b 263.0 537.1 298.9 569.9 304 620 b 303.3 609.1 261.3 613.8 232 679"},"‚":{"ha":600,"x_min":232,"x_max":371,"o":"m 232 39 b 250.8 118.0 327.3 127.7 371 14 b 361.8 -84.5 320.7 -137.3 265 -153 l 235 -112 b 263.0 -102.9 298.9 -70.1 304 -20 b 303.3 -30.9 261.3 -26.2 232 39"},"“":{"ha":600,"x_min":129,"x_max":468,"o":"m 268 589 b 249.2 510.0 172.7 500.3 129 614 b 138.2 712.5 179.3 765.3 235 781 l 265 740 b 237.0 730.9 201.1 698.1 196 648 b 196.7 658.9 238.7 654.2 268 589 m 468 589 b 449.2 510.0 372.7 500.3 329 614 b 338.2 712.5 379.3 765.3 435 781 l 465 740 b 437.0 730.9 401.1 698.1 396 648 b 396.7 658.9 438.7 654.2 468 589"},"”":{"ha":600,"x_min":132,"x_max":471,"o":"m 132 679 b 150.8 758.0 227.3 767.7 271 654 b 261.8 555.5 220.7 502.7 165 487 l 135 528 b 163.0 537.1 198.9 569.9 204 620 b 203.3 609.1 161.3 613.8 132 679 m 332 679 b 350.8 758.0 427.3 767.7 471 654 b 461.8 555.5 420.7 502.7 365 487 l 335 528 b 363.0 537.1 398.9 569.9 404 620 b 403.3 609.1 361.3 613.8 332 679"},"„":{"ha":600,"x_min":132,"x_max":471,"o":"m 132 39 b 150.8 118.0 227.3 127.7 271 14 b 261.8 -84.5 220.7 -137.3 165 -153 l 135 -112 b 163.0 -102.9 198.9 -70.1 204 -20 b 203.3 -30.9 161.3 -26.2 132 39 m 332 39 b 350.8 118.0 427.3 127.7 471 14 b 461.8 -84.5 420.7 -137.3 365 -153 l 335 -112 b 363.0 -102.9 398.9 -70.1 404 -20 b 403.3 -30.9 361.3 -26.2 332 39"},"†":{"ha":600,"x_min":97,"x_max":503,"o":"m 97 430 l 97 502 l 260 502 l 260 700 l 340 700 l 340 502 l 503 502 l 503 430 l 340 430 l 340 0 l 325 -200 l 275 -200 l 260 1 l 260 430 l 97 430"},"‡":{"ha":600,"x_min":97,"x_max":503,"o":"m 260 246 l 260 430 l 97 430 l 97 502 l 260 502 l 260 700 l 340 700 l 340 502 l 503 502 l 503 430 l 340 430 l 340 246 l 503 246 l 503 174 l 340 174 l 340 0 l 324 -200 l 276 -200 l 260 1 l 260 174 l 97 174 l 97 246 l 260 246"},"•":{"ha":600,"x_min":161,"x_max":439,"o":"m 161 311 b 164.0 391.7 207.2 441.4 300 450 b 377.7 450.3 427.7 409.6 439 311 b 436.0 227.3 392.8 179.1 300 172 b 222.3 171.7 172.3 212.4 161 311"},"…":{"ha":600,"x_min":-20,"x_max":621,"o":"m 487 55 b 507.0 140.7 585.4 148.9 621 55 b 600.9 -29.5 521.8 -38.4 487 55 m 233 55 b 253.0 140.7 331.4 148.9 367 55 b 346.9 -29.5 267.8 -38.4 233 55 m -20 55 b -0.0 140.7 78.4 148.9 114 55 b 93.9 -29.5 14.8 -38.4 -20 55"},"‰":{"ha":600,"x_min":20,"x_max":581,"o":"m 20 562 b 60.3 738.1 155.5 746.2 204.5 679.5 b 244.6 624.6 248.6 521.0 204.5 445.5 b 168.4 384.2 85.1 371.5 20 562 m 80 562 b 95.6 435.7 150.6 425.1 176 562 b 162.4 690.2 104.5 699.8 80 562 m 115 149 b 155.3 325.1 250.5 333.2 299.5 266.5 b 339.6 211.6 343.6 108.0 299.5 32.5 b 263.4 -28.8 180.1 -41.5 115 149 m 175 149 b 190.6 22.7 245.6 12.1 271 149 b 257.4 277.2 199.5 286.8 175 149 m 365 149 b 405.3 325.1 500.5 333.2 549.5 266.5 b 589.6 211.6 593.6 108.0 549.5 32.5 b 513.4 -28.8 430.1 -41.5 365 149 m 425 149 b 440.6 22.7 495.6 12.1 521 149 b 507.4 277.2 449.5 286.8 425 149 m 30 319 l 510 529 l 529 482 l 49 272 l 30 319"},"‹":{"ha":600,"x_min":170,"x_max":430,"o":"m 373 20 l 170 264 l 365 518 l 423 470 l 267 268 l 430 69 l 373 20"},"›":{"ha":600,"x_min":170,"x_max":430,"o":"m 430 264 l 227 20 l 170 69 l 333 268 l 177 470 l 235 518 l 430 264"},"⁄":{"ha":600,"x_min":30,"x_max":569,"o":"m 30 24 l 517 713 l 569 678 l 82 -12 l 30 24"},"₁":{"ha":600,"x_min":128,"x_max":485,"o":"m 134 -100 l 134 -39 l 280 -39 l 280 236 l 155 166 l 128 221 l 294 320 l 350 320 l 350 -39 l 485 -39 l 485 -100 l 134 -100"},"₂":{"ha":600,"x_min":114,"x_max":465,"o":"m 445 195 b 434.2 102.0 354.9 27.2 219 -37 l 465 -37 l 465 -100 l 114 -100 l 114 -47 b 161.2 -14.5 233.3 29.0 321 96.5 b 385.5 155.3 391.1 211.6 345 245.5 b 312.9 268.6 267.8 270.2 207.5 244 b 192.2 236.9 170.3 221.9 157 210 l 125 259 b 147.1 287.3 198.8 315.4 298 327 b 380.8 328.5 433.5 291.7 445 195"},"₃":{"ha":600,"x_min":71,"x_max":436,"o":"m 262 -47 b 393.4 -26.3 407.2 61.5 268 100 l 203 100 l 203 138 l 333 260 l 105 260 l 105 320 l 421 320 l 421 267 l 292 152 l 292 150 b 481.8 112.8 503.0 -32.4 253 -107 b 185.9 -106.5 121.3 -83.6 71 -31 l 107 21 b 124.5 -5.8 169.9 -35.2 262 -47"},"₄":{"ha":600,"x_min":93,"x_max":477,"o":"m 477 55 l 477 -4 l 394 -4 l 394 -100 l 327 -100 l 327 -4 l 93 -4 l 93 52 l 329 320 l 394 320 l 394 55 l 477 55 m 327 55 l 327 232 l 171 55 l 327 55"},"€":{"ha":600,"x_min":40,"x_max":560,"o":"m 40 388 l 58 454 l 121 454 b 152.6 621.4 238.6 706.4 398 712 b 444.7 713.4 507.7 704.7 550 688 l 529 615 b 463.9 647.6 367.4 652.1 279.5 595.5 b 255.5 579.9 222.4 527.4 205 454 l 487 454 l 470 388 l 196 388 b 194.5 364.5 194.5 339.9 196 318 l 450 318 l 433 252 l 203 252 b 298.8 33.0 465.1 21.5 540 94 l 560 29 b 486.1 -61.0 301.5 -80.2 119 252 l 40 252 l 58 318 l 113 318 b 111.5 335.1 111.5 358.7 113 388 l 40 388"},"₴":{"ha":600,"x_min":95,"x_max":504,"o":"m 95 317 l 504 317 l 504 251 l 275 251 b 244.8 222.1 222.0 182.8 215 132 b 240.5 44.1 380.4 38.6 469 88 l 493 24 b 425.2 -36.9 227.6 -49.0 132 124 b 136.9 174.1 159.4 218.3 187 251 l 95 251 l 95 317 m 504 388 l 95 388 l 95 454 l 331 454 b 406.8 534.1 418.0 620.1 281 642 b 244.8 643.3 197.7 630.9 163 613 l 138 680 b 167.5 697.6 210.1 709.4 296 712 b 497.0 681.0 508.4 552.0 415 454 l 504 454 l 504 388"},"₶":{"ha":600,"x_min":57,"x_max":542,"o":"m 57 273 l 57 336 l 128 336 l 128 693 b 228.3 717.3 339.3 720.9 465.5 666 b 562.6 591.0 572.9 437.2 465 323.5 b 436.6 297.4 358.5 274.2 265 273 l 211 273 l 211 202 l 377 202 l 377 140 l 211 140 l 211 0 l 128 0 l 128 140 l 57 140 l 57 202 l 128 202 l 128 273 l 57 273 m 298 638 b 274.0 638.4 235.1 636.4 211 632 l 211 343 l 287 343 b 370.4 332.9 435.1 366.2 454 495 b 450.3 594.2 401.1 638.7 298 638"},"₷":{"ha":600,"x_min":57,"x_max":542,"o":"m 57 273 l 57 336 l 128 336 l 128 693 b 228.3 717.3 339.3 720.9 465.5 666 b 562.6 591.0 572.9 437.2 465 323.5 b 436.6 297.4 358.5 274.2 265 273 l 211 273 l 211 202 l 377 202 l 377 140 l 211 140 l 211 0 l 128 0 l 128 140 l 57 140 l 57 202 l 128 202 l 128 273 l 57 273 m 298 638 b 274.0 638.4 235.1 636.4 211 632 l 211 343 l 287 343 b 370.4 332.9 435.1 366.2 454 495 b 450.3 594.2 401.1 638.7 298 638"},"₹":{"ha":600,"x_min":57,"x_max":542,"o":"m 57 273 l 57 336 l 128 336 l 128 693 b 228.3 717.3 339.3 720.9 465.5 666 b 562.6 591.0 572.9 437.2 465 323.5 b 436.6 297.4 358.5 274.2 265 273 l 211 273 l 211 202 l 377 202 l 377 140 l 211 140 l 211 0 l 128 0 l 128 140 l 57 140 l 57 202 l 128 202 l 128 273 l 57 273 m 298 638 b 274.0 638.4 235.1 636.4 211 632 l 211 343 l 287 343 b 370.4 332.9 435.1 366.2 454 495 b 450.3 594.2 401.1 638.7 298 638"},"₺":{"ha":600,"x_min":57,"x_max":542,"o":"m 57 273 l 57 336 l 128 336 l 128 693 b 228.3 717.3 339.3 720.9 465.5 666 b 562.6 591.0 572.9 437.2 465 323.5 b 436.6 297.4 358.5 274.2 265 273 l 211 273 l 211 202 l 377 202 l 377 140 l 211 140 l 211 0 l 128 0 l 128 140 l 57 140 l 57 202 l 128 202 l 128 273 l 57 273 m 298 638 b 274.0 638.4 235.1 636.4 211 632 l 211 343 l 287 343 b 370.4 332.9 435.1 366.2 454 495 b 450.3 594.2 401.1 638.7 298 638"},"₻":{"ha":600,"x_min":57,"x_max":542,"o":"m 57 273 l 57 336 l 128 336 l 128 693 b 228.3 717.3 339.3 720.9 465.5 666 b 562.6 591.0 572.9 437.2 465 323.5 b 436.6 297.4 358.5 274.2 265 273 l 211 273 l 211 202 l 377 202 l 377 140 l 211 140 l 211 0 l 128 0 l 128 140 l 57 140 l 57 202 l 128 202 l 128 273 l 57 273 m 298 638 b 274.0 638.4 235.1 636.4 211 632 l 211 343 l 287 343 b 370.4 332.9 435.1 366.2 454 495 b 450.3 594.2 401.1 638.7 298 638"},"₼":{"ha":600,"x_min":57,"x_max":542,"o":"m 57 273 l 57 336 l 128 336 l 128 693 b 228.3 717.3 339.3 720.9 465.5 666 b 562.6 591.0 572.9 437.2 465 323.5 b 436.6 297.4 358.5 274.2 265 273 l 211 273 l 211 202 l 377 202 l 377 140 l 211 140 l 211 0 l 128 0 l 128 140 l 57 140 l 57 202 l 128 202 l 128 273 l 57 273 m 298 638 b 274.0 638.4 235.1 636.4 211 632 l 211 343 l 287 343 b 370.4 332.9 435.1 366.2 454 495 b 450.3 594.2 401.1 638.7 298 638"},"₽":{"ha":600,"x_min":57,"x_max":542,"o":"m 57 273 l 57 336 l 128 336 l 128 693 b 228.3 717.3 339.3 720.9 465.5 666 b 562.6 591.0 572.9 437.2 465 323.5 b 436.6 297.4 358.5 274.2 265 273 l 211 273 l 211 202 l 377 202 l 377 140 l 211 140 l 211 0 l 128 0 l 128 140 l 57 140 l 57 202 l 128 202 l 128 273 l 57 273 m 298 638 b 274.0 638.4 235.1 636.4 211 632 l 211 343 l 287 343 b 370.4 332.9 435.1 366.2 454 495 b 450.3 594.2 401.1 638.7 298 638"},"₾":{"ha":600,"x_min":57,"x_max":542,"o":"m 57 273 l 57 336 l 128 336 l 128 693 b 228.3 717.3 339.3 720.9 465.5 666 b 562.6 591.0 572.9 437.2 465 323.5 b 436.6 297.4 358.5 274.2 265 273 l 211 273 l 211 202 l 377 202 l 377 140 l 211 140 l 211 0 l 128 0 l 128 140 l 57 140 l 57 202 l 128 202 l 128 273 l 57 273 m 298 638 b 274.0 638.4 235.1 636.4 211 632 l 211 343 l 287 343 b 370.4 332.9 435.1 366.2 454 495 b 450.3 594.2 401.1 638.7 298 638"},"₿":{"ha":600,"x_min":57,"x_max":542,"o":"m 57 273 l 57 336 l 128 336 l 128 693 b 228.3 717.3 339.3 720.9 465.5 666 b 562.6 591.0 572.9 437.2 465 323.5 b 436.6 297.4 358.5 274.2 265 273 l 211 273 l 211 202 l 377 202 l 377 140 l 211 140 l 211 0 l 128 0 l 128 140 l 57 140 l 57 202 l 128 202 l 128 273 l 57 273 m 298 638 b 274.0 638.4 235.1 636.4 211 632 l 211 343 l 287 343 b 370.4 332.9 435.1 366.2 454 495 b 450.3 594.2 401.1 638.7 298 638"},"⃀":{"ha":600,"x_min":57,"x_max":542,"o":"m 57 273 l 57 336 l 128 336 l 128 693 b 228.3 717.3 339.3 720.9 465.5 666 b 562.6 591.0 572.9 437.2 465 323.5 b 436.6 297.4 358.5 274.2 265 273 l 211 273 l 211 202 l 377 202 l 377 140 l 211 140 l 211 0 l 128 0 l 128 140 l 57 140 l 57 202 l 128 202 l 128 273 l 57 273 m 298 638 b 274.0 638.4 235.1 636.4 211 632 l 211 343 l 287 343 b 370.4 332.9 435.1 366.2 454 495 b 450.3 594.2 401.1 638.7 298 638"},"⃁":{"ha":600,"x_min":57,"x_max":542,"o":"m 57 273 l 57 336 l 128 336 l 128 693 b 228.3 717.3 339.3 720.9 465.5 666 b 562.6 591.0 572.9 437.2 465 323.5 b 436.6 297.4 358.5 274.2 265 273 l 211 273 l 211 202 l 377 202 l 377 140 l 211 140 l 211 0 l 128 0 l 128 140 l 57 140 l 57 202 l 128 202 l 128 273 l 57 273 m 298 638 b 274.0 638.4 235.1 636.4 211 632 l 211 343 l 287 343 b 370.4 332.9 435.1 366.2 454 495 b 450.3 594.2 401.1 638.7 298 638"},"⃂":{"ha":600,"x_min":57,"x_max":542,"o":"m 57 273 l 57 336 l 128 336 l 128 693 b 228.3 717.3 339.3 720.9 465.5 666 b 562.6 591.0 572.9 437.2 465 323.5 b 436.6 297.4 358.5 274.2 265 273 l 211 273 l 211 202 l 377 202 l 377 140 l 211 140 l 211 0 l 128 0 l 128 140 l 57 140 l 57 202 l 128 202 l 128 273 l 57 273 m 298 638 b 274.0 638.4 235.1 636.4 211 632 l 211 343 l 287 343 b 370.4 332.9 435.1 366.2 454 495 b 450.3 594.2 401.1 638.7 298 638"},"⃃":{"ha":600,"x_min":57,"x_max":542,"o":"m 57 273 l 57 336 l 128 336 l 128 693 b 228.3 717.3 339.3 720.9 465.5 666 b 562.6 591.0 572.9 437.2 465 323.5 b 436.6 297.4 358.5 274.2 265 273 l 211 273 l 211 202 l 377 202 l 377 140 l 211 140 l 211 0 l 128 0 l 128 140 l 57 140 l 57 202 l 128 202 l 128 273 l 57 273 m 298 638 b 274.0 638.4 235.1 636.4 211 632 l 211 343 l 287 343 b 370.4 332.9 435.1 366.2 454 495 b 450.3 594.2 401.1 638.7 298 638"},"⃄":{"ha":600,"x_min":57,"x_max":542,"o":"m 57 273 l 57 336 l 128 336 l 128 693 b 228.3 717.3 339.3 720.9 465.5 666 b 562.6 591.0 572.9 437.2 465 323.5 b 436.6 297.4 358.5 274.2 265 273 l 211 273 l 211 202 l 377 202 l 377 140 l 211 140 l 211 0 l 128 0 l 128 140 l 57 140 l 57 202 l 128 202 l 128 273 l 57 273 m 298 638 b 274.0 638.4 235.1 636.4 211 632 l 211 343 l 287 343 b 370.4 332.9 435.1 366.2 454 495 b 450.3 594.2 401.1 638.7 298 638"},"⃅":{"ha":600,"x_min":57,"x_max":542,"o":"m 57 273 l 57 336 l 128 336 l 128 693 b 228.3 717.3 339.3 720.9 465.5 666 b 562.6 591.0 572.9 437.2 465 323.5 b 436.6 297.4 358.5 274.2 265 273 l 211 273 l 211 202 l 377 202 l 377 140 l 211 140 l 211 0 l 128 0 l 128 140 l 57 140 l 57 202 l 128 202 l 128 273 l 57 273 m 298 638 b 274.0 638.4 235.1 636.4 211 632 l 211 343 l 287 343 b 370.4 332.9 435.1 366.2 454 495 b 450.3 594.2 401.1 638.7 298 638"},"⃆":{"ha":600,"x_min":57,"x_max":542,"o":"m 57 273 l 57 336 l 128 336 l 128 693 b 228.3 717.3 339.3 720.9 465.5 666 b 562.6 591.0 572.9 437.2 465 323.5 b 436.6 297.4 358.5 274.2 265 273 l 211 273 l 211 202 l 377 202 l 377 140 l 211 140 l 211 0 l 128 0 l 128 140 l 57 140 l 57 202 l 128 202 l 128 273 l 57 273 m 298 638 b 274.0 638.4 235.1 636.4 211 632 l 211 343 l 287 343 b 370.4 332.9 435.1 366.2 454 495 b 450.3 594.2 401.1 638.7 298 638"},"⃇":{"ha":600,"x_min":57,"x_max":542,"o":"m 57 273 l 57 336 l 128 336 l 128 693 b 228.3 717.3 339.3 720.9 465.5 666 b 562.6 591.0 572.9 437.2 465 323.5 b 436.6 297.4 358.5 274.2 265 273 l 211 273 l 211 202 l 377 202 l 377 140 l 211 140 l 211 0 l 128 0 l 128 140 l 57 140 l 57 202 l 128 202 l 128 273 l 57 273 m 298 638 b 274.0 638.4 235.1 636.4 211 632 l 211 343 l 287 343 b 370.4 332.9 435.1 366.2 454 495 b 450.3 594.2 401.1 638.7 298 638"},"⃈":{"ha":600,"x_min":57,"x_max":542,"o":"m 57 273 l 57 336 l 128 336 l 128 693 b 228.3 717.3 339.3 720.9 465.5 666 b 562.6 591.0 572.9 437.2 465 323.5 b 436.6 297.4 358.5 274.2 265 273 l 211 273 l 211 202 l 377 202 l 377 140 l 211 140 l 211 0 l 128 0 l 128 140 l 57 140 l 57 202 l 128 202 l 128 273 l 57 273 m 298 638 b 274.0 638.4 235.1 636.4 211 632 l 211 343 l 287 343 b 370.4 332.9 435.1 366.2 454 495 b 450.3 594.2 401.1 638.7 298 638"},"⃉":{"ha":600,"x_min":57,"x_max":542,"o":"m 57 273 l 57 336 l 128 336 l 128 693 b 228.3 717.3 339.3 720.9 465.5 666 b 562.6 591.0 572.9 437.2 465 323.5 b 436.6 297.4 358.5 274.2 265 273 l 211 273 l 211 202 l 377 202 l 377 140 l 211 140 l 211 0 l 128 0 l 128 140 l 57 140 l 57 202 l 128 202 l 128 273 l 57 273 m 298 638 b 274.0 638.4 235.1 636.4 211 632 l 211 343 l 287 343 b 370.4 332.9 435.1 366.2 454 495 b 450.3 594.2 401.1 638.7 298 638"},"⃊":{"ha":600,"x_min":57,"x_max":542,"o":"m 57 273 l 57 336 l 128 336 l 128 693 b 228.3 717.3 339.3 720.9 465.5 666 b 562.6 591.0 572.9 437.2 465 323.5 b 436.6 297.4 358.5 274.2 265 273 l 211 273 l 211 202 l 377 202 l 377 140 l 211 140 l 211 0 l 128 0 l 128 140 l 57 140 l 57 202 l 128 202 l 128 273 l 57 273 m 298 638 b 274.0 638.4 235.1 636.4 211 632 l 211 343 l 287 343 b 370.4 332.9 435.1 366.2 454 495 b 450.3 594.2 401.1 638.7 298 638"},"⃋":{"ha":600,"x_min":57,"x_max":542,"o":"m 57 273 l 57 336 l 128 336 l 128 693 b 228.3 717.3 339.3 720.9 465.5 666 b 562.6 591.0 572.9 437.2 465 323.5 b 436.6 297.4 358.5 274.2 265 273 l 211 273 l 211 202 l 377 202 l 377 140 l 211 140 l 211 0 l 128 0 l 128 140 l 57 140 l 57 202 l 128 202 l 128 273 l 57 273 m 298 638 b 274.0 638.4 235.1 636.4 211 632 l 211 343 l 287 343 b 370.4 332.9 435.1 366.2 454 495 b 450.3 594.2 401.1 638.7 298 638"},"⃌":{"ha":600,"x_min":57,"x_max":542,"o":"m 57 273 l 57 336 l 128 336 l 128 693 b 228.3 717.3 339.3 720.9 465.5 666 b 562.6 591.0 572.9 437.2 465 323.5 b 436.6 297.4 358.5 274.2 265 273 l 211 273 l 211 202 l 377 202 l 377 140 l 211 140 l 211 0 l 128 0 l 128 140 l 57 140 l 57 202 l 128 202 l 128 273 l 57 273 m 298 638 b 274.0 638.4 235.1 636.4 211 632 l 211 343 l 287 343 b 370.4 332.9 435.1 366.2 454 495 b 450.3 594.2 401.1 638.7 298 638"},"⃍":{"ha":600,"x_min":57,"x_max":542,"o":"m 57 273 l 57 336 l 128 336 l 128 693 b 228.3 717.3 339.3 720.9 465.5 666 b 562.6 591.0 572.9 437.2 465 323.5 b 436.6 297.4 358.5 274.2 265 273 l 211 273 l 211 202 l 377 202 l 377 140 l 211 140 l 211 0 l 128 0 l 128 140 l 57 140 l 57 202 l 128 202 l 128 273 l 57 273 m 298 638 b 274.0 638.4 235.1 636.4 211 632 l 211 343 l 287 343 b 370.4 332.9 435.1 366.2 454 495 b 450.3 594.2 401.1 638.7 298 638"},"⃎":{"ha":600,"x_min":57,"x_max":542,"o":"m 57 273 l 57 336 l 128 336 l 128 693 b 228.3 717.3 339.3 720.9 465.5 666 b 562.6 591.0 572.9 437.2 465 323.5 b 436.6 297.4 358.5 274.2 265 273 l 211 273 l 211 202 l 377 202 l 377 140 l 211 140 l 211 0 l 128 0 l 128 140 l 57 140 l 57 202 l 128 202 l 128 273 l 57 273 m 298 638 b 274.0 638.4 235.1 636.4 211 632 l 211 343 l 287 343 b 370.4 332.9 435.1 366.2 454 495 b 450.3 594.2 401.1 638.7 298 638"},"⃏":{"ha":600,"x_min":57,"x_max":542,"o":"m 57 273 l 57 336 l 128 336 l 128 693 b 228.3 717.3 339.3 720.9 465.5 666 b 562.6 591.0 572.9 437.2 465 323.5 b 436.6 297.4 358.5 274.2 265 273 l 211 273 l 211 202 l 377 202 l 377 140 l 211 140 l 211 0 l 128 0 l 128 140 l 57 140 l 57 202 l 128 202 l 128 273 l 57 273 m 298 638 b 274.0 638.4 235.1 636.4 211 632 l 211 343 l 287 343 b 370.4 332.9 435.1 366.2 454 495 b 450.3 594.2 401.1 638.7 298 638"},"ℓ":{"ha":600,"x_min":133,"x_max":466,"o":"m 449 80 l 466 30 b 393.3 -34.8 272.6 -48.7 218 114 l 218 218 l 168 174 l 133 218 l 218 292 l 218 546 b 220.3 655.0 261.0 708.9 347 712 b 495.7 715.0 516.7 563.7 286 265 l 286 125 b 298.6 30.7 359.7 28.0 449 80 m 393 588 b 375.4 663.8 335.0 667.7 304.5 634.5 b 296.1 628.3 287.0 601.1 286 557 l 286 345 b 341.3 401.5 390.4 499.7 393 588"},"№":{"ha":600,"x_min":4,"x_max":605,"o":"m 391 261 l 391 333 l 586 333 l 586 261 l 391 261 m 278 0 l 78 475 l 74 475 l 79 367 l 79 0 l 4 0 l 4 700 l 60 700 l 259 230 l 264 230 l 258 343 l 258 700 l 333 700 l 333 0 l 278 0 m 369 542 b 372.0 657.0 410.7 710.9 487 712 b 549.3 720.4 593.4 679.6 605 542 b 601.0 423.9 562.0 371.5 487 373 b 423.7 364.8 379.3 405.7 369 542 m 439 542 b 439.4 462.1 454.2 429.9 487 434 b 515.7 424.1 532.0 446.3 535 542 b 534.7 624.3 520.9 655.4 487 651 b 458.3 660.0 442.0 637.5 439 542"},"™":{"ha":600,"x_min":23,"x_max":576,"o":"m 259 700 l 259 638 l 174 638 l 174 340 l 107 340 l 107 638 l 23 638 l 23 700 l 259 700 m 516 340 l 516 507 l 520 610 l 516 610 l 435 455 l 420 455 l 338 610 l 335 610 l 342 508 l 342 340 l 283 340 l 283 700 l 349 700 l 431 556 l 510 700 l 576 700 l 576 340 l 516 340"},"℮":{"ha":600,"x_min":41,"x_max":558,"o":"m 558 259 l 154 259 l 154 78 b 200.2 1.8 350.1 -19.0 492 139 l 527 118 b 402.2 -46.5 235.3 -58.7 110.5 63 b 21.2 169.3 12.7 315.2 112 456 b 209.9 557.2 358.2 567.1 489 453.5 b 521.3 424.0 553.0 347.0 558 259 m 154 295 l 445 295 l 445 440 b 389.7 507.5 256.7 524.4 154 440 l 154 295"},"←":{"ha":600,"x_min":1,"x_max":599,"o":"m 132 277 l 156 277 b 141.3 245.4 125.8 217.7 94 180 l 599 180 l 599 147 l 94 147 q 127 113 157 50 l 132 50 b 96.9 92.3 46.8 136.0 1 157 l 1 172 q 58 196 132 277"},"↑":{"ha":600,"x_min":186,"x_max":414,"o":"m 186 269 l 186 293 q 267 368 292 424 l 306 424 b 314.2 399.1 348.6 351.4 414 293 l 414 268 q 350 298 316 331 l 316 -136 l 284 -136 l 284 331 b 260.5 310.5 234.8 292.8 186 269"},"→":{"ha":600,"x_min":1,"x_max":599,"o":"m 444 277 l 468 277 q 542 196 599 172 l 599 157 b 573.1 149.5 526.0 114.6 468 50 l 443 50 q 473 113 506 147 l 1 147 l 1 180 l 506 180 b 485.5 202.8 467.8 229.0 444 277"},"↓":{"ha":600,"x_min":186,"x_max":414,"o":"m 186 -5 l 186 19 b 218.5 4.1 246.5 -12.2 284 -43 l 284 424 l 316 424 l 316 -42 q 350 -10 414 20 l 414 -5 b 370.9 -39.9 327.8 -89.3 306 -136 l 292 -136 q 267 -78 186 -5"},"↔":{"ha":600,"x_min":1,"x_max":599,"o":"m 599 171 l 599 157 b 576.2 149.9 529.8 116.6 470 50 l 445 50 q 467 104 506 148 l 93 148 q 133 104 155 50 l 129 50 b 92.7 94.2 43.6 136.8 1 157 l 1 171 b 24.6 177.9 68.9 210.4 129 278 l 155 278 q 133 223 93 179 l 506 179 q 467 223 445 278 l 470 278 b 508.0 232.9 556.0 190.8 599 171"},"↕":{"ha":600,"x_min":186,"x_max":414,"o":"m 292 463 l 307 463 q 334 403 414 334 l 414 309 q 360 331 315 371 l 315 -42 q 359 -3 414 19 l 414 -6 q 335 -75 307 -135 l 292 -135 b 285.7 -111.2 251.8 -65.3 186 -6 l 186 19 q 241 -3 284 -42 l 284 371 q 240 331 186 309 l 186 334 b 230.4 370.1 273.0 419.1 292 463"},"↨":{"ha":600,"x_min":186,"x_max":414,"o":"m 292 463 l 307 463 q 334 403 414 334 l 414 309 q 360 331 315 371 l 315 -42 q 359 -3 414 19 l 414 -6 q 335 -75 307 -135 l 292 -135 b 285.7 -111.2 251.8 -65.3 186 -6 l 186 19 q 241 -3 284 -42 l 284 371 q 240 331 186 309 l 186 334 b 230.4 370.1 273.0 419.1 292 463 m 187 -196 l 187 -166 l 414 -166 l 414 -196 l 187 -196"},"∂":{"ha":600,"x_min":73,"x_max":527,"o":"m 340 510 b 378.7 511.9 415.7 501.9 439 481 l 444 481 b 427.7 592.9 357.7 645.4 240 647 b 235.7 647.2 227.0 647.2 219 646 l 234 712 b 409.7 726.3 512.0 652.5 527 410 b 524.1 139.9 444.5 -0.1 265 -12 b 37.6 38.1 23.6 233.4 140.5 405.5 b 164.7 451.8 240.2 504.0 340 510 m 334 440 b 236.4 437.1 170.5 355.3 156 177 b 151.5 113.8 181.5 69.4 272 58 b 392.2 75.1 445.9 192.2 444 394 b 432.2 414.9 394.7 437.6 334 440"},"∏":{"ha":600,"x_min":45,"x_max":554,"o":"m 471 -200 l 471 626 l 128 626 l 128 -200 l 45 -200 l 45 700 l 554 700 l 554 -200 l 471 -200"},"∑":{"ha":600,"x_min":73,"x_max":526,"o":"m 406 256 l 159 -126 l 526 -126 l 526 -200 l 73 -200 l 73 -126 l 316 252 l 73 626 l 73 700 l 526 700 l 526 626 l 165 626 l 406 256"},"−":{"ha":600,"x_min":68,"x_max":532,"o":"m 68 302 l 68 374 l 532 374 l 532 302 l 68 302"},"∕":{"ha":600,"x_min":30,"x_max":569,"o":"m 30 24 l 517 713 l 569 678 l 82 -12 l 30 24"},"√":{"ha":600,"x_min":32,"x_max":567,"o":"m 32 446 l 208 446 l 323 155 l 325 155 l 492 700 l 567 700 l 341 -11 l 310 -11 l 153 374 l 32 374 l 32 446"},"∞":{"ha":600,"x_min":44,"x_max":555,"o":"m 296 286 b 222.4 118.8 106.2 100.5 44 346 b 79.5 579.1 212.8 597.6 303 426 b 384.1 584.3 500.3 600.2 555 357 b 509.6 133.6 399.4 120.5 349.5 200 b 334.5 213.5 312.0 247.5 296 286 m 430 225 b 499.3 274.5 503.7 384.9 477 439 b 463.0 498.1 413.1 507.1 329 371 b 347.0 295.0 378.1 239.7 430 225 m 169 477 b 132.2 473.4 111.7 432.3 109 349 b 128.3 207.9 190.0 195.0 228 261.5 b 238.7 275.1 256.7 307.0 271 340 b 251.7 414.5 222.0 465.2 169 477"},"∟":{"ha":600,"x_min":1,"x_max":599,"o":"m 1 0 l 1 597 l 47 597 l 47 46 l 599 46 l 599 0 l 1 0"},"∩":{"ha":600,"x_min":85,"x_max":515,"o":"m 85 0 l 85 485 b 154.7 755.2 396.0 786.3 515 485 l 515 0 l 451 0 l 451 467 b 402.0 683.6 231.0 706.0 149 466 l 149 0 l 85 0"},"∪":{"ha":600,"x_min":85,"x_max":515,"o":"m 85 702 l 85 217.02960205078125 b 154.7 -53.2 396.0 -84.3 515 217.02960205078125 l 515 702 l 451 702 l 451 235.02850341796875 b 402.0 18.5 231.0 -4.0 149 236.0284423828125 l 149 702 l 85 702"},"∫":{"ha":600,"x_min":82,"x_max":518,"o":"m 340 537 l 340 -58 b 303.9 -232.3 166.9 -239.6 82 -184 l 104 -120 b 181.4 -159.7 254.9 -155.5 260 -31 l 260 562 b 296.2 736.3 433.5 743.6 518 688 l 497 624 b 437.1 661.3 362.0 670.5 340 537"},"≈":{"ha":600,"x_min":78,"x_max":521,"o":"m 112 384 l 78 444 b 181.9 516.4 253.9 519.1 318 475.5 b 371.1 440.0 422.7 434.5 487 484 l 521 423 b 430.9 364.5 366.2 362.0 304.5 403.5 b 258.4 440.7 202.9 447.1 112 384 m 112 218 l 78 278 b 181.9 350.4 253.9 353.1 318 309.5 b 371.1 274.0 422.7 268.5 487 318 l 521 257 b 430.9 198.5 366.2 196.0 304.5 237.5 b 258.4 274.7 202.9 281.1 112 218"},"≠":{"ha":600,"x_min":88,"x_max":512,"o":"m 88 385 l 88 457 l 316 457 l 377 594 l 449 594 l 388 457 l 512 457 l 512 385 l 357 385 l 315 291 l 512 291 l 512 219 l 284 219 l 217 66 l 145 66 l 212 219 l 88 219 l 88 291 l 243 291 l 285 385 l 88 385"},"≡":{"ha":600,"x_min":69,"x_max":531,"o":"m 531 563 l 531 499 l 69 499 l 69 563 l 531 563 m 531 367 l 531 303 l 69 303 l 69 367 l 531 367 m 531 171 l 531 107 l 69 107 l 69 171 l 531 171"},"≤":{"ha":600,"x_min":88,"x_max":511,"o":"m 143 293 l 511 82 l 476 19 l 108 229 l 143 293 m 471 205 l 88 426 l 88 455 l 466 686 l 504 624 l 206 446 l 509 265 l 471 205"},"≥":{"ha":600,"x_min":89,"x_max":510,"o":"m 472 296 l 509 234 l 143 19 l 105 81 l 472 296 m 127 686 l 510 465 l 510 436 l 132 205 l 94 267 l 395 449 l 89 626 l 127 686"},"⌂":{"ha":600,"x_min":79,"x_max":521,"o":"m 521 328 l 521 0 l 79 0 l 79 328 l 299 518 l 521 328 m 143 298 l 143 64 l 457 64 l 457 298 l 299 433 l 143 298"},"⌐":{"ha":600,"x_min":69,"x_max":531,"o":"m 531 483 l 531 419 l 133 419 l 133 243 l 69 243 l 69 483 l 531 483"},"⌠":{"ha":600,"x_min":264,"x_max":475,"o":"m 336 747 l 336 -235 l 264 -235 l 264 669 b 323.1 916.2 452.5 934.8 475 831 b 475.9 799.3 446.4 776.7 404 794 l 385 815 b 363.1 852.7 336.2 849.5 336 747"},"⌡":{"ha":600,"x_min":124,"x_max":335,"o":"m 263.0205078125 -96.95440673828125 l 263.0205078125 884.9856567382812 l 335.01611328125 884.9856567382812 l 335.01611328125 -18.95916748046875 b 275.9 -266.1 146.6 -284.8 124.02899169921875 -180.94927978515625 b 123.1 -149.2 152.6 -126.6 195.024658203125 -143.9515380859375 l 214.02349853515625 -164.95025634765625 b 235.9 -202.7 262.9 -199.4 263.0205078125 -96.95440673828125"},"─":{"ha":600,"x_min":0,"x_max":600,"o":"m 600 304 l 0 304 l 0 380 l 600 380 l 600 304"},"│":{"ha":600,"x_min":262,"x_max":338,"o":"m 338 -235 l 262 -235 l 262 885 l 338 885 l 338 -235"},"┌":{"ha":600,"x_min":262,"x_max":600,"o":"m 338 -235 l 262 -235 l 262 380 l 600 380 l 600 304 l 338 304 l 338 -235"},"┐":{"ha":600,"x_min":0,"x_max":338,"o":"m 338 -235 l 262 -235 l 262 304 l 0 304 l 0 380 l 338 380 l 338 -235"},"└":{"ha":600,"x_min":262,"x_max":600,"o":"m 600 305 l 262 305 l 262 885 l 338 885 l 338 381 l 600 381 l 600 305"},"┘":{"ha":600,"x_min":0,"x_max":338,"o":"m 338 305 l 0 305 l 0 381 l 262 381 l 262 885 l 338 885 l 338 305"}}}
